<svg width="16" height="16" viewBox="0 0 16 16" fill="none" xmlns="http://www.w3.org/2000/svg">
<path d="M14.625 3.5H13V13C13 13.2652 13.1054 13.5196 13.2929 13.7071C13.4804 13.8946 13.7348 14 14 14C14.2652 14 14.5196 13.8946 14.7071 13.7071C14.8946 13.5196 15 13.2652 15 13V3.875C15 3.77554 14.9605 3.68016 14.8902 3.60983C14.8198 3.53951 14.7245 3.5 14.625 3.5Z" fill="white"/>
<path d="M13.4734 14.9297C13.0505 14.8137 12.6773 14.562 12.4111 14.2135C12.1449 13.8649 12.0005 13.4386 12 13V1.375C12 1.27554 11.9605 1.18016 11.8902 1.10983C11.8198 1.03951 11.7245 1 11.625 1H1.375C1.27554 1 1.18016 1.03951 1.10983 1.10983C1.03951 1.18016 1 1.27554 1 1.375V13.25C1 13.7141 1.18437 14.1592 1.51256 14.4874C1.84075 14.8156 2.28587 15 2.75 15H13.4641C13.4729 15.0003 13.4816 14.9974 13.4884 14.9917C13.4952 14.9859 13.4996 14.9779 13.5007 14.9691C13.5019 14.9603 13.4998 14.9514 13.4947 14.9441C13.4897 14.9368 13.4821 14.9317 13.4734 14.9297ZM3 6.5V3.5H6V6.5H3ZM10 12.5H3V11.5H10V12.5ZM10 10.5H3V9.5H10V10.5ZM10 8.5H3V7.5H10V8.5ZM10 6.5H7V5.5H10V6.5ZM10 4.5H7V3.5H10V4.5Z" fill="white"/>
</svg>
