<svg width="23" height="23" viewBox="0 0 23 23" fill="none" xmlns="http://www.w3.org/2000/svg">
<path d="M11.2801 4.07861V5.01865M16.9203 15.3591H18.8004M13.1602 15.3591H11.2801V19.1193M11.2801 8.77882V11.5989M11.2801 11.5989H11.2895M11.2801 11.5989H15.0497M15.0403 19.1193H18.8004M3.75977 11.5989H7.51993M18.8004 11.5989H18.8098M4.69981 7.83878H6.57989C6.8292 7.83878 7.0683 7.73974 7.2446 7.56344C7.42089 7.38715 7.51993 7.14805 7.51993 6.89874V5.01865C7.51993 4.76934 7.42089 4.53024 7.2446 4.35394C7.0683 4.17765 6.8292 4.07861 6.57989 4.07861H4.69981C4.45049 4.07861 4.21139 4.17765 4.0351 4.35394C3.85881 4.53024 3.75977 4.76934 3.75977 5.01865V6.89874C3.75977 7.14805 3.85881 7.38715 4.0351 7.56344C4.21139 7.73974 4.45049 7.83878 4.69981 7.83878ZM15.9803 7.83878H17.8604C18.1097 7.83878 18.3488 7.73974 18.5251 7.56344C18.7014 7.38715 18.8004 7.14805 18.8004 6.89874V5.01865C18.8004 4.76934 18.7014 4.53024 18.5251 4.35394C18.3488 4.17765 18.1097 4.07861 17.8604 4.07861H15.9803C15.731 4.07861 15.4919 4.17765 15.3156 4.35394C15.1393 4.53024 15.0403 4.76934 15.0403 5.01865V6.89874C15.0403 7.14805 15.1393 7.38715 15.3156 7.56344C15.4919 7.73974 15.731 7.83878 15.9803 7.83878ZM4.69981 19.1193H6.57989C6.8292 19.1193 7.0683 19.0202 7.2446 18.8439C7.42089 18.6676 7.51993 18.4285 7.51993 18.1792V16.2991C7.51993 16.0498 7.42089 15.8107 7.2446 15.6344C7.0683 15.4581 6.8292 15.3591 6.57989 15.3591H4.69981C4.45049 15.3591 4.21139 15.4581 4.0351 15.6344C3.85881 15.8107 3.75977 16.0498 3.75977 16.2991V18.1792C3.75977 18.4285 3.85881 18.6676 4.0351 18.8439C4.21139 19.0202 4.45049 19.1193 4.69981 19.1193Z" stroke="white" stroke-width="2" stroke-linecap="round" stroke-linejoin="round"/>
</svg>
