<svg width="12" height="16" viewBox="0 0 12 16" fill="none" xmlns="http://www.w3.org/2000/svg">
<path fill-rule="evenodd" clip-rule="evenodd" d="M3.13047 0.960552H8.86887C9.54309 0.925231 10.2038 1.15681 10.7052 1.60419C11.2066 2.05157 11.5074 2.67796 11.5413 3.34513V14.7489C11.5423 14.9773 11.4458 15.1955 11.2757 15.3499C11.1057 15.5043 10.8777 15.5805 10.6478 15.56C10.4463 15.56 10.2504 15.4944 10.0903 15.3734L6.54072 12.705C6.20552 12.4563 5.74463 12.4563 5.40943 12.705L1.89261 15.3734C1.73699 15.4911 1.54741 15.5565 1.35157 15.56C1.12168 15.5805 0.893679 15.5043 0.723589 15.3499C0.553498 15.1955 0.457078 14.9773 0.458015 14.7489V3.34513C0.491917 2.67796 0.79276 2.05157 1.29415 1.60419C1.79553 1.15681 2.45625 0.925231 3.13047 0.960552ZM7.30311 11.7398L10.2953 14.0108L10.2789 3.34513C10.2013 2.638 9.56908 2.12033 8.85247 2.17717H3.11407C2.39747 2.12033 1.76525 2.638 1.68767 3.34513V14.0108L4.67984 11.7398C5.45462 11.1557 6.52832 11.1557 7.30311 11.7398Z" fill="#164BA9"/>
</svg>
