<svg width="13" height="16" viewBox="0 0 13 16" fill="none" xmlns="http://www.w3.org/2000/svg">
<g clip-path="url(#clip0_3_2446)">
<path d="M0 2.285V3.71469C0 4.97188 2.91339 6 6.5 6C10.0866 6 13 4.97188 13 3.71563V2.285C13 1.0275 10.0866 0 6.5 0C2.91339 0 0 1.0275 0 2.285ZM0 5.5V8.71562C0 9.97188 2.91339 11 6.5 11C10.0866 11 13 9.97188 13 8.71562V5.5C11.6037 6.535 9.04777 7.01937 6.5 7.01937C3.95223 7.01937 1.39576 6.53438 0 5.5ZM0 10.5V13.7156C0 14.9719 2.91339 16 6.5 16C10.0866 16 13 14.9725 13 13.7147V10.5C11.6037 11.5353 9.04777 12.0197 6.5 12.0197C3.95223 12.0197 1.39576 11.5344 0 10.5Z" fill="white"/>
</g>
<defs>
<clipPath id="clip0_3_2446">
<rect width="13" height="16" fill="white" transform="matrix(-1 0 0 1 13 0)"/>
</clipPath>
</defs>
</svg>
