<svg width="26" height="26" viewBox="0 0 26 26" fill="none" xmlns="http://www.w3.org/2000/svg">
<path fill-rule="evenodd" clip-rule="evenodd" d="M4.40024 8.30868C5.94529 4.59866 9.56541 2.17779 13.5843 2.16705C17.9231 2.14098 21.7825 4.91898 23.135 9.04166C24.4875 13.1643 23.0237 17.6887 19.5127 20.2378C16.0016 22.787 11.2464 22.778 7.74512 20.2154L4.63595 23.3246C4.31873 23.6414 3.80484 23.6414 3.48762 23.3246C3.17079 23.0073 3.17079 22.4934 3.48762 22.1762L6.51012 19.1537C3.68685 16.2935 2.85519 12.0187 4.40024 8.30868ZM16.0984 8.71214C16.3627 9.34463 16.983 9.75477 17.6685 9.75039C18.5958 9.75039 19.3476 8.9986 19.3476 8.07122C19.352 7.38573 18.9419 6.76549 18.3094 6.50114C17.6769 6.23678 16.9474 6.38068 16.4626 6.86541C15.9779 7.35014 15.834 8.07966 16.0984 8.71214Z" fill="white"/>
</svg>
