<svg width="326" height="187" viewBox="0 0 326 187" fill="none" xmlns="http://www.w3.org/2000/svg">
<path d="M168.02 71.3635C176.887 71.3635 184.381 65.3941 186.564 57.2582L185.037 54.4962C182.932 50.6485 182.932 46.207 184.672 42.4982C181.405 36.6821 175.224 32.8201 168.02 32.8201C157.397 32.8201 148.758 41.4749 148.758 52.0838C148.758 62.7838 157.397 71.3635 168.02 71.3635Z" fill="#4B5563"/>
<path d="M215.977 66.5707L203.46 44.2224C201.308 40.3604 196.424 38.9858 192.578 41.1539C188.716 43.306 187.343 48.1914 189.511 52.0374L197.92 67.0592L185.894 73.043C180.612 75.6677 174.705 77.0567 168.8 77.0567H159.61C153.216 77.0567 147.05 79.2711 142.257 83.2847C135.694 88.7656 127.101 99.207 123.361 117.799C122.492 122.135 125.301 126.348 129.619 127.218C130.154 127.325 130.687 127.386 131.206 127.386C134.931 127.386 138.274 124.759 139.037 120.958C141.143 110.502 145.05 103.664 148.789 99.2676L148.5 131C154.5 131 152.615 131 155.5 131H182C184.885 131 182 130.989 187.327 131V89.7874C189.267 89.0865 191.175 88.2771 193.021 87.3607L212.573 77.6378C214.526 76.6607 216.007 74.9205 216.648 72.8291C217.289 70.7376 217.045 68.4785 215.977 66.5707Z" fill="#4B5563"/>
<mask id="mask0_1_6168" style="mask-type:luminance" maskUnits="userSpaceOnUse" x="72" y="0" width="72" height="72">
<path d="M72 0L143.025 0V71.1159H72V0Z" fill="white"/>
</mask>
<g mask="url(#mask0_1_6168)">
<path d="M137.614 70.4026C140.652 71.7916 143.796 68.6624 142.407 65.6242L136.074 51.8254C139.08 46.7101 140.836 40.7886 140.836 34.4232C140.836 15.4021 125.42 0.000366211 106.418 0.000366211C87.4001 0.000366211 72 15.4021 72 34.4232C72 53.4267 87.4001 68.8444 106.418 68.8444C112.782 68.8444 118.705 67.0898 123.817 64.082L137.614 70.4026ZM107.044 56.9997C104.45 56.9997 102.342 54.8923 102.342 52.282C102.342 49.6876 104.45 47.5658 107.044 47.5658C109.638 47.5658 111.76 49.6876 111.76 52.282C111.744 54.8779 109.638 56.9997 107.044 56.9997ZM118.461 32.8346C116.613 35.3236 114.72 36.62 113.377 37.5971C111.806 38.6811 111.149 39.1697 110.997 41.6587C110.89 42.7874 109.913 43.6575 108.784 43.6575H105.425C104.175 43.6575 103.152 42.5735 103.258 41.2771C103.686 35.3683 106.02 33.2625 108.891 31.2477C110.08 30.3776 111.104 29.6751 112.188 28.2095C113.27 26.6992 113.438 24.6843 112.507 22.8978C111.912 21.7068 110.341 19.708 106.555 19.708C101.625 19.708 100.115 22.7909 99.6711 25.2335C99.5035 26.3176 98.5886 27.0807 97.5653 27.0807H94.1471C92.7884 27.0807 91.7651 25.8897 91.9327 24.5917C92.9098 18.1497 97.5653 11.968 106.555 11.968C112.293 11.968 117.056 14.7316 119.438 19.387C121.665 23.8446 121.283 28.9279 118.461 32.8346Z" fill="#4B5563"/>
</g>
<mask id="mask1_1_6168" style="mask-type:luminance" maskUnits="userSpaceOnUse" x="0" y="133" width="326" height="54">
<path d="M0 133.254H326V186.039H0V133.254Z" fill="white"/>
</mask>
<g mask="url(#mask1_1_6168)">
<path d="M299.647 182.511H26.3531C13.7646 182.511 3.52627 172.253 3.52627 159.647C3.52627 147.036 13.7646 136.778 26.3531 136.778H299.647C312.238 136.778 322.476 147.036 322.476 159.647C322.476 172.253 312.238 182.511 299.647 182.511ZM299.647 133.252H26.3531C11.8235 133.252 0 145.091 0 159.647C0 174.201 11.8235 186.04 26.3531 186.04H299.647C314.179 186.04 326 174.201 326 159.647C326 145.091 314.179 133.252 299.647 133.252Z" fill="#4B5563"/>
</g>
<path d="M21.4454 159.288C21.4454 155.815 24.2664 152.987 27.7352 152.987C31.204 152.987 34.0272 155.815 34.0272 159.288C34.0272 162.764 31.204 165.589 27.7352 165.589C24.2664 165.589 21.4454 162.764 21.4454 159.288ZM35.8047 164.875C36.9035 163.285 37.5513 161.362 37.5513 159.288C37.5513 153.867 33.1473 149.457 27.7352 149.457C22.3231 149.457 17.9191 153.867 17.9191 159.288C17.9191 164.709 22.3231 169.118 27.7352 169.118C29.8068 169.118 31.7302 168.472 33.3131 167.371L39.3288 173.396C39.6737 173.74 40.1247 173.913 40.5757 173.913C41.0245 173.913 41.4755 173.74 41.8204 173.396C42.508 172.708 42.508 171.589 41.8204 170.902L35.8047 164.875Z" fill="#4B5563"/>
<path d="M305.435 155.853C304.942 155.853 304.539 156.253 304.539 156.749V159.782C304.539 163.242 301.729 166.054 298.276 166.054C294.823 166.054 292.013 163.242 292.013 159.782V156.749C292.013 156.253 291.61 155.853 291.117 155.853C290.622 155.853 290.222 156.253 290.222 156.749V159.782C290.222 163.927 293.361 167.352 297.383 167.796V171.623H295.258C294.763 171.623 294.365 172.028 294.365 172.521C294.365 173.016 294.763 173.416 295.258 173.416H301.294C301.789 173.416 302.187 173.016 302.187 172.521C302.187 172.028 301.789 171.623 301.294 171.623H299.169V167.796C303.191 167.352 306.33 163.927 306.33 159.782V156.749C306.33 156.253 305.928 155.853 305.435 155.853Z" fill="#4B5563"/>
<path d="M298.275 163.994C300.572 163.994 302.433 162.13 302.433 159.828V153.669C302.433 151.372 300.572 149.506 298.275 149.506C295.978 149.506 294.116 151.372 294.116 153.669V159.828C294.116 162.13 295.978 163.994 298.275 163.994Z" fill="#4B5563"/>
</svg>
