<svg width="326" height="172" viewBox="0 0 326 172" fill="none" xmlns="http://www.w3.org/2000/svg">
<mask id="mask0_1_6309" style="mask-type:luminance" maskUnits="userSpaceOnUse" x="30" y="8" width="168" height="109">
<path d="M30.1292 8.73145L197.253 8.44848L197.124 115.922L30.0009 116.205L30.1292 8.73145Z" fill="white"/>
</mask>
<g mask="url(#mask0_1_6309)">
<path d="M181.684 10.6219C179.896 9.73338 177.653 9.28624 177.653 9.28624C176.862 9.11228 175.068 8.85205 173.778 8.85205C164.351 8.85205 154.385 17.1866 148.976 29.5927C145.855 36.7555 144.709 44.3007 145.751 50.8424C146.81 57.4875 150.007 62.7223 154.759 65.132L149.779 76.0702C148.737 76.3736 147.715 76.7804 146.762 77.4073L127.697 89.9601C127.697 89.9601 100.532 49.028 100.464 48.9345C97.2677 43.1965 87.0536 37.4959 77.2147 40.2463C54.0526 47.2869 33.5244 90.5021 31.0081 116.036L101.175 116.056L102.517 98.9933L82.2389 68.0347C81.6529 67.1405 81.9074 65.9414 82.8065 65.3548C83.7041 64.7653 84.9052 65.0198 85.4927 65.9112L115.815 111.783C117.948 114.586 121.202 116.11 124.539 116.11C126.624 116.11 128.732 115.52 130.604 114.284L158.853 95.6837C163.927 92.3438 165.334 85.542 161.995 80.4955C160.677 78.5043 158.811 77.1097 156.735 76.3232L160.575 67.8924C162.308 68.4502 164.086 68.7335 165.882 68.7335C169.726 68.7335 173.639 67.4596 177.343 64.9566C182.688 61.3421 187.427 55.2346 190.686 47.7584C197.529 32.0541 193.272 16.3843 181.684 10.6219ZM180.966 43.3662C176.568 53.459 168.275 60.7828 161.248 60.7828C159.987 60.7828 158.793 60.5442 157.691 60.0697C154.316 58.619 152.012 55.029 151.201 49.961C150.323 44.4416 151.331 37.9833 154.036 31.7709C158.438 21.678 166.732 14.3514 173.762 14.3514C175.019 14.3514 176.214 14.59 177.308 15.0602C184.606 18.2045 186.281 31.167 180.966 43.3662Z" fill="#4B5563"/>
</g>
<path d="M102.404 43.3619C113.469 49.9193 127.769 46.2521 134.322 35.19C140.883 24.112 137.219 9.81512 126.156 3.25914C115.069 -3.30548 100.782 0.36027 94.2204 11.4383C87.663 22.5018 91.3172 36.7973 102.404 43.3619Z" fill="#4B5563"/>
<path d="M166 27.0186C168.03 25.0495 170.11 24.2134 171.705 24.7237C172.638 25.0164 173.425 25.7573 174.042 26.922C174.492 27.7624 175.53 28.0868 176.376 27.6356C177.219 27.1887 177.536 26.1436 177.091 25.3018C176.047 23.3356 174.545 21.9993 172.748 21.4299C169.859 20.5117 166.608 21.6173 163.596 24.5407C160.86 27.1959 158.57 31.1154 157.152 35.5797C156.281 38.3316 155.783 41.1771 155.712 43.8093C155.685 44.7621 156.438 45.555 157.393 45.5809C157.407 45.5809 157.423 45.5809 157.437 45.5809C158.37 45.5809 159.135 44.8385 159.161 43.9001C159.225 41.5879 159.666 39.0725 160.444 36.6234C161.691 32.6953 163.665 29.2847 166 27.0186Z" fill="#4B5563"/>
<mask id="mask1_1_6309" style="mask-type:luminance" maskUnits="userSpaceOnUse" x="0" y="118" width="326" height="54">
<path d="M0 118.254H326V171.039H0V118.254Z" fill="white"/>
</mask>
<g mask="url(#mask1_1_6309)">
<path d="M299.647 167.511H26.3531C13.7646 167.511 3.52627 157.253 3.52627 144.647C3.52627 132.036 13.7646 121.778 26.3531 121.778H299.647C312.238 121.778 322.476 132.036 322.476 144.647C322.476 157.253 312.238 167.511 299.647 167.511ZM299.647 118.252H26.3531C11.8235 118.252 0 130.091 0 144.647C0 159.201 11.8235 171.04 26.3531 171.04H299.647C314.179 171.04 326 159.201 326 144.647C326 130.091 314.179 118.252 299.647 118.252Z" fill="#4B5563"/>
</g>
<path d="M21.4454 144.288C21.4454 140.815 24.2664 137.987 27.7352 137.987C31.204 137.987 34.0272 140.815 34.0272 144.288C34.0272 147.764 31.204 150.589 27.7352 150.589C24.2664 150.589 21.4454 147.764 21.4454 144.288ZM35.8047 149.875C36.9035 148.285 37.5513 146.362 37.5513 144.288C37.5513 138.867 33.1473 134.457 27.7352 134.457C22.3231 134.457 17.9191 138.867 17.9191 144.288C17.9191 149.709 22.3231 154.117 27.7352 154.117C29.8068 154.117 31.7302 153.472 33.3131 152.371L39.3288 158.395C39.6737 158.74 40.1247 158.913 40.5757 158.913C41.0245 158.913 41.4755 158.74 41.8204 158.395C42.508 157.708 42.508 156.589 41.8204 155.902L35.8047 149.875Z" fill="#4B5563"/>
<path d="M305.435 140.853C304.942 140.853 304.539 141.253 304.539 141.748V144.782C304.539 148.242 301.729 151.054 298.276 151.054C294.823 151.054 292.013 148.242 292.013 144.782V141.748C292.013 141.253 291.61 140.853 291.117 140.853C290.622 140.853 290.222 141.253 290.222 141.748V144.782C290.222 148.927 293.361 152.352 297.383 152.796V156.623H295.258C294.763 156.623 294.365 157.027 294.365 157.52C294.365 158.016 294.763 158.416 295.258 158.416H301.294C301.789 158.416 302.187 158.016 302.187 157.52C302.187 157.027 301.789 156.623 301.294 156.623H299.169V152.796C303.191 152.352 306.33 148.927 306.33 144.782V141.748C306.33 141.253 305.928 140.853 305.435 140.853Z" fill="#4B5563"/>
<path d="M298.275 148.994C300.572 148.994 302.433 147.13 302.433 144.828V138.669C302.433 136.372 300.572 134.506 298.275 134.506C295.978 134.506 294.116 136.372 294.116 138.669V144.828C294.116 147.13 295.978 148.994 298.275 148.994Z" fill="#4B5563"/>
</svg>
