<svg width="50" height="50" viewBox="0 0 50 50" fill="none" xmlns="http://www.w3.org/2000/svg">
<path fill-rule="evenodd" clip-rule="evenodd" d="M22.1207 21.3143C22.0756 19.4372 20.9356 17.7605 19.2068 17.0286C19.2726 16.8723 19.309 16.7052 19.3139 16.5357V7.96429C19.3139 7.07669 18.5945 6.35715 17.707 6.35715C16.8195 6.35715 16.1 7.07669 16.1 7.96429V16.4286C16.0879 16.521 16.0879 16.6147 16.1 16.7071C13.6888 17.3209 12.1521 19.6827 12.5677 22.1362C12.9833 24.5897 15.212 26.3135 17.6908 26.0988C20.1696 25.8841 22.0688 23.8027 22.0564 21.3143H22.1207ZM15.8001 21.3143C15.8001 20.4504 16.5003 19.75 17.3642 19.75C18.228 19.75 18.9282 20.4504 18.9282 21.3143C18.9282 22.1782 18.228 22.8786 17.3642 22.8786C16.5003 22.8786 15.8001 22.1782 15.8001 21.3143Z" fill="white"/>
<path d="M16.1 42.1429V29.2857C16.1 28.3981 16.8195 27.6786 17.707 27.6786C18.5945 27.6786 19.3139 28.3981 19.3139 29.2857V42.1429C19.3139 43.0305 18.5945 43.75 17.707 43.75C16.8195 43.75 16.1 43.0305 16.1 42.1429Z" fill="white"/>
<path fill-rule="evenodd" clip-rule="evenodd" d="M33.2406 38.05C31.3424 37.3788 30.0724 35.585 30.0696 33.5714H30.0267C30.0237 31.1483 31.8345 29.1064 34.2404 28.8202C36.6463 28.534 38.8855 30.0942 39.4508 32.4505C40.016 34.8069 38.7283 37.2133 36.4545 38.05V42.1429C36.4545 43.0305 35.735 43.75 34.8475 43.75C33.96 43.75 33.2406 43.0305 33.2406 42.1429V38.05ZM34.9602 35.1331C35.8125 35.1184 36.496 34.4239 36.4973 33.5714H36.4116C36.4116 32.7075 35.7113 32.0071 34.8475 32.0071C33.9964 32.0539 33.3395 32.7735 33.3702 33.6255C33.4009 34.4774 34.108 35.1479 34.9602 35.1331Z" fill="white"/>
<path d="M33.2406 25V7.85714C33.2406 6.96954 33.96 6.25 34.8475 6.25C35.735 6.25 36.4545 6.96954 36.4545 7.85714V25C36.4545 25.8876 35.735 26.6071 34.8475 26.6071C33.96 26.6071 33.2406 25.8876 33.2406 25Z" fill="white"/>
</svg>
