<svg width="619" height="642" viewBox="0 0 619 642" fill="none" xmlns="http://www.w3.org/2000/svg">
<path d="M419.891 235.495C399.746 156.796 293.579 116.675 293.579 116.675C293.579 116.675 187.396 76.5482 120.25 122.261C58.6026 164.201 29.5024 242.36 29.5024 242.36L49.8324 305.582L351.465 419.569L408.526 385.594C408.526 385.594 438.389 307.723 419.891 235.495Z" fill="#D5E9F2"/>
<path d="M419.945 235.516C412.041 204.687 390.933 179.735 368.177 160.832C378.596 174.204 386.926 189.337 391.284 206.349C409.781 278.591 379.948 356.458 379.948 356.458L322.891 390.435L43.1914 284.736L49.891 305.604L351.523 419.592L408.584 385.616C408.584 385.616 438.448 307.746 419.945 235.516Z" fill="#A8D7E9"/>
<path d="M361.534 227.885C332.248 182.38 221.096 140.375 169.054 155.147C112.524 171.17 84.5156 249.825 84.5156 249.825L362.328 354.811C362.328 354.811 393.342 277.282 361.534 227.885Z" fill="#002B43"/>
<path d="M85.6756 250.256C98.0269 225.813 123.161 186.589 161.252 175.793C213.311 161.038 324.442 203.035 353.732 248.532C375.163 281.821 368.076 327.847 361.17 354.365L362.331 354.804C362.331 354.804 393.342 277.283 361.537 227.878C332.247 182.381 221.095 140.376 169.054 155.148C112.524 171.171 84.5153 249.826 84.5153 249.826L85.6756 250.256Z" fill="#000F16"/>
<path d="M265.85 89.5306L332.336 114.656C332.726 114.803 333.097 114.986 333.455 115.205C333.807 115.428 334.138 115.68 334.445 115.96C334.749 116.244 335.025 116.554 335.269 116.886C335.515 117.223 335.721 117.578 335.895 117.954C336.07 118.329 336.207 118.715 336.304 119.117C336.398 119.514 336.455 119.921 336.473 120.331C336.486 120.74 336.461 121.148 336.399 121.552C336.332 121.959 336.227 122.351 336.083 122.733L328.366 143.153C328.222 143.535 328.041 143.898 327.823 144.248C327.602 144.591 327.35 144.914 327.07 145.212C326.786 145.508 326.474 145.775 326.141 146.011C325.802 146.249 325.444 146.447 325.065 146.613C324.686 146.78 324.296 146.91 323.889 147C323.485 147.091 323.074 147.138 322.658 147.15C322.241 147.161 321.826 147.131 321.417 147.061C321.003 146.989 320.604 146.88 320.214 146.733L253.728 121.608C253.338 121.461 252.962 121.276 252.608 121.058C252.255 120.84 251.924 120.588 251.619 120.304C251.314 120.02 251.037 119.713 250.791 119.376C250.549 119.04 250.338 118.684 250.164 118.308C249.994 117.934 249.857 117.549 249.76 117.146C249.661 116.748 249.604 116.341 249.591 115.932C249.574 115.522 249.598 115.114 249.664 114.711C249.732 114.305 249.837 113.913 249.981 113.531L257.698 93.1111C257.842 92.7291 258.023 92.3654 258.241 92.0161C258.458 91.6708 258.709 91.348 258.993 91.0517C259.274 90.7539 259.585 90.4868 259.923 90.2529C260.262 90.0149 260.62 89.8167 260.995 89.6486C261.374 89.4821 261.767 89.3538 262.171 89.2622C262.577 89.1763 262.989 89.1255 263.406 89.1139C263.821 89.1064 264.236 89.1365 264.647 89.2026C265.056 89.2729 265.46 89.3832 265.85 89.5306Z" fill="#D5E9F2"/>
<path d="M275.519 110.953L315.298 32.6849L327.209 37.1864L310.731 124.814L275.519 110.953Z" fill="#D5E9F2"/>
<mask id="mask0_31_2591" style="mask-type:luminance" maskUnits="userSpaceOnUse" x="301" y="15" width="41" height="40">
<path d="M311.792 15.2539L341.846 26.6114L331.134 54.959L301.079 43.6015L311.792 15.2539Z" fill="white"/>
</mask>
<g mask="url(#mask0_31_2591)">
<path d="M335.986 40.461C335.636 41.3853 335.199 42.2623 334.672 43.1004C334.146 43.9344 333.541 44.7105 332.858 45.4286C332.176 46.1427 331.43 46.7855 330.615 47.3556C329.801 47.9257 328.937 48.4114 328.023 48.8126C327.11 49.2138 326.164 49.5229 325.192 49.7376C324.214 49.9548 323.223 50.078 322.218 50.1017C321.212 50.1254 320.214 50.0534 319.225 49.8814C318.234 49.7136 317.265 49.4506 316.321 49.0941C315.382 48.7392 314.481 48.2955 313.627 47.7661C312.767 47.2393 311.971 46.6332 311.237 45.952C310.498 45.2692 309.837 44.5216 309.247 43.7118C308.655 42.9062 308.15 42.0488 307.73 41.1437C307.31 40.2386 306.988 39.3046 306.754 38.3384C306.52 37.3722 306.381 36.395 306.342 35.4084C306.304 34.4177 306.364 33.4357 306.525 32.4639C306.684 31.4863 306.936 30.5395 307.286 29.6153C307.633 28.6952 308.072 27.814 308.598 26.98C309.121 26.1403 309.726 25.3643 310.408 24.6502C311.091 23.9321 311.841 23.2908 312.656 22.7207C313.47 22.1506 314.33 21.6634 315.242 21.2663C316.155 20.8651 317.101 20.5559 318.079 20.3388C319.057 20.1216 320.046 20.0024 321.052 19.9787C322.053 19.9534 323.052 20.0255 324.046 20.1949C325.037 20.3628 326.006 20.6257 326.946 20.9807C327.889 21.3372 328.79 21.7809 329.644 22.3102C330.498 22.8395 331.294 23.4456 332.033 24.1285C332.772 24.8113 333.435 25.5547 334.025 26.3645C334.61 27.1727 335.115 28.0301 335.535 28.9352C335.957 29.8361 336.283 30.7718 336.517 31.738C336.751 32.7042 336.885 33.6798 336.923 34.6705C336.962 35.657 336.903 36.6391 336.744 37.6166C336.587 38.59 336.333 39.5409 335.986 40.461Z" fill="#D5E9F2"/>
</g>
<path d="M334.724 27.4453C334.786 28.0791 334.809 28.7167 334.789 29.3523C334.769 29.988 334.707 30.6217 334.608 31.2509C334.505 31.8786 334.367 32.4977 334.185 33.1051C334.004 33.7124 333.787 34.3112 333.53 34.8901C333.271 35.473 332.978 36.0335 332.648 36.5756C332.317 37.1218 331.953 37.6414 331.555 38.1386C331.156 38.6357 330.73 39.1038 330.269 39.5493C329.81 39.9908 329.324 40.4032 328.81 40.7864C328.302 41.1671 327.764 41.5131 327.208 41.8289C326.649 42.1432 326.069 42.4218 325.474 42.6662C324.88 42.9065 324.27 43.1126 323.652 43.278C323.028 43.4459 322.397 43.5689 321.758 43.6609C321.117 43.7472 320.471 43.7943 319.827 43.7997C319.182 43.8092 318.533 43.7754 317.89 43.7014C317.247 43.6275 316.61 43.5134 315.981 43.3649C315.349 43.2106 314.732 43.0194 314.124 42.7897C312.495 42.179 311.016 41.3147 309.675 40.2074C308.341 39.0976 307.229 37.8043 306.336 36.326C306.394 36.883 306.487 37.4347 306.611 37.9836C306.734 38.5324 306.888 39.0744 307.07 39.6078C307.256 40.1428 307.472 40.6611 307.714 41.175C307.958 41.6847 308.227 42.1762 308.528 42.6608C308.826 43.1396 309.149 43.6043 309.502 44.0522C309.852 44.4944 310.227 44.9225 310.625 45.3265C311.022 45.7346 311.444 46.1147 311.888 46.4748C312.326 46.8375 312.784 47.1704 313.267 47.4794C313.743 47.7909 314.24 48.0727 314.747 48.3298C315.259 48.5845 315.781 48.8145 316.315 49.0116C316.849 49.2087 317.392 49.3812 317.948 49.5208C318.5 49.6588 319.062 49.7681 319.627 49.8454C320.192 49.9228 320.758 49.9723 321.328 49.9858C321.896 50.0034 322.463 49.9875 323.032 49.9397C323.595 49.8944 324.157 49.8156 324.715 49.7074C325.274 49.5992 325.82 49.4584 326.362 49.2924C326.901 49.1206 327.432 48.922 327.949 48.6949C328.466 48.4678 328.97 48.2122 329.455 47.9308C329.941 47.6452 330.411 47.3393 330.864 47.0034C331.317 46.6675 331.745 46.3082 332.158 45.9246C332.566 45.5434 332.954 45.1363 333.317 44.71C333.683 44.2852 334.019 43.8395 334.334 43.3761C334.648 42.9127 334.93 42.4325 335.19 41.9345C335.448 41.4407 335.675 40.9301 335.876 40.41C336.075 39.8843 336.247 39.3531 336.384 38.8133C336.526 38.271 336.632 37.7243 336.707 37.1706C336.788 36.6143 336.831 36.0577 336.847 35.4957C336.861 34.9378 336.843 34.377 336.791 33.8175C336.743 33.2596 336.661 32.7028 336.548 32.153C336.435 31.6032 336.296 31.0578 336.12 30.5219C335.948 29.9875 335.745 29.4601 335.507 28.9478C335.275 28.433 335.015 27.9308 334.724 27.4453Z" fill="#A8D7E9"/>
<path d="M49.832 305.582L351.464 419.57L408.525 385.594L29.502 242.36L49.832 305.582Z" fill="#A8D7E9"/>
<path d="M331.977 133.604C331.201 135.658 329.218 136.848 327.574 136.226L294.342 123.668C292.694 123.045 291.992 120.883 292.782 118.793L297.689 105.808C298.465 103.754 300.436 102.56 302.083 103.183L335.353 115.755C337.001 116.378 337.712 118.543 336.921 120.634L331.977 133.604Z" fill="#A8D7E9"/>
<path d="M224.035 121.033C222.625 110.144 198.789 107.056 190.395 107.663C183.538 108.156 170.705 110.151 161.589 113.911C154.591 116.098 148.006 119.13 141.836 123.018C136.677 126.261 126.632 133.163 128.586 140.722C130.69 149.014 140.588 146.253 145.871 143.926C159.618 137.84 171.303 130.187 187.156 129.305C194.938 128.913 225.734 133.88 224.035 121.033Z" fill="white"/>
<path d="M318.922 24.7681C311.543 23.8153 308.894 38.6622 320.051 34.3443C328.922 30.9178 323.388 24.5501 318.922 24.7681Z" fill="white"/>
<path d="M364.626 550.334L343.326 428.488L50.0378 317.654L-46.5391 394.954C-46.5391 394.954 -59.7065 437.405 -59.816 480.716C-59.9956 547.29 -47.9801 578.499 -47.9801 578.499L13.8657 633.032L84.7231 667.358L84.6765 667.481C84.6765 667.481 85.1877 667.599 85.3596 667.664C85.5315 667.729 85.9847 667.975 85.9847 667.975L86.0313 667.852L161.881 688.967L244.343 688.945C244.343 688.945 283.017 665.789 317.894 623.43C345.405 590.052 364.626 550.334 364.626 550.334Z" fill="#D5E9F2"/>
<path d="M343.327 428.49L273.877 402.244L295.195 524.096C295.195 524.096 275.956 563.784 248.434 597.205C213.548 639.561 198.84 656.127 174.887 662.722C155.093 668.198 92.4323 662.723 92.4323 662.723L51.8074 651.418L84.7245 667.359L84.6779 667.482C84.6779 667.482 85.1891 667.6 85.361 667.665C85.5329 667.73 85.986 667.977 85.986 667.977L86.0326 667.853L161.882 688.969L244.345 688.946C244.345 688.946 283.019 665.791 317.896 623.431C345.407 590.053 364.628 550.335 364.628 550.335L343.327 428.49Z" fill="#A8D7E9"/>
<path d="M-46.5459 394.973L364.649 550.364L337.329 574.172L-46.5459 394.973Z" fill="#A8D7E9"/>
<path d="M11.0304 492.209C15.3259 477.317 32.9258 461.201 18.969 447.199C11.8379 440.026 -2.20756 432.878 -12.0858 438.769C-13.9045 439.917 -15.506 441.302 -16.8894 442.934C-18.2686 444.567 -19.3744 446.365 -20.1944 448.332C-26.51 457.728 -26.5341 474.948 -27.4024 485.233C-28.3977 497.288 -32.0538 539.625 -8.22477 536.72C8.03852 534.703 7.85873 503.239 11.0304 492.209Z" fill="white"/>
<path d="M87.3999 355.537C83.1803 339.658 69.022 339.072 56.6428 344.759C32.215 349.109 -7.33082 389.647 21.0447 405.801C37.3734 415.099 50.5355 396.385 60.6543 387.398C69.9344 379.159 91.5506 371.104 87.3999 355.537Z" fill="white"/>
<path d="M38.7418 313.387C38.7418 313.387 -85.5079 245.294 -108.276 245.835C-131.044 246.375 -147.846 271.703 -110.564 318.165C-74.3963 363.252 -50.1237 380.983 -50.1237 380.983L38.7418 313.387Z" fill="#D5E9F2"/>
<path d="M-109.818 245.251C-107.531 245.195 -87.3692 250.627 -83.3707 251.927C-82.4201 268.862 -111.88 274.178 -88.936 302.79C-64.1054 333.739 -43.9448 353.78 -20.2549 358.268L-50.1062 380.988C-50.1062 380.988 -74.3924 363.243 -110.546 318.17C-147.845 271.703 -132.6 245.829 -109.818 245.251Z" fill="#A8D7E9"/>
<path d="M278.974 274.032C278.667 273.906 278.349 273.847 278.023 273.846C277.694 273.844 277.377 273.907 277.077 274.029C276.778 274.15 276.51 274.326 276.28 274.553C276.046 274.78 275.87 275.042 275.745 275.337C275.692 275.476 271.417 285.545 262.754 288.398C254.485 291.122 242.349 288.493 236.779 286.37C231.483 284.622 220.355 278.224 215.945 270.709C211.342 262.843 214.783 252.459 214.835 252.319C214.946 252.014 214.988 251.701 214.966 251.378C214.946 251.051 214.861 250.742 214.712 250.451C214.569 250.158 214.374 249.901 214.125 249.685C213.876 249.469 213.597 249.307 213.284 249.198C212.97 249.089 212.652 249.044 212.324 249.061C211.991 249.08 211.683 249.161 211.387 249.298C211.093 249.44 210.835 249.629 210.619 249.871C210.403 250.114 210.242 250.386 210.14 250.695C209.949 251.2 205.895 263.259 211.661 273.108C217.541 283.146 228.075 288.315 233.937 290.53C240.939 293.176 253.34 296.675 264.39 293.034C275.22 289.456 280.145 277.728 280.353 277.229C280.476 276.928 280.536 276.617 280.53 276.291C280.527 275.97 280.458 275.658 280.332 275.357C280.201 275.058 280.018 274.792 279.784 274.563C279.55 274.334 279.277 274.155 278.974 274.032Z" fill="#3AEDB1"/>
<path d="M202.026 222.871C201.585 222.705 201.197 222.464 200.852 222.146C200.506 221.833 200.234 221.462 200.037 221.045C199.838 220.622 199.731 220.183 199.704 219.722C199.681 219.263 199.748 218.819 199.907 218.386C200.772 215.488 200.904 212.552 200.304 209.574C199.001 203.449 194.342 198.825 186.46 195.846L186.305 195.787C169.261 189.435 161.643 202.531 161.326 203.078C161.102 203.482 160.804 203.825 160.441 204.115C160.075 204.399 159.666 204.606 159.212 204.73C158.762 204.855 158.302 204.893 157.831 204.832C157.363 204.778 156.922 204.639 156.509 204.413C156.096 204.186 155.74 203.887 155.446 203.523C155.149 203.157 154.937 202.753 154.803 202.308C154.671 201.859 154.627 201.406 154.676 200.946C154.725 200.485 154.864 200.054 155.089 199.651C158.787 193.11 170.571 182.518 188.729 189.296L188.918 189.367C214.251 198.94 206.67 220.65 206.587 220.868C206.428 221.301 206.19 221.69 205.876 222.026C205.561 222.367 205.187 222.634 204.764 222.827C204.337 223.017 203.889 223.125 203.419 223.14C202.949 223.155 202.491 223.085 202.049 222.923L202.026 222.871Z" fill="#3AEDB1"/>
<path d="M337.539 274.082C337.103 273.918 336.711 273.675 336.364 273.362C336.024 273.045 335.75 272.679 335.555 272.258C335.354 271.839 335.247 271.399 335.225 270.936C335.203 270.477 335.27 270.033 335.429 269.6C336.29 266.7 336.421 263.764 335.822 260.787C334.519 254.661 329.868 250.04 321.986 247.061L321.831 247.003C304.795 240.654 297.169 253.747 296.852 254.294C296.628 254.697 296.33 255.04 295.963 255.329C295.601 255.614 295.188 255.82 294.738 255.945C294.288 256.071 293.824 256.107 293.357 256.048C292.889 255.993 292.448 255.855 292.035 255.628C291.622 255.402 291.266 255.103 290.972 254.738C290.675 254.372 290.459 253.967 290.325 253.522C290.193 253.073 290.153 252.621 290.202 252.161C290.251 251.701 290.39 251.27 290.615 250.867C294.325 244.256 306.083 233.71 324.294 240.484L324.487 240.557C349.816 250.128 342.189 271.821 342.106 272.039C341.948 272.472 341.711 272.856 341.395 273.197C341.08 273.538 340.711 273.803 340.283 273.997C339.857 274.188 339.41 274.292 338.938 274.311C338.472 274.327 338.014 274.257 337.568 274.093L337.539 274.082Z" fill="#3AEDB1"/>
<path d="M51.5767 207.266L-153.164 275.026L-153.085 275.248C-165.76 281.222 -172.406 294.549 -168.203 306.569C-163.996 318.589 -150.207 325.147 -136.429 322.388L-136.35 322.61L68.4035 254.856L51.5767 207.266Z" fill="#2A56F4"/>
<path d="M65.1691 245.474L-124.151 308.095L-124.249 307.861C-138.04 310.653 -151.758 304.084 -156.011 292.046C-156.91 289.467 -157.339 286.822 -157.289 284.104C-157.241 281.39 -156.726 278.773 -155.739 276.249C-166.677 282.725 -172.169 295 -168.212 306.199C-163.963 318.235 -150.234 324.776 -136.451 322.004L-136.371 322.236L68.3857 254.473L65.1691 245.474Z" fill="#0643F2"/>
<path d="M258.959 153.294C259.786 155.076 260.569 156.883 261.309 158.703C262.048 160.527 262.742 162.366 263.388 164.221C264.038 166.076 264.639 167.947 265.194 169.827C265.752 171.709 266.258 173.605 266.721 175.512C267.179 177.417 267.591 179.333 267.961 181.257C268.326 183.183 268.64 185.114 268.91 187.052C269.183 188.99 269.403 190.932 269.577 192.881C269.75 194.833 269.872 196.78 269.948 198.734C270.024 200.687 270.052 202.642 270.03 204.591C270.01 206.545 269.939 208.495 269.82 210.445C269.697 212.394 269.533 214.336 269.314 216.272C269.098 218.214 268.837 220.148 268.522 222.071C268.212 223.995 267.852 225.911 267.443 227.817C267.034 229.724 266.578 231.617 266.078 233.498C265.572 235.382 265.024 237.249 264.423 239.107C263.827 240.961 263.186 242.798 262.497 244.622C261.809 246.442 261.074 248.248 260.294 250.033C259.518 251.82 258.692 253.587 257.827 255.33C256.956 257.076 256.047 258.798 255.093 260.498C254.139 262.199 253.142 263.873 252.102 265.522C251.066 267.173 249.983 268.796 248.863 270.392C247.746 271.988 246.583 273.558 245.387 275.101C244.188 276.638 242.951 278.147 241.674 279.627C240.4 281.108 239.086 282.555 237.737 283.97C236.39 285.38 235.009 286.764 233.59 288.111C232.171 289.457 230.721 290.768 229.232 292.046C227.749 293.321 226.236 294.561 224.69 295.76C223.138 296.963 221.563 298.128 219.958 299.254C218.35 300.378 216.719 301.461 215.054 302.507C213.394 303.552 211.706 304.557 209.991 305.519C208.281 306.483 206.545 307.399 204.785 308.278C203.024 309.158 201.243 309.991 199.443 310.785C197.639 311.578 195.82 312.322 193.978 313.025C192.136 313.727 190.277 314.386 188.401 315.001C186.527 315.612 184.635 316.179 182.733 316.699C180.825 317.222 178.911 317.696 176.982 318.122C175.051 318.552 173.111 318.931 171.16 319.264C169.213 319.599 167.254 319.887 165.29 320.126C163.322 320.363 161.352 320.557 159.377 320.698C157.401 320.843 155.419 320.939 153.436 320.988C151.453 321.037 149.47 321.034 147.485 320.988C145.505 320.939 143.52 320.841 141.542 320.699C139.56 320.556 137.586 320.364 135.612 320.125C133.641 319.887 131.675 319.599 129.717 319.263C127.759 318.932 125.804 318.55 123.867 318.123C121.925 317.694 119.992 317.217 118.075 316.699C116.155 316.175 114.251 315.611 112.355 314.998C110.463 314.386 108.59 313.725 106.729 313.022C104.867 312.318 103.025 311.575 101.202 310.783C99.3744 309.989 97.5724 309.153 95.7859 308.276C94.0052 307.397 92.2442 306.478 90.5044 305.515C88.7647 304.552 87.0504 303.548 85.3574 302.5C83.667 301.457 82.0021 300.373 80.3668 299.248C78.7273 298.121 77.1202 296.96 75.5385 295.756C73.961 294.555 72.4074 293.315 70.8903 292.042C69.3705 290.764 67.8815 289.455 66.4263 288.107C64.9712 286.759 63.5483 285.376 62.1604 283.964C60.774 282.549 59.4241 281.1 58.1091 279.622C56.79 278.142 55.5115 276.631 54.2722 275.092C53.0286 273.552 51.8242 271.984 50.6605 270.385C49.4952 268.79 48.3732 267.169 47.2878 265.514C46.2049 263.866 45.1612 262.19 44.1593 260.492C43.1589 258.79 42.2003 257.067 41.2834 255.321C40.3708 253.577 39.4941 251.814 38.6692 250.029C37.8401 248.241 37.0554 246.438 36.3166 244.614C35.5779 242.791 34.882 240.955 34.2363 239.101C33.5863 237.245 32.985 235.375 32.4307 233.494C31.878 231.609 31.3666 229.717 30.9079 227.811C30.4451 225.904 30.0335 223.988 29.669 222.062C29.2987 220.138 28.9839 218.207 28.7146 216.27C28.4426 214.327 28.2229 212.385 28.0488 210.436C27.8788 208.49 27.7543 206.537 27.6765 204.587C27.6001 202.634 27.5719 200.68 27.5961 198.727C27.616 196.772 27.6868 194.822 27.8083 192.878C27.9271 190.928 28.0926 188.981 28.3114 187.045C28.5261 185.108 28.7916 183.175 29.102 181.251C29.4125 179.326 29.7764 177.412 30.1812 175.504C30.5901 173.598 31.0467 171.705 31.5526 169.821C32.0527 167.94 32.602 166.068 33.2016 164.215C33.797 162.36 34.4401 160.519 35.1278 158.699C35.8171 156.875 36.5509 155.073 37.3323 153.284C38.1081 151.498 38.9326 149.734 39.8032 147.988C40.668 146.245 41.5775 144.523 42.5315 142.823C43.4897 141.124 44.4825 139.448 45.5225 137.799C46.5626 136.15 47.6414 134.525 48.7633 132.925C49.8794 131.329 51.0412 129.763 52.2418 128.222C53.4383 126.679 54.6746 125.17 55.9524 123.69C57.2244 122.214 58.538 120.766 59.8872 119.352C61.2364 117.937 62.6198 116.558 64.0363 115.207C65.4554 113.86 66.9045 112.549 68.392 111.276C69.8752 110.001 71.3885 108.76 72.9401 107.558C74.4859 106.359 76.0617 105.194 77.6702 104.069C79.2744 102.943 80.9113 101.858 82.5708 100.814C84.2303 99.7697 85.9183 98.7646 87.6331 97.8024C89.3437 96.8387 91.0812 95.918 92.8414 95.0387C94.6 94.1636 96.3829 93.3257 98.1853 92.5375C99.9851 91.7436 101.81 90.9969 103.648 90.2925C105.49 89.5896 107.349 88.9308 109.223 88.32C111.099 87.7051 112.989 87.1423 114.893 86.6178C116.8 86.0991 118.713 85.6252 120.644 85.1952C122.573 84.7694 124.515 84.3859 126.466 84.053C128.413 83.7186 130.372 83.4306 132.34 83.1932C134.304 82.9542 136.273 82.7642 138.249 82.6191C140.225 82.474 142.206 82.382 144.188 82.3333C146.171 82.2847 148.156 82.2834 150.14 82.3337C152.121 82.3782 154.106 82.4759 156.084 82.6178C158.065 82.7654 160.04 82.9532 162.013 83.1965C163.983 83.4342 165.949 83.7219 167.908 84.0537C169.872 84.3872 171.82 84.7715 173.762 85.2001C175.705 85.6246 177.634 86.0999 179.549 86.6221C181.471 87.1417 183.374 87.7105 185.27 88.3237C187.161 88.9352 189.036 89.592 190.897 90.2955C192.759 90.999 194.599 91.7461 196.422 92.5384C198.25 93.3323 200.054 94.1641 201.838 95.0451C203.621 95.9205 205.386 96.8411 207.12 97.8062C208.86 98.7688 210.58 99.7709 212.269 100.818C213.957 101.864 215.622 102.949 217.258 104.074C218.899 105.196 220.504 106.361 222.087 107.561C223.665 108.762 225.219 110.002 226.734 111.279C228.255 112.553 229.743 113.866 231.198 115.214C232.653 116.562 234.078 117.941 235.464 119.357C236.85 120.773 238.202 122.218 239.521 123.697C240.836 125.175 242.114 126.686 243.354 128.225C244.597 129.765 245.8 131.337 246.965 132.932C248.129 134.532 249.251 136.153 250.338 137.803C251.419 139.455 252.465 141.127 253.465 142.829C254.467 144.527 255.426 146.251 256.342 147.996C257.259 149.741 258.13 151.507 258.959 153.294Z" fill="#2A56F4"/>
<path d="M270.032 211.011C269.714 212.867 269.355 214.717 268.947 216.558C268.541 218.395 268.089 220.224 267.595 222.037C267.1 223.855 266.562 225.66 265.981 227.45C265.401 229.24 264.772 231.016 264.108 232.774C263.438 234.535 262.727 236.276 261.978 238.006C261.225 239.731 260.432 241.436 259.593 243.123C258.759 244.813 257.885 246.478 256.971 248.123C256.051 249.77 255.099 251.391 254.105 252.992C253.108 254.592 252.076 256.168 251.007 257.717C249.936 259.27 248.828 260.795 247.683 262.291C246.537 263.788 245.355 265.256 244.138 266.702C242.922 268.144 241.67 269.554 240.386 270.937C239.097 272.318 237.781 273.67 236.43 274.99C235.078 276.31 233.695 277.6 232.281 278.854C230.864 280.107 229.421 281.327 227.946 282.516C226.473 283.701 224.97 284.851 223.441 285.968C221.908 287.083 220.35 288.161 218.767 289.206C217.186 290.246 215.576 291.248 213.944 292.218C212.31 293.182 210.655 294.111 208.974 294.997C207.296 295.888 205.596 296.734 203.876 297.544C202.157 298.354 200.416 299.119 198.655 299.848C196.9 300.574 195.122 301.259 193.332 301.901C191.536 302.546 189.728 303.145 187.907 303.705C186.081 304.264 184.248 304.778 182.396 305.251C180.551 305.723 178.688 306.15 176.817 306.537C174.946 306.924 173.068 307.266 171.179 307.561C169.289 307.856 167.396 308.112 165.492 308.318C163.592 308.529 161.686 308.691 159.771 308.813C157.862 308.932 155.946 309.006 154.032 309.038C152.115 309.065 150.199 309.05 148.285 308.993C146.366 308.934 144.451 308.83 142.538 308.68C140.625 308.53 138.718 308.34 136.816 308.1C134.907 307.862 133.01 307.582 131.116 307.256C129.228 306.927 127.341 306.557 125.466 306.144C123.59 305.73 121.726 305.275 119.87 304.771C118.013 304.271 116.173 303.726 114.343 303.142C112.514 302.554 110.697 301.924 108.899 301.254C107.098 300.582 105.311 299.87 103.545 299.118C101.778 298.366 100.029 297.568 98.2972 296.736C96.5674 295.899 94.8557 295.027 93.1654 294.111C91.4792 293.197 89.8127 292.243 88.166 291.25C86.5219 290.262 84.9033 289.233 83.3043 288.164C81.7081 287.101 80.1372 285.995 78.593 284.858C77.0503 283.716 75.5341 282.542 74.0445 281.336C72.5564 280.126 71.0991 278.885 69.6698 277.608C68.2406 276.331 66.8421 275.023 65.476 273.681C64.104 272.341 62.7728 270.969 61.4681 269.566C60.1676 268.163 58.8978 266.731 57.6672 265.27C56.4308 263.813 55.2309 262.322 54.0686 260.807C52.9062 259.293 51.7788 257.75 50.689 256.183C49.5992 254.617 48.5485 253.022 47.5339 251.409C46.5208 249.792 45.5479 248.156 44.6126 246.498C43.6788 244.835 42.7795 243.158 41.9277 241.456C41.0702 239.756 40.2586 238.036 39.4831 236.297C38.7118 234.56 37.9806 232.805 37.2924 231.038C36.6014 229.265 35.9576 227.482 35.3539 225.682C34.7503 223.881 34.1937 222.07 33.6757 220.245C33.1578 218.42 32.6869 216.585 32.2573 214.742C31.8293 212.895 31.4468 211.042 31.1055 209.181C30.7685 207.321 30.4743 205.45 30.2241 203.576C29.9739 201.702 29.7691 199.822 29.6125 197.942C29.4533 196.055 29.3406 194.173 29.2677 192.286C29.2006 190.397 29.18 188.511 29.2034 186.624C29.2252 184.74 29.2909 182.854 29.4033 180.972C29.0695 182.959 28.785 184.954 28.5512 186.955C28.3174 188.955 28.1386 190.963 28.0106 192.975C27.8784 194.986 27.8012 197.004 27.7763 199.022C27.7514 201.041 27.7761 203.055 27.8559 205.075C27.933 207.09 28.0625 209.106 28.2458 211.119C28.4291 213.131 28.6621 215.139 28.949 217.144C29.2333 219.144 29.5714 221.14 29.9566 223.126C30.346 225.113 30.7824 227.09 31.2758 229.055C31.7635 231.024 32.2998 232.977 32.8946 234.916C33.4837 236.856 34.1213 238.783 34.8076 240.694C35.4996 242.604 36.2361 244.497 37.0184 246.37C37.805 248.244 38.6376 250.099 39.5203 251.934C40.3988 253.769 41.3248 255.578 42.301 257.37C43.2729 259.159 44.2924 260.925 45.3552 262.664C46.4181 264.404 47.5242 266.118 48.6752 267.801C49.8247 269.489 51.0205 271.143 52.254 272.773C53.489 274.399 54.7647 275.994 56.0811 277.557C57.3959 279.124 58.7529 280.656 60.1465 282.154C61.5415 283.648 62.9758 285.115 64.4454 286.539C65.9134 287.967 67.4153 289.356 68.9537 290.712C70.4937 292.064 72.0675 293.377 73.6736 294.655C75.2812 295.929 76.917 297.167 78.5881 298.362C80.2551 299.555 81.9517 300.708 83.6795 301.816C85.4057 302.929 87.159 303.995 88.9419 305.021C90.7207 306.045 92.5264 307.023 94.3576 307.959C96.1862 308.89 98.0387 309.782 99.9113 310.621C101.787 311.466 103.681 312.262 105.593 313.008C107.508 313.76 109.439 314.457 111.388 315.108C113.336 315.76 115.301 316.367 117.277 316.921C119.257 317.477 121.247 317.98 123.25 318.436C125.252 318.893 127.266 319.297 129.287 319.652C131.313 320.01 133.34 320.315 135.376 320.568C137.417 320.823 139.458 321.027 141.504 321.18C143.549 321.333 145.597 321.431 147.647 321.483C149.693 321.533 151.744 321.534 153.791 321.481C155.842 321.43 157.885 321.324 159.926 321.171C161.968 321.017 164.006 320.811 166.034 320.554C168.066 320.299 170.084 319.991 172.097 319.635C174.111 319.278 176.11 318.869 178.099 318.41C180.092 317.957 182.066 317.449 184.03 316.891C185.989 316.336 187.938 315.73 189.868 315.074C191.796 314.423 193.71 313.719 195.603 312.97C197.492 312.219 199.366 311.42 201.217 310.58C203.065 309.734 204.892 308.842 206.696 307.909C208.498 306.971 210.277 305.991 212.025 304.966C213.779 303.939 215.5 302.871 217.195 301.76C218.891 300.645 220.558 299.492 222.189 298.296C223.823 297.102 225.427 295.863 226.997 294.588C228.566 293.312 230.099 291.995 231.604 290.639C233.102 289.285 234.567 287.895 235.994 286.463C237.42 285.035 238.812 283.571 240.164 282.072C241.516 280.574 242.828 279.042 244.101 277.476C245.373 275.91 246.599 274.313 247.79 272.683C248.979 271.058 250.125 269.397 251.227 267.71C252.329 266.024 253.388 264.311 254.4 262.572C255.413 260.828 256.382 259.063 257.302 257.275C258.224 255.483 259.1 253.673 259.928 251.836C260.755 250.003 261.533 248.147 262.266 246.27C262.998 244.396 263.68 242.504 264.315 240.594C264.948 238.678 265.532 236.754 266.068 234.815C266.601 232.872 267.085 230.919 267.518 228.951C267.95 226.983 268.333 225.006 268.667 223.019C268.996 221.031 269.275 219.038 269.504 217.036C269.73 215.032 269.909 213.025 270.032 211.011Z" fill="#0643F2"/>
<path d="M184.251 284.166C182.734 284.668 181.207 285.133 179.666 285.56C178.124 285.987 176.573 286.377 175.016 286.732C173.456 287.081 171.884 287.398 170.31 287.672C168.73 287.948 167.145 288.185 165.555 288.386C163.966 288.584 162.371 288.746 160.772 288.87C159.173 288.993 157.571 289.073 155.968 289.12C154.36 289.165 152.758 289.169 151.149 289.139C149.543 289.105 147.94 289.034 146.335 288.921C144.732 288.812 143.131 288.663 141.534 288.477C139.938 288.287 138.346 288.061 136.759 287.799C135.173 287.533 133.591 287.231 132.018 286.89C130.446 286.549 128.884 286.17 127.329 285.757C125.772 285.337 124.228 284.885 122.697 284.396C121.163 283.905 119.642 283.377 118.134 282.817C116.623 282.25 115.128 281.653 113.654 281.016C112.173 280.381 110.711 279.711 109.263 279.004C107.814 278.297 106.387 277.561 104.975 276.783C103.566 276.011 102.175 275.204 100.802 274.361C99.4314 273.524 98.0808 272.647 96.751 271.741C95.4212 270.835 94.1164 269.901 92.8339 268.932C91.5515 267.964 90.2899 266.966 89.059 265.938C87.8239 264.908 86.6138 263.85 85.4329 262.765C84.252 261.68 83.0961 260.567 81.9667 259.422C80.84 258.283 79.7425 257.117 78.6699 255.923C77.6016 254.731 76.5625 253.512 75.5525 252.267C74.541 251.025 73.5629 249.759 72.6166 248.472C71.6676 247.179 70.7532 245.871 69.8679 244.537C68.9868 243.204 68.1376 241.85 67.3243 240.477C66.5069 239.103 65.724 237.713 64.977 236.304C64.2301 234.895 63.5192 233.467 62.8428 232.024C62.1663 230.58 61.5286 229.124 60.9211 227.65C60.3193 226.174 59.7547 224.688 59.223 223.192C58.6928 221.691 58.1998 220.181 57.7454 218.657C57.291 217.134 56.8722 215.604 56.492 214.062C56.1118 212.519 55.773 210.969 55.4697 209.413C55.1664 207.857 54.9044 206.294 54.6821 204.726C54.4557 203.157 54.269 201.584 54.1278 200.005C53.9809 198.429 53.8721 196.853 53.8047 195.269C53.7399 193.69 53.7091 192.111 53.7223 190.529C53.7312 188.946 53.781 187.369 53.8748 185.789C53.9628 184.212 54.0932 182.637 54.2644 181.068C54.4315 179.498 54.6394 177.933 54.8881 176.375C55.1326 174.815 55.4165 173.265 55.7411 171.721C56.0658 170.177 56.4313 168.64 56.8303 167.115C57.2336 165.591 57.6719 164.076 58.1495 162.571C58.6272 161.067 59.141 159.58 59.6956 158.1C60.2445 156.622 60.8353 155.16 61.4597 153.711C62.0825 152.265 62.7446 150.83 63.4414 149.418C64.1396 148.001 64.8726 146.607 65.639 145.225C66.4039 143.848 67.205 142.489 68.0423 141.148C68.878 139.811 69.7457 138.492 70.6481 137.194C71.5489 135.901 72.4817 134.625 73.4475 133.375C74.4134 132.125 75.4123 130.902 76.4375 129.698C77.4653 128.499 78.5236 127.322 79.6092 126.174C80.7005 125.023 81.8135 123.904 82.9568 122.805C84.1028 121.713 85.272 120.648 86.47 119.608C87.6665 118.572 88.8903 117.565 90.1373 116.586C91.3884 115.608 92.6612 114.662 93.9555 113.747C95.254 112.834 96.5715 111.947 97.9132 111.098C99.2548 110.248 100.618 109.43 102.003 108.644C103.386 107.861 104.787 107.109 106.208 106.393C107.633 105.678 109.069 104.995 110.526 104.349C111.983 103.702 113.455 103.09 114.946 102.517C116.433 101.943 117.935 101.403 119.451 100.905C120.963 100.402 122.495 99.9383 124.032 99.5099C125.573 99.083 127.124 98.6929 128.686 98.3394C130.247 97.9859 131.813 97.6716 133.393 97.3956C134.968 97.1221 136.554 96.8812 138.143 96.6836C139.733 96.4818 141.326 96.3234 142.929 96.2017C144.528 96.0783 146.128 95.9926 147.734 95.9518C149.338 95.9053 150.945 95.898 152.548 95.9308C154.154 95.9652 155.761 96.0372 157.364 96.1453C158.965 96.2574 160.566 96.4072 162.163 96.593C163.759 96.7829 165.351 97.0089 166.939 97.2709C168.525 97.537 170.107 97.8391 171.679 98.1797C173.251 98.5204 174.814 98.8996 176.372 99.3149C177.925 99.7327 179.469 100.185 181.004 100.676C182.539 101.166 184.06 101.694 185.568 102.255C187.075 102.82 188.569 103.417 190.048 104.056C191.528 104.69 192.991 105.36 194.435 106.066C195.883 106.772 197.314 107.511 198.722 108.287C200.136 109.06 201.527 109.868 202.896 110.709C204.27 111.548 205.621 112.424 206.946 113.329C208.276 114.235 209.585 115.171 210.868 116.139C212.15 117.107 213.407 118.104 214.643 119.134C215.878 120.164 217.084 121.22 218.264 122.305C219.45 123.391 220.605 124.504 221.731 125.647C222.857 126.787 223.959 127.954 225.027 129.147C226.1 130.341 227.139 131.559 228.145 132.803C229.156 134.045 230.134 135.311 231.083 136.604C232.03 137.891 232.947 139.204 233.829 140.533C234.71 141.866 235.56 143.22 236.377 144.594C237.19 145.967 237.973 147.357 238.72 148.766C239.466 150.179 240.178 151.603 240.855 153.046C241.531 154.489 242.173 155.948 242.775 157.424C243.378 158.896 243.947 160.383 244.477 161.884C245.009 163.38 245.502 164.891 245.956 166.414C246.41 167.938 246.828 169.471 247.205 171.008C247.585 172.551 247.924 174.101 248.228 175.657C248.529 177.217 248.793 178.776 249.019 180.345C249.24 181.917 249.427 183.49 249.574 185.066C249.716 186.641 249.824 188.221 249.893 189.801C249.962 191.381 249.987 192.963 249.975 194.541C249.966 196.124 249.916 197.701 249.822 199.281C249.734 200.858 249.604 202.433 249.433 204.002C249.266 205.572 249.058 207.136 248.809 208.695C248.565 210.255 248.281 211.805 247.956 213.349C247.631 214.892 247.266 216.43 246.867 217.955C246.464 219.479 246.025 220.994 245.548 222.499C245.07 224.003 244.556 225.49 244.002 226.97C243.453 228.448 242.862 229.91 242.239 231.355C241.615 232.804 240.954 234.235 240.256 235.652C239.558 237.069 238.825 238.463 238.058 239.845C237.293 241.222 236.492 242.581 235.657 243.918C234.819 245.258 233.952 246.578 233.051 247.872C232.148 249.169 231.217 250.441 230.25 251.695C229.284 252.945 228.285 254.168 227.26 255.372C226.232 256.571 225.174 257.748 224.088 258.896C222.998 260.043 221.884 261.166 220.742 262.26C219.599 263.359 218.425 264.422 217.229 265.458C216.031 266.498 214.807 267.505 213.56 268.484C212.31 269.458 211.038 270.404 209.742 271.323C208.443 272.236 207.126 273.123 205.784 273.972C204.442 274.822 203.079 275.64 201.696 276.422C200.315 277.21 198.91 277.961 197.489 278.677C196.069 279.394 194.628 280.075 193.171 280.721C191.715 281.368 190.244 281.976 188.757 282.55C187.265 283.127 185.763 283.663 184.251 284.166Z" fill="#0643F2"/>
<path d="M244.756 182.826C245.09 184.379 245.387 185.938 245.641 187.498C245.899 189.06 246.115 190.63 246.296 192.205C246.474 193.775 246.615 195.354 246.714 196.931C246.813 198.508 246.876 200.091 246.897 201.671C246.918 203.252 246.901 204.832 246.842 206.406C246.787 207.986 246.689 209.563 246.554 211.137C246.416 212.709 246.24 214.276 246.028 215.839C245.812 217.4 245.559 218.957 245.269 220.509C244.976 222.06 244.647 223.602 244.274 225.133C243.906 226.665 243.497 228.191 243.055 229.704C242.608 231.216 242.128 232.715 241.604 234.203C241.084 235.692 240.527 237.166 239.934 238.623C239.339 240.083 238.706 241.529 238.041 242.959C237.372 244.386 236.671 245.797 235.934 247.19C235.197 248.583 234.424 249.957 233.618 251.314C232.809 252.67 231.969 254.005 231.099 255.319C230.224 256.632 229.319 257.924 228.38 259.193C227.44 260.462 226.47 261.71 225.468 262.928C224.465 264.15 223.433 265.346 222.372 266.518C221.311 267.69 220.219 268.831 219.102 269.948C217.979 271.068 216.835 272.157 215.657 273.219C214.485 274.278 213.28 275.311 212.054 276.312C210.827 277.313 209.578 278.287 208.298 279.226C207.023 280.166 205.724 281.079 204.402 281.955C203.077 282.834 201.733 283.678 200.367 284.491C199.005 285.304 197.619 286.081 196.212 286.826C194.808 287.573 193.387 288.279 191.943 288.954C190.5 289.629 189.04 290.27 187.567 290.873C186.092 291.48 184.602 292.048 183.099 292.578C181.593 293.113 180.08 293.606 178.55 294.066C177.02 294.525 175.481 294.948 173.928 295.328C172.374 295.713 170.816 296.058 169.247 296.367C167.675 296.674 166.096 296.945 164.515 297.174C162.928 297.405 161.34 297.599 159.743 297.756C158.147 297.908 156.551 298.023 154.949 298.103C153.345 298.178 151.744 298.216 150.139 298.215C148.533 298.218 146.93 298.176 145.324 298.1C143.721 298.019 142.12 297.907 140.517 297.748C138.918 297.594 137.323 297.4 135.733 297.17C134.145 296.936 132.56 296.665 130.981 296.355C129.401 296.049 127.831 295.7 126.271 295.317C124.705 294.932 123.154 294.51 121.613 294.049C120.07 293.593 118.542 293.096 117.023 292.564C115.504 292.032 114 291.459 112.508 290.857C111.016 290.251 109.543 289.61 108.083 288.936C106.623 288.258 105.177 287.547 103.752 286.802C102.328 286.057 100.922 285.277 99.5323 284.466C98.1443 283.65 96.7771 282.805 95.4322 281.926C94.0874 281.047 92.7633 280.138 91.4616 279.195C90.1584 278.257 88.879 277.281 87.6231 276.28C86.3688 275.276 85.1436 274.245 83.9393 273.184C82.7365 272.119 81.5572 271.03 80.4086 269.911C79.2584 268.796 78.1348 267.648 77.043 266.48C75.9486 265.306 74.886 264.111 73.8484 262.888C72.815 261.666 71.8092 260.422 70.8384 259.149C69.866 257.881 68.9213 256.59 68.0141 255.275C67.1027 253.959 66.2259 252.628 65.3824 251.271C64.5388 249.915 63.7314 248.54 62.9557 247.143C62.1785 245.751 61.4373 244.34 60.7322 242.909C60.0255 241.482 59.359 240.038 58.7227 238.577C58.0907 237.118 57.4932 235.643 56.9301 234.154C56.3712 232.666 55.8452 231.166 55.3579 229.654C54.8722 228.137 54.4262 226.617 54.0131 225.085C53.6015 223.549 53.2298 222.01 52.8966 220.457C52.562 218.908 52.2686 217.351 52.0108 215.789C51.7545 214.223 51.5365 212.657 51.3556 211.082C51.1788 209.508 51.0402 207.935 50.9373 206.356C50.8385 204.779 50.7794 203.198 50.7544 201.616C50.7335 200.036 50.7551 198.457 50.8106 196.877C50.8662 195.298 50.9626 193.724 51.1014 192.152C51.236 190.579 51.4114 189.011 51.6235 187.448C51.8413 185.883 52.0942 184.326 52.3822 182.778C52.676 181.227 53.009 179.687 53.3772 178.154C53.7469 176.618 54.1543 175.096 54.5968 173.583C55.0435 172.071 55.528 170.574 56.0476 169.085C56.5671 167.596 57.1244 166.121 57.7194 164.661C58.3144 163.2 58.9456 161.758 59.6104 160.329C60.2793 158.901 60.9802 157.49 61.7174 156.097C62.456 154.701 63.2293 153.326 64.033 151.973C64.8425 150.617 65.6824 149.282 66.557 147.97C67.4273 146.655 68.3365 145.365 69.2719 144.095C70.2116 142.825 71.1858 141.579 72.1847 140.355C73.1863 139.138 74.2183 137.941 75.2792 136.769C76.3443 135.599 77.4341 134.453 78.5554 133.337C79.6726 132.219 80.8212 131.132 81.9946 130.069C83.1705 129.011 84.3712 127.977 85.5977 126.975C86.8241 125.974 88.0779 125.002 89.3533 124.062C90.6302 123.117 91.9272 122.208 93.2499 121.333C94.5742 120.453 95.9186 119.609 97.2845 118.797C98.6504 117.984 100.032 117.206 101.44 116.461C102.847 115.716 104.271 115.006 105.71 114.329C107.153 113.654 108.611 113.017 110.086 112.41C111.56 111.808 113.049 111.239 114.553 110.709C116.058 110.175 117.572 109.681 119.101 109.222C120.631 108.762 122.175 108.341 123.723 107.959C125.277 107.575 126.836 107.229 128.408 106.922C129.977 106.614 131.555 106.342 133.138 106.109C134.724 105.882 136.313 105.685 137.909 105.532C139.504 105.379 141.102 105.26 142.706 105.186C144.307 105.11 145.909 105.067 147.514 105.068C149.119 105.069 150.724 105.108 152.327 105.188C153.932 105.264 155.536 105.382 157.134 105.54C158.734 105.694 160.328 105.888 161.918 106.118C163.511 106.353 165.096 106.624 166.672 106.928C168.251 107.239 169.82 107.588 171.381 107.971C172.946 108.356 174.497 108.778 176.039 109.238C177.582 109.694 179.113 110.193 180.632 110.725C182.147 111.256 183.653 111.824 185.144 112.43C186.635 113.036 188.112 113.679 189.573 114.353C191.032 115.031 192.475 115.74 193.899 116.485C195.323 117.23 196.734 118.012 198.119 118.822C199.507 119.637 200.874 120.483 202.219 121.362C203.566 122.237 204.892 123.151 206.196 124.09C207.497 125.032 208.774 126.003 210.028 127.007C211.283 128.012 212.512 129.044 213.716 130.105C214.921 131.166 216.094 132.257 217.245 133.372C218.393 134.492 219.518 135.635 220.613 136.809C221.705 137.978 222.77 139.178 223.803 140.4C224.837 141.621 225.842 142.865 226.815 144.134C227.791 145.404 228.73 146.698 229.642 148.014C230.55 149.324 231.426 150.66 232.269 152.016C233.113 153.372 233.924 154.749 234.697 156.14C235.473 157.536 236.214 158.948 236.919 160.378C237.626 161.805 238.297 163.251 238.929 164.71C239.565 166.171 240.163 167.646 240.721 169.134C241.285 170.623 241.806 172.121 242.294 173.634C242.781 175.146 243.225 176.671 243.638 178.202C244.05 179.738 244.422 181.277 244.756 182.826Z" fill="#000F16"/>
<path d="M-121.248 291.038C-121.641 291.166 -122.045 291.258 -122.457 291.309C-122.869 291.36 -123.281 291.373 -123.698 291.347C-124.113 291.317 -124.523 291.246 -124.928 291.14C-125.332 291.03 -125.719 290.888 -126.095 290.704C-126.471 290.519 -126.825 290.301 -127.158 290.053C-127.489 289.801 -127.795 289.521 -128.071 289.211C-128.348 288.904 -128.59 288.569 -128.804 288.211C-129.016 287.858 -129.19 287.483 -129.326 287.093C-129.463 286.708 -129.562 286.31 -129.619 285.903C-129.676 285.496 -129.693 285.086 -129.673 284.676C-129.648 284.268 -129.586 283.864 -129.481 283.472C-129.379 283.074 -129.234 282.692 -129.054 282.328C-128.876 281.959 -128.659 281.614 -128.408 281.291C-128.159 280.962 -127.879 280.664 -127.567 280.397C-127.259 280.129 -126.925 279.889 -126.565 279.687C-126.21 279.483 -125.831 279.316 -125.44 279.182L14.496 232.896C14.8895 232.768 15.2888 232.674 15.7051 232.625C16.1173 232.574 16.5295 232.561 16.9462 232.587C17.3612 232.617 17.7707 232.688 18.1762 232.794C18.5801 232.904 18.9674 233.046 19.3433 233.23C19.7193 233.415 20.0729 233.633 20.4057 233.88C20.7412 234.134 21.0474 234.414 21.3229 234.725C21.5984 235.035 21.8463 235.368 22.0566 235.725C22.2669 236.081 22.4427 236.453 22.5783 236.842C22.7181 237.233 22.8166 237.632 22.8738 238.038C22.931 238.445 22.95 238.851 22.9251 239.259C22.9043 239.669 22.8385 240.072 22.7361 240.469C22.6294 240.866 22.4908 241.245 22.3087 241.613C22.1266 241.981 21.9099 242.326 21.6627 242.65C21.4098 242.977 21.1311 243.271 20.8178 243.542C20.506 243.809 20.1726 244.045 19.8119 244.251C19.4528 244.454 19.0778 244.622 18.6843 244.75L-121.248 291.038Z" fill="white" fill-opacity="0.3"/>
<path d="M200.179 235.792C199.676 235.602 199.194 235.368 198.735 235.086C198.278 234.801 197.848 234.479 197.454 234.114C197.06 233.749 196.703 233.351 196.386 232.922C196.067 232.487 195.793 232.031 195.569 231.547C195.344 231.063 195.164 230.563 195.037 230.051C194.907 229.532 194.831 229.011 194.806 228.48C194.782 227.95 194.812 227.426 194.89 226.902C194.971 226.383 195.101 225.874 195.285 225.375C196.271 222.067 196.841 218.682 196.994 215.224C197.146 211.765 196.88 208.336 196.186 204.934C193.169 190.705 182.367 179.995 164.078 173.083L163.705 172.942C124.161 158.191 106.483 188.54 105.748 189.849C105.487 190.313 105.183 190.748 104.834 191.151C104.486 191.555 104.098 191.92 103.673 192.247C103.251 192.576 102.799 192.861 102.315 193.1C101.838 193.338 101.335 193.528 100.812 193.668C100.292 193.814 99.7611 193.9 99.2233 193.941C98.6814 193.98 98.1413 193.964 97.6016 193.896C97.0644 193.834 96.5349 193.714 96.0182 193.547C95.5032 193.376 95.0051 193.159 94.5299 192.895C94.0589 192.633 93.6092 192.327 93.1964 191.973C92.7821 191.624 92.4058 191.238 92.066 190.819C91.7319 190.397 91.437 189.947 91.1869 189.468C90.9353 188.992 90.7396 188.496 90.5898 187.979C90.4385 187.467 90.34 186.941 90.2927 186.407C90.2481 185.878 90.2573 185.347 90.3147 184.815C90.3763 184.284 90.4898 183.768 90.6524 183.262C90.8193 182.757 91.0323 182.269 91.294 181.805C99.8664 166.614 127.209 142.049 169.356 157.76L169.796 157.927C228.588 180.144 210.986 230.538 210.811 231.04C210.627 231.539 210.399 232.016 210.116 232.472C209.839 232.926 209.518 233.345 209.154 233.738C208.791 234.127 208.391 234.477 207.955 234.792C207.522 235.102 207.056 235.372 206.57 235.592C206.079 235.815 205.569 235.984 205.043 236.109C204.518 236.23 203.988 236.301 203.444 236.321C202.904 236.342 202.366 236.308 201.828 236.222C201.29 236.136 200.771 236.001 200.258 235.812L200.179 235.792Z" fill="#3AEDB1"/>
<path d="M193.17 148.197C196.365 137.082 183.064 130.586 174.934 127.021C166.623 123.387 154.523 119.308 127.838 124.762C109.723 128.445 90.2536 142.067 80.8731 158.065C74.4481 169.044 68.189 186.076 75.0935 198.388C81.7095 210.183 98.9232 211.407 109.155 204.265C119.937 196.731 123.242 181.747 131.559 171.91C141.175 160.55 150.376 155.159 164.894 155.529C173.567 155.783 189.888 159.608 193.17 148.197Z" fill="white" fill-opacity="0.3"/>
<path d="M372.534 550.725C372.534 550.725 396.341 615.017 411.16 636.817C422.395 653.367 457.319 603.341 424.151 532.399C391.716 463.03 352.237 437.572 352.237 437.572L372.534 550.725Z" fill="#D5E9F2"/>
<path d="M424.151 532.399C391.716 463.03 352.237 437.572 352.237 437.572L353.924 446.993C367.028 462.085 382.812 484.222 397.198 515.003C419.484 562.665 411.022 600.881 399.671 615.815C403.01 623.072 406.838 630.072 411.16 636.817C422.37 653.357 457.318 603.341 424.151 532.399Z" fill="#A8D7E9"/>
</svg>
