<svg width="30" height="30" viewBox="0 0 30 30" fill="none" xmlns="http://www.w3.org/2000/svg">
<path fill-rule="evenodd" clip-rule="evenodd" d="M5 9.375C5 6.95875 6.95875 5 9.375 5C11.7912 5 13.75 6.95875 13.75 9.375C13.75 11.7912 11.7912 13.75 9.375 13.75C6.95875 13.75 5 11.7912 5 9.375ZM11.875 9.375C11.875 7.99429 10.7557 6.875 9.375 6.875C7.99429 6.875 6.875 7.99429 6.875 9.375C6.875 10.7557 7.99429 11.875 9.375 11.875C10.7557 11.875 11.875 10.7557 11.875 9.375Z" fill="#164BA9"/>
<path fill-rule="evenodd" clip-rule="evenodd" d="M17.5 9.375C17.5 6.95875 19.4588 5 21.875 5C24.2912 5 26.25 6.95875 26.25 9.375C26.25 11.7912 24.2912 13.75 21.875 13.75C19.4588 13.75 17.5 11.7912 17.5 9.375ZM24.375 9.375C24.375 7.99429 23.2557 6.875 21.875 6.875C20.4943 6.875 19.375 7.99429 19.375 9.375C19.375 10.7557 20.4943 11.875 21.875 11.875C23.2557 11.875 24.375 10.7557 24.375 9.375Z" fill="#164BA9"/>
<path fill-rule="evenodd" clip-rule="evenodd" d="M5 21.875C5 19.4588 6.95875 17.5 9.375 17.5C11.7912 17.5 13.75 19.4588 13.75 21.875C13.75 24.2912 11.7912 26.25 9.375 26.25C6.95875 26.25 5 24.2912 5 21.875ZM11.875 21.875C11.875 20.4943 10.7557 19.375 9.375 19.375C7.99429 19.375 6.875 20.4943 6.875 21.875C6.875 23.2557 7.99429 24.375 9.375 24.375C10.7557 24.375 11.875 23.2557 11.875 21.875Z" fill="#164BA9"/>
<path fill-rule="evenodd" clip-rule="evenodd" d="M17.5 21.875C17.5 19.4588 19.4588 17.5 21.875 17.5C24.2912 17.5 26.25 19.4588 26.25 21.875C26.25 24.2912 24.2912 26.25 21.875 26.25C19.4588 26.25 17.5 24.2912 17.5 21.875ZM24.375 21.875C24.375 20.4943 23.2557 19.375 21.875 19.375C20.4943 19.375 19.375 20.4943 19.375 21.875C19.375 23.2557 20.4943 24.375 21.875 24.375C23.2557 24.375 24.375 23.2557 24.375 21.875Z" fill="#164BA9"/>
</svg>
