<svg width="24" height="23" viewBox="0 0 24 23" fill="none" xmlns="http://www.w3.org/2000/svg">
<path d="M22.3889 8.41808L12 14.08L20.2133 9.60405C21.294 12.296 21.6007 15.2274 21.1 18.0786C17.7181 18.4006 14.5296 19.7746 12 22C10.4371 20.625 8.62277 19.5751 6.66667 18.8974C5.4571 18.4784 4.19334 18.2017 2.90133 18.0786C2.40029 15.2275 2.70695 12.2962 3.78786 9.60441L1.61112 8.41808C0.915847 8.03916 0.915847 7.04088 1.61112 6.66196L11.5215 1.26081C11.8198 1.09823 12.1802 1.09823 12.4785 1.26081L22.3889 6.66196C23.0842 7.04088 23.0842 8.03916 22.3889 8.41808Z" fill="white"/>
<path d="M12 14.08L22.3889 8.41808C23.0842 8.03916 23.0842 7.04088 22.3889 6.66196L12.4785 1.26081C12.1802 1.09823 11.8198 1.09823 11.5215 1.26081L1.61112 6.66196C0.915847 7.04088 0.915847 8.03916 1.61112 8.41808L12 14.08ZM12 14.08L20.2133 9.60405C21.294 12.296 21.6007 15.2274 21.1 18.0786C17.7181 18.4006 14.5296 19.7746 12 22C9.47074 19.7748 6.28278 18.4009 2.90133 18.0786C2.40027 15.2274 2.70698 12.296 3.788 9.60405L12 14.08ZM6.66667 21.9281V12.118L12 9.21165" stroke="#990012" stroke-width="1.8" stroke-linecap="round" stroke-linejoin="round"/>
</svg>
