<svg width="36" height="28" viewBox="0 0 36 28" fill="none" xmlns="http://www.w3.org/2000/svg">
<path d="M6.75 9C8.981 9 11.0076 9.6024 12.5 10.5824C13.9924 9.6024 16.019 9 18.25 9C20.4823 9 22.5076 9.6024 24 10.5824V26.4441C24 26.6828 23.7332 26.8283 23.5253 26.7112C22.0908 25.903 20.2538 25.4176 18.25 25.4176C16.019 25.4176 13.9924 26.02 12.5 27C11.0076 26.02 8.981 25.4176 6.75 25.4176C4.74735 25.4176 2.90943 25.903 1.4747 26.7112C1.26676 26.8283 1 26.6828 1 26.4441V10.7443C1 10.6433 1.05064 10.5487 1.13621 10.4949C2.61463 9.56668 4.58615 9 6.75 9Z" fill="white"/>
<path d="M12.5 10.5824C11.0076 9.6024 8.981 9 6.75 9C4.58616 9 2.61463 9.56668 1.13621 10.4949C1.05064 10.5487 1 10.6433 1 10.7443V26.4441C1 26.6828 1.26676 26.8283 1.4747 26.7112C2.90943 25.903 4.74735 25.4176 6.75 25.4176C8.981 25.4176 11.0076 26.02 12.5 27M12.5 10.5824C13.9924 9.6024 16.019 9 18.25 9C20.4823 9 22.5076 9.6024 24 10.5824V26.4441C24 26.6828 23.7332 26.8283 23.5253 26.7112C22.0908 25.903 20.2538 25.4176 18.25 25.4176C16.019 25.4176 13.9924 26.02 12.5 27M12.5 10.5824V18.7912V27" stroke="white" stroke-width="1.5" stroke-linecap="round" stroke-linejoin="round"/>
<path d="M34.4541 7.78835L25.5 12.8343L32.6867 8.78462C33.6323 11.2202 33.9006 13.8724 33.4625 16.4521C30.5033 16.7434 27.7134 17.9865 25.5 20C23.2869 17.9868 20.4974 16.7437 17.5387 16.4521C17.1003 13.8725 17.3686 11.2204 18.3144 8.78494L16.5459 7.78835C15.8672 7.40585 15.8672 6.42846 16.5459 6.04597L25.0091 1.27667C25.3138 1.10492 25.6862 1.10492 25.9909 1.27667L34.4541 6.04597C35.1328 6.42847 35.1328 7.40586 34.4541 7.78835Z" fill="white"/>
<path d="M25.5 12.8343L34.4541 7.78835C35.1328 7.40586 35.1328 6.42847 34.4541 6.04597L25.9909 1.27667C25.6862 1.10492 25.3138 1.10492 25.0091 1.27667L16.5459 6.04597C15.8672 6.42846 15.8672 7.40585 16.5459 7.78835L25.5 12.8343ZM25.5 12.8343L32.6867 8.78462C33.6323 11.2202 33.9006 13.8724 33.4625 16.4521C30.5033 16.7434 27.7134 17.9865 25.5 20C23.2869 17.9868 20.4974 16.7437 17.5387 16.4521C17.1002 13.8724 17.3686 11.2202 18.3145 8.78462L25.5 12.8343ZM20.8333 13.6374V11.6435C20.8333 11.2825 21.0279 10.9495 21.3424 10.7723L25.5 8.42959" stroke="#990012" stroke-width="1.5" stroke-linecap="round" stroke-linejoin="round"/>
</svg>
