<svg width="34" height="28" viewBox="0 0 34 28" fill="none" xmlns="http://www.w3.org/2000/svg">
<path d="M6.75 9C8.981 9 11.0076 9.6024 12.5 10.5824C13.9924 9.6024 16.019 9 18.25 9C20.4823 9 22.5076 9.6024 24 10.5824V26.4441C24 26.6828 23.7332 26.8283 23.5253 26.7112C22.0908 25.903 20.2538 25.4176 18.25 25.4176C16.019 25.4176 13.9924 26.02 12.5 27C11.0076 26.02 8.981 25.4176 6.75 25.4176C4.74735 25.4176 2.90943 25.903 1.4747 26.7112C1.26676 26.8283 1 26.6828 1 26.4441V10.7443C1 10.6433 1.05064 10.5487 1.13621 10.4949C2.61463 9.56668 4.58615 9 6.75 9Z" fill="white"/>
<path d="M12.5 10.5824V27M12.5 10.5824C11.0076 9.6024 8.981 9 6.75 9C4.58616 9 2.61463 9.56668 1.13621 10.4949C1.05064 10.5487 1 10.6433 1 10.7443V26.4441C1 26.6828 1.26676 26.8283 1.4747 26.7112C2.90943 25.903 4.74735 25.4176 6.75 25.4176C8.981 25.4176 11.0076 26.02 12.5 27M12.5 10.5824C13.9924 9.6024 16.019 9 18.25 9C20.4823 9 22.5076 9.6024 24 10.5824V26.4441C24 26.6828 23.7332 26.8283 23.5253 26.7112C22.0908 25.903 20.2538 25.4176 18.25 25.4176C16.019 25.4176 13.9924 26.02 12.5 27" stroke="#990012" stroke-width="1.5" stroke-linecap="round" stroke-linejoin="round"/>
<path d="M32.4541 7.78835L23.5 12.8343L30.6867 8.78462C31.6323 11.2202 31.9006 13.8724 31.4625 16.4521C28.5033 16.7434 25.7134 17.9865 23.5 20C22.1325 18.756 20.5449 17.806 18.8333 17.1929C17.775 16.8138 16.6692 16.5635 15.5387 16.4521C15.1003 13.8725 15.3686 11.2204 16.3144 8.78494L14.5459 7.78835C13.8672 7.40585 13.8672 6.42846 14.5459 6.04597L23.0091 1.27667C23.3138 1.10492 23.6862 1.10492 23.9909 1.27667L32.4541 6.04597C33.1328 6.42847 33.1328 7.40586 32.4541 7.78835Z" fill="white"/>
<path d="M23.5 12.8343L32.4541 7.78835C33.1328 7.40586 33.1328 6.42847 32.4541 6.04597L23.9909 1.27667C23.6862 1.10492 23.3138 1.10492 23.0091 1.27667L14.5459 6.04597C13.8672 6.42846 13.8672 7.40585 14.5459 7.78835L23.5 12.8343ZM23.5 12.8343L30.6867 8.78462C31.6323 11.2202 31.9006 13.8724 31.4625 16.4521C28.5033 16.7434 25.7134 17.9865 23.5 20C21.2869 17.9868 18.4974 16.7437 15.5387 16.4521C15.1002 13.8724 15.3686 11.2202 16.3145 8.78462L23.5 12.8343ZM18.8333 19.9349V11.0592L23.5 8.42959" stroke="#990012" stroke-width="1.5" stroke-linecap="round" stroke-linejoin="round"/>
</svg>
