<svg width="24" height="23" viewBox="0 0 24 23" fill="none" xmlns="http://www.w3.org/2000/svg">
<path d="M12.5927 0.116272C12.406 0.0395573 12.2049 0 12.0018 0C11.7986 0 11.5976 0.0395573 11.4108 0.116272L0.912018 4.42853C0.641465 4.53899 0.410764 4.72324 0.248609 4.95837C0.086454 5.19349 0 5.46912 0 5.75096C0 6.0328 0.086454 6.30843 0.248609 6.54355C0.410764 6.77868 0.641465 6.96293 0.912018 7.07339L4.87757 8.69911C5.02476 8.53954 5.20714 8.41336 5.41151 8.32969L11.4108 5.86595C11.5924 5.78841 11.7882 5.74622 11.9869 5.74183C12.1856 5.73745 12.3832 5.77096 12.5683 5.84042C12.7534 5.90988 12.9222 6.01391 13.065 6.14644C13.2077 6.27898 13.3216 6.43739 13.3999 6.61247C13.4782 6.78755 13.5194 6.9758 13.5212 7.16628C13.5229 7.35676 13.4851 7.54567 13.41 7.72204C13.3349 7.8984 13.224 8.0587 13.0837 8.19362C12.9434 8.32853 12.7765 8.43538 12.5927 8.50793L8.50265 10.1897L11.4123 11.3842C11.5988 11.4607 11.7996 11.5002 12.0025 11.5002C12.2054 11.5002 12.4062 11.4607 12.5927 11.3842L23.0915 7.07195C23.3612 6.96108 23.591 6.77683 23.7524 6.54203C23.9139 6.30722 24 6.03218 24 5.75096C24 5.46974 23.9139 5.1947 23.7524 4.95989C23.591 4.72509 23.3612 4.54084 23.0915 4.42997L12.5927 0.11771V0.116272ZM1.9679 10.6339L4.50261 11.6731V17.5694C3.9833 17.4563 3.45743 17.3727 2.92779 17.3193C2.58604 17.2849 2.267 17.139 2.02402 16.9062C1.78103 16.6733 1.62886 16.3675 1.59294 16.04C1.3957 14.2302 1.52251 12.4013 1.9679 10.6324V10.6339ZM10.9519 20.9488C9.93801 19.9954 8.7739 19.2008 7.50227 18.5943V12.9064L10.229 14.0276C10.7891 14.2578 11.3923 14.3764 12.0018 14.3764C12.6112 14.3764 13.2144 14.2578 13.7746 14.0276L22.0356 10.6339C22.4836 12.4024 22.6105 14.2317 22.4106 16.0415C22.3747 16.369 22.2225 16.6747 21.9795 16.9076C21.7365 17.1405 21.4175 17.2863 21.0757 17.3208C18.0499 17.6255 15.2212 18.9045 13.0516 20.9488C12.7713 21.2122 12.3943 21.3597 12.0018 21.3597C11.6092 21.3597 11.2322 21.2122 10.9519 20.9488ZM6.00244 23C6.40022 23 6.78171 22.8486 7.06298 22.579C7.34425 22.3094 7.50227 21.9438 7.50227 21.5626V18.5943C6.54837 18.1401 5.54138 17.7966 4.50261 17.5709V21.5626C4.50261 21.9438 4.66063 22.3094 4.9419 22.579C5.22317 22.8486 5.60466 23 6.00244 23Z" fill="white"/>
</svg>
