<svg width="20" height="16" viewBox="0 0 20 16" fill="none" xmlns="http://www.w3.org/2000/svg">
<path d="M20 12.5712C20 12.8168 19.95 13.0624 19.85 13.2884C19.7533 13.5148 19.6142 13.7214 19.44 13.8975C19.259 14.0655 19.049 14.2021 18.82 14.3003C18.5851 14.3942 18.3335 14.441 18.08 14.4379C16.9483 14.4191 15.8179 14.5245 14.71 14.7523C13.3971 14.9044 12.1324 15.3298 11 16V1.35132C12.091 0.840437 13.26 0.508361 14.46 0.36885C15.6813 0.130674 16.9251 0.0219792 18.17 0.0446337C18.6659 0.0716817 19.1319 0.286491 19.47 0.643942C19.8 0.989773 19.983 1.44662 19.98 1.92116L20 12.5712ZM9.00002 1.35132V16C7.88634 15.3362 6.64254 14.911 5.35002 14.7523C4.22131 14.528 3.07148 14.4226 1.92003 14.4379C1.66649 14.441 1.41488 14.3942 1.18003 14.3003C0.951604 14.2016 0.741946 14.0654 0.56003 13.8975C0.381716 13.7247 0.242073 13.5172 0.150031 13.2884C0.0496534 13.0622 -0.0014416 12.8179 3.09461e-05 12.5712V1.86221C0.00160588 1.38859 0.186362 0.933272 0.51687 0.588489C0.847378 0.243707 1.29892 0.0352448 1.78003 0.00533457C3.05173 -0.026251 4.32302 0.0825018 5.57002 0.329551C6.7637 0.478244 7.92329 0.82368 9.00002 1.35132Z" fill="#164BA9"/>
</svg>
