<svg width="18" height="24" viewBox="0 0 18 24" fill="none" xmlns="http://www.w3.org/2000/svg">
<path d="M14.9625 22.9804L9.6 18.8679C9.0903 18.4803 8.3847 18.4803 7.875 18.8679L2.4625 22.9804C2.06781 23.2977 1.52971 23.3699 1.06534 23.1679C0.600977 22.9658 0.286959 22.5229 0.25 22.0179V4.44289C0.29848 3.41247 0.755815 2.44391 1.5207 1.75176C2.28558 1.05961 3.29487 0.701012 4.325 0.755394H13.075C14.1113 0.708037 15.1234 1.0782 15.8846 1.78303C16.6458 2.48786 17.0926 3.46848 17.125 4.50539V22.0179C17.0763 22.5048 16.7703 22.9282 16.3233 23.1272C15.8762 23.3262 15.3568 23.2701 14.9625 22.9804Z" fill="white"/>
</svg>
