<svg width="18" height="24" viewBox="0 0 18 24" fill="none" xmlns="http://www.w3.org/2000/svg">
<path fill-rule="evenodd" clip-rule="evenodd" d="M4.46967 0.755423H13.5303C14.5949 0.701014 15.6381 1.05775 16.4298 1.74691C17.2214 2.43607 17.6964 3.40098 17.75 4.42871V21.9955C17.7514 22.3473 17.5992 22.6834 17.3306 22.9212C17.0621 23.1591 16.7021 23.2766 16.3391 23.2449C16.021 23.2449 15.7117 23.144 15.4589 22.9576L9.85428 18.847C9.32502 18.4638 8.59729 18.4638 8.06804 18.847L2.51517 22.9576C2.26945 23.1389 1.97011 23.2396 1.66088 23.2449C1.2979 23.2766 0.937902 23.1591 0.669338 22.9212C0.400774 22.6834 0.248531 22.3473 0.250011 21.9955V4.42871C0.303541 3.40098 0.778556 2.43607 1.57022 1.74691C2.36188 1.05775 3.40512 0.701014 4.46967 0.755423ZM11.058 17.3602L15.7825 20.8585L15.7566 4.42871C15.6341 3.33942 14.6359 2.54199 13.5044 2.62955H4.44379C3.3123 2.54199 2.31407 3.33942 2.19157 4.42871V20.8585L6.91605 17.3602C8.13939 16.4604 9.8347 16.4604 11.058 17.3602Z" fill="#054FB0"/>
</svg>
