<svg width="20" height="23" viewBox="0 0 20 23" fill="none" xmlns="http://www.w3.org/2000/svg">
<path fill-rule="evenodd" clip-rule="evenodd" d="M18.2081 4.75051L12.0727 1.33384C11.0994 0.800178 9.92105 0.800178 8.94773 1.33384L2.79148 4.75051C1.76084 5.31521 1.12143 6.39822 1.12482 7.57342V14.188C1.12127 14.4597 1.15993 14.7303 1.2394 14.9901C0.610797 15.6324 0.262436 16.4977 0.27065 17.3963C0.273635 18.3224 0.649038 19.2084 1.31232 19.8547L3.72898 22.1568C4.82573 23.211 6.55932 23.211 7.65607 22.1568L8.69773 21.2088L9.34357 20.5943C10.2552 20.9627 11.2841 20.9015 12.1456 20.4276L18.2811 17.0109C19.2804 16.4241 19.8886 15.3468 19.8748 14.188V7.57342C19.8782 6.39822 19.2388 5.31521 18.2081 4.75051ZM8.93732 18.7922L7.89565 19.8338L7.56232 20.1463L6.52065 21.1047C6.02886 21.5769 5.25203 21.5769 4.76023 21.1047L2.38523 18.7922C1.6843 18.0835 1.64354 16.9559 2.29148 16.1984L2.38523 16.0838C3.13705 15.3356 4.35217 15.3356 5.10398 16.0838L5.66648 16.6463L6.22898 16.0838C6.5853 15.7203 7.07412 15.5172 7.58315 15.5213C8.09148 15.5208 8.57898 15.7233 8.93732 16.0838C9.67864 16.8344 9.67864 18.0416 8.93732 18.7922ZM11.8123 10.6151L16.4061 8.06301C16.8285 7.8297 16.9823 7.2984 16.7498 6.87551C16.6402 6.66719 16.4496 6.51332 16.2228 6.45022C15.9961 6.38712 15.7533 6.42039 15.5519 6.54217L10.9581 9.09426C10.6633 9.24283 10.3155 9.24283 10.0206 9.09426L5.4269 6.54217C5.22727 6.42727 4.98969 6.39786 4.76807 6.46062C4.54644 6.52338 4.35956 6.67299 4.24982 6.87551C4.01732 7.2984 4.17111 7.8297 4.59357 8.06301L9.18732 10.6151C9.32938 10.683 9.47549 10.7422 9.62482 10.7922V13.1463C9.62482 13.6296 10.0166 14.0213 10.4998 14.0213C10.9831 14.0213 11.3748 13.6296 11.3748 13.1463V10.7922C11.5241 10.7422 11.6702 10.683 11.8123 10.6151Z" fill="white"/>
</svg>
