<svg width="27" height="27" viewBox="0 0 27 27" fill="currentColor" xmlns="http://www.w3.org/2000/svg">
<path d="M14.6574 4.46533C14.3126 4.46533 13.9819 4.6023 13.7381 4.84609C13.4943 5.08989 13.3574 5.42055 13.3574 5.76533C13.3574 6.11011 13.4943 6.44077 13.7381 6.68457C13.9819 6.92837 14.3126 7.06533 14.6574 7.06533H18.0192L9.83828 15.2462C9.71412 15.3662 9.61508 15.5096 9.54695 15.6682C9.47882 15.8268 9.44296 15.9974 9.44146 16.17C9.43996 16.3426 9.47285 16.5138 9.53821 16.6736C9.60358 16.8333 9.70011 16.9785 9.82217 17.1005C9.94423 17.2226 10.0894 17.3191 10.2491 17.3845C10.4089 17.4499 10.5801 17.4828 10.7527 17.4813C10.9253 17.4798 11.0959 17.4439 11.2545 17.3758C11.4131 17.3076 11.5566 17.2086 11.6765 17.0844L19.8574 8.90353V12.2653C19.8574 12.6101 19.9943 12.9408 20.2381 13.1846C20.4819 13.4284 20.8126 13.5653 21.1574 13.5653C21.5022 13.5653 21.8328 13.4284 22.0766 13.1846C22.3204 12.9408 22.4574 12.6101 22.4574 12.2653V5.76533C22.4574 5.42055 22.3204 5.08989 22.0766 4.84609C21.8328 4.6023 21.5022 4.46533 21.1574 4.46533H14.6574Z" fill="white"/>
<path d="M6.85781 7.06543C6.16825 7.06543 5.50693 7.33936 5.01933 7.82695C4.53174 8.31455 4.25781 8.97587 4.25781 9.66543V20.0654C4.25781 20.755 4.53174 21.4163 5.01933 21.9039C5.50693 22.3915 6.16825 22.6654 6.85781 22.6654H17.2578C17.9474 22.6654 18.6087 22.3915 19.0963 21.9039C19.5839 21.4163 19.8578 20.755 19.8578 20.0654V16.1654C19.8578 15.8206 19.7208 15.49 19.4771 15.2462C19.2333 15.0024 18.9026 14.8654 18.5578 14.8654C18.213 14.8654 17.8824 15.0024 17.6386 15.2462C17.3948 15.49 17.2578 15.8206 17.2578 16.1654V20.0654H6.85781V9.66543H10.7578C11.1026 9.66543 11.4333 9.52847 11.6771 9.28467C11.9208 9.04087 12.0578 8.71021 12.0578 8.36543C12.0578 8.02065 11.9208 7.68999 11.6771 7.44619C11.4333 7.20239 11.1026 7.06543 10.7578 7.06543H6.85781Z" fill="white"/>
</svg>
