<svg width="24" height="24" viewBox="0 0 24 24" fill="none" xmlns="http://www.w3.org/2000/svg">
<path d="M8.00007 2.50002C8.39754 2.50146 8.77842 2.65956 9.06007 2.94002L17.0601 10.94C17.3434 11.22 17.5029 11.6017 17.5029 12C17.5029 12.3983 17.3434 12.7801 17.0601 13.06L9.06007 21.06C8.68613 21.4613 8.12296 21.6265 7.59149 21.4908C7.06002 21.3551 6.64502 20.9401 6.5093 20.4086C6.37357 19.8771 6.53876 19.314 6.94007 18.94L13.8801 12L6.94007 5.06002C6.6567 4.78008 6.49721 4.39834 6.49721 4.00002C6.49721 3.60169 6.6567 3.21995 6.94007 2.94002C7.22172 2.65956 7.6026 2.50146 8.00007 2.50002Z" fill="#625C74"/>
</svg>
