<svg width="20" height="22" viewBox="0 0 20 22" fill="none" xmlns="http://www.w3.org/2000/svg">
<path d="M6.25 6V9.75C6.25 10.0815 6.1183 10.3995 5.88388 10.6339C5.64946 10.8683 5.33152 11 5 11H1.25M15 16H17.5C17.8315 16 18.1495 15.8683 18.3839 15.6339C18.6183 15.3995 18.75 15.0815 18.75 14.75V2.25C18.75 1.91848 18.6183 1.60054 18.3839 1.36612C18.1495 1.1317 17.8315 1 17.5 1H8.75C8.41848 1 8.10054 1.1317 7.86612 1.36612C7.6317 1.60054 7.5 1.91848 7.5 2.25V3.5M12.5 7.25V19.75C12.5 20.0815 12.3683 20.3995 12.1339 20.6339C11.8995 20.8683 11.5815 21 11.25 21H2.5C2.16848 21 1.85054 20.8683 1.61612 20.6339C1.3817 20.3995 1.25 20.0815 1.25 19.75V10.8375C1.24998 10.5396 1.35637 10.2514 1.55 10.025L4.625 6.4375C4.74236 6.30029 4.88805 6.19014 5.05204 6.11461C5.21604 6.03909 5.39445 5.99999 5.575 6H11.25C11.5815 6 11.8995 6.1317 12.1339 6.36612C12.3683 6.60054 12.5 6.91848 12.5 7.25Z" stroke="#5D5E65" stroke-width="2" stroke-linejoin="round"/>
</svg>
