<svg width="61" height="60" viewBox="0 0 61 60" fill="none" xmlns="http://www.w3.org/2000/svg">
<path d="M4.5424 27.9394L9.20927 11.58C9.8974 9.17813 12.1193 7.5 14.6149 7.5H39.8768C40.9136 7.5 41.7499 8.34 41.7499 9.375V35.625C41.7499 36.0281 41.6224 36.4219 41.3805 36.7444L31.2705 50.3194C30.1493 51.7238 28.533 52.5 26.8005 52.5C23.6711 52.5 21.1268 49.9556 21.1268 46.8263V37.5H11.748C9.37615 37.5 7.1974 36.4144 5.77052 34.5206C4.33802 32.6231 3.89177 30.225 4.5424 27.9394Z" fill="#4E4E4E"/>
<path d="M47.377 37.5H54.877C55.9138 37.5 56.7501 36.66 56.7501 35.625V9.375C56.7501 8.34 55.9138 7.5 54.877 7.5H47.377C46.3401 7.5 45.502 8.34 45.502 9.375V35.625C45.502 36.66 46.3401 37.5 47.377 37.5ZM51.127 12.1875C52.6795 12.1875 53.9395 13.4475 53.9395 15C53.9395 16.5525 52.6795 17.8125 51.127 17.8125C49.5745 17.8125 48.3145 16.5525 48.3145 15C48.3145 13.4475 49.5745 12.1875 51.127 12.1875Z" fill="#4E4E4E"/>
</svg>
