<svg width="20" height="20" viewBox="0 0 20 20" fill="none" xmlns="http://www.w3.org/2000/svg">
<path fill-rule="evenodd" clip-rule="evenodd" d="M4.57644e-08 9.48891C4.57644e-08 10.516 0.461012 11.501 1.28162 12.2272C2.10222 12.9535 3.21521 13.3615 4.37572 13.3615H8.75144V16.2228L7.13492 14.7922C6.89913 14.5906 6.58332 14.4791 6.25553 14.4816C5.92773 14.4841 5.61416 14.6005 5.38236 14.8056C5.15056 15.0108 5.01908 15.2883 5.01623 15.5784C5.01338 15.8685 5.1394 16.148 5.36713 16.3567L9.11775 19.676C9.35219 19.8835 9.67013 20 10.0016 20C10.3332 20 10.6511 19.8835 10.8855 19.676L14.6362 16.3567C14.8639 16.148 14.9899 15.8685 14.9871 15.5784C14.9842 15.2883 14.8527 15.0108 14.6209 14.8056C14.3891 14.6005 14.0756 14.4841 13.7478 14.4816C13.42 14.4791 13.1042 14.5906 12.8684 14.7922L11.2518 16.2228V13.3615H14.3774C15.1484 13.3611 15.9111 13.2204 16.6182 12.9482C17.3252 12.6761 17.9615 12.2781 18.4875 11.7792C19.0135 11.2803 19.418 10.691 19.676 10.0479C19.9339 9.4048 20.0396 8.72166 19.9867 8.04088C19.9338 7.36009 19.7234 6.6962 19.3685 6.09041C19.0135 5.48463 18.5217 4.94988 17.9234 4.51936C17.3252 4.08885 16.6334 3.77176 15.8909 3.58778C15.1484 3.4038 14.3711 3.35686 13.6072 3.44987C13.4596 2.87295 13.1828 2.32806 12.7933 1.84737C12.4037 1.36668 11.9093 0.959933 11.3392 0.651154C10.7691 0.342374 10.1349 0.137817 9.474 0.0495612C8.81309 -0.0386945 8.1389 -0.00885978 7.49124 0.137304C6.84357 0.283467 6.23557 0.542996 5.70311 0.900567C5.17066 1.25814 4.72456 1.7065 4.39115 2.21918C4.05773 2.73187 3.84376 3.29848 3.76188 3.88556C3.68 4.47264 3.73185 5.06829 3.91439 5.63734C2.83967 5.73818 1.84513 6.18745 1.12239 6.89859C0.399649 7.60973 -0.000156175 8.53243 4.57644e-08 9.48891ZM11.2518 13.3615H8.75144V7.82923C8.75144 7.53578 8.88315 7.25434 9.11761 7.04684C9.35207 6.83934 9.67007 6.72277 10.0016 6.72277C10.3332 6.72277 10.6512 6.83934 10.8857 7.04684C11.1201 7.25434 11.2518 7.53578 11.2518 7.82923V13.3615Z" fill="white"/>
</svg>
