<svg width="22" height="22" viewBox="0 0 22 22" fill="currentColor" xmlns="http://www.w3.org/2000/svg">
<path d="M11.6347 2.69193C11.3271 1.74462 9.98691 1.74462 9.67834 2.69193L8.11594 7.49947C8.04865 7.70586 7.91778 7.88566 7.74208 8.01314C7.56638 8.14062 7.35485 8.20925 7.13777 8.20919H2.08337C1.08772 8.20919 0.672173 9.48462 1.47857 10.0709L5.56817 13.0414C5.74384 13.1691 5.87458 13.3492 5.94166 13.5557C6.00873 13.7623 6.00869 13.9848 5.94154 14.1914L4.38017 18.9989C4.0716 19.9462 5.15674 20.7351 5.96212 20.1488L10.0517 17.1783C10.2275 17.0506 10.4392 16.9817 10.6565 16.9817C10.8738 16.9817 11.0855 17.0506 11.2613 17.1783L15.3509 20.1488C16.1563 20.7351 17.2414 19.9472 16.9329 18.9989L15.3715 14.1914C15.3043 13.9848 15.3043 13.7623 15.3714 13.5557C15.4384 13.3492 15.5692 13.1691 15.7449 13.0414L19.8345 10.0709C20.6398 9.48462 20.2263 8.20919 19.2297 8.20919H14.1742C13.9573 8.20903 13.746 8.1403 13.5705 8.01284C13.395 7.88537 13.2643 7.70569 13.1971 7.49947L11.6347 2.69193Z" stroke="#415982" stroke-width="2" stroke-linecap="round" stroke-linejoin="round"/>
</svg>
