<svg width="17" height="17" viewBox="0 0 17 17" fill="currentColor" xmlns="http://www.w3.org/2000/svg">
<path fill-rule="evenodd" clip-rule="evenodd" d="M8.59056 16.4028C10.7285 16.4028 12.779 15.5527 14.2907 14.0395C15.8025 12.5263 16.6518 10.474 16.6518 8.33397C16.6518 6.19398 15.8025 4.14164 14.2907 2.62844C12.779 1.11524 10.7285 0.265137 8.59056 0.265137C6.45258 0.265137 4.40217 1.11524 2.89039 2.62844C1.37861 4.14164 0.529297 6.19398 0.529297 8.33397C0.529297 10.474 1.37861 12.5263 2.89039 14.0395C4.40217 15.5527 6.45258 16.4028 8.59056 16.4028V16.4028ZM5.56759 7.32536C5.83483 7.32536 6.09113 7.2191 6.28011 7.02995C6.46908 6.8408 6.57524 6.58426 6.57524 6.31676C6.57524 6.04926 6.46908 5.79272 6.28011 5.60357C6.09113 5.41442 5.83483 5.30816 5.56759 5.30816C5.30034 5.30816 5.04404 5.41442 4.85506 5.60357C4.66609 5.79272 4.55993 6.04926 4.55993 6.31676C4.55993 6.58426 4.66609 6.8408 4.85506 7.02995C5.04404 7.2191 5.30034 7.32536 5.56759 7.32536ZM12.6212 6.31676C12.6212 6.58426 12.515 6.8408 12.3261 7.02995C12.1371 7.2191 11.8808 7.32536 11.6135 7.32536C11.3463 7.32536 11.09 7.2191 10.901 7.02995C10.712 6.8408 10.6059 6.58426 10.6059 6.31676C10.6059 6.04926 10.712 5.79272 10.901 5.60357C11.09 5.41442 11.3463 5.30816 11.6135 5.30816C11.8808 5.30816 12.1371 5.41442 12.3261 5.60357C12.515 5.79272 12.6212 6.04926 12.6212 6.31676ZM12.1536 11.8994C12.2472 11.8057 12.3214 11.6944 12.372 11.572C12.4226 11.4496 12.4486 11.3184 12.4486 11.1859C12.4485 11.0535 12.4224 10.9223 12.3717 10.7999C12.321 10.6775 12.2468 10.5664 12.1531 10.4727C12.0595 10.3791 11.9484 10.3048 11.8261 10.2541C11.7038 10.2035 11.5727 10.1774 11.4404 10.1775C11.308 10.1775 11.177 10.2037 11.0547 10.2544C10.9324 10.3052 10.8214 10.3795 10.7278 10.4732C10.1609 11.0405 9.39214 11.3591 8.59056 11.3591C7.78897 11.3591 7.02021 11.0405 6.45332 10.4732C6.26437 10.284 6.00806 10.1776 5.74076 10.1775C5.47345 10.1774 5.21706 10.2836 5.02798 10.4727C4.83891 10.6618 4.73263 10.9184 4.73254 11.1859C4.73244 11.4535 4.83854 11.7101 5.02748 11.8994C5.49535 12.3678 6.05082 12.7394 6.66218 12.9929C7.27354 13.2464 7.92881 13.3769 8.59056 13.3769C9.25231 13.3769 9.90758 13.2464 10.5189 12.9929C11.1303 12.7394 11.6858 12.3678 12.1536 11.8994V11.8994Z" fill="#1074C3"/>
</svg>
