<svg width="21" height="19" viewBox="0 0 21 19" fill="currentColor"" xmlns="http://www.w3.org/2000/svg">
<path fill-rule="evenodd" clip-rule="evenodd" d="M1.75 0.75C2.08152 0.75 2.39946 0.881696 2.63388 1.11612C2.8683 1.35054 3 1.66848 3 2V17C3 17.3315 2.8683 17.6495 2.63388 17.8839C2.39946 18.1183 2.08152 18.25 1.75 18.25C1.41848 18.25 1.10054 18.1183 0.866116 17.8839C0.631696 17.6495 0.5 17.3315 0.5 17V2C0.5 1.66848 0.631696 1.35054 0.866116 1.11612C1.10054 0.881696 1.41848 0.75 1.75 0.75ZM11.3837 4.86625C11.6181 5.10066 11.7497 5.41855 11.7497 5.75C11.7497 6.08146 11.6181 6.39934 11.3837 6.63375L9.7675 8.25H19.25C19.5815 8.25 19.8995 8.3817 20.1339 8.61612C20.3683 8.85054 20.5 9.16848 20.5 9.5C20.5 9.83152 20.3683 10.1495 20.1339 10.3839C19.8995 10.6183 19.5815 10.75 19.25 10.75H9.7675L11.3837 12.3663C11.6114 12.602 11.7374 12.9178 11.7346 13.2455C11.7317 13.5732 11.6003 13.8868 11.3685 14.1185C11.1368 14.3503 10.8232 14.4817 10.4955 14.4846C10.1678 14.4874 9.852 14.3614 9.61625 14.1338L5.86625 10.3838C5.63191 10.1493 5.50027 9.83146 5.50027 9.5C5.50027 9.16855 5.63191 8.85066 5.86625 8.61625L9.61625 4.86625C9.85066 4.63191 10.1685 4.50027 10.5 4.50027C10.8315 4.50027 11.1493 4.63191 11.3837 4.86625Z" fill="white"/>
</svg>
