<svg width="48" height="56" viewBox="0 0 48 56" fill="none" xmlns="http://www.w3.org/2000/svg">
                                <path d="M45.3398 38.2674C43.0183 40.5889 40.2623 42.4304 37.2292 43.6868C34.1961 44.9431 30.9452 45.5898 27.6621 45.5898M27.6621 45.5898C24.3791 45.5898 21.1282 44.9431 18.095 43.6868C15.0619 42.4304 12.3059 40.5889 9.98444 38.2674C7.66298 35.946 5.82149 33.19 4.56512 30.1569C3.30876 27.1237 2.66211 23.8728 2.66211 20.5898C2.66211 17.3067 3.30875 14.0558 4.56512 11.0227C5.82149 7.98955 7.66298 5.23357 9.98444 2.91211M27.6621 45.5898L27.6627 53.0898M27.6627 53.0898H20.1627M27.6627 53.0898H35.1627M45.1627 20.5898C45.1627 30.2548 37.3276 38.0898 27.6627 38.0898C17.9977 38.0898 10.1627 30.2548 10.1627 20.5898C10.1627 10.9248 17.9977 3.0898 27.6627 3.0898C37.3276 3.0898 45.1627 10.9248 45.1627 20.5898Z" stroke="#000000" stroke-width="4" stroke-linecap="round"></path>
                            </svg>