<svg width="54" height="45" viewBox="0 0 54 45" fill="none" xmlns="http://www.w3.org/2000/svg">
                                <path d="M27 7.21981V30.9683M9.5 12.1309C5.35786 12.1309 2 15.4887 2 19.6309V32.1309C2 37.6537 6.47715 42.1309 12 42.1309H42C47.5228 42.1309 52 37.6537 52 32.1309V19.6309C52 15.4887 48.6421 12.1309 44.5 12.1309M12.9901 2.14965C16.8722 2.56744 22.088 3.69139 25.8044 6.1716C26.5187 6.64828 27.4813 6.64828 28.1956 6.1716C31.912 3.69139 37.1278 2.56744 41.0099 2.14965C42.9313 1.94287 44.5 3.4709 44.5 5.35616V24.1308C44.5 26.016 42.9313 27.5446 41.0099 27.7514C37.1278 28.1692 31.912 29.2931 28.1956 31.7734C27.4813 32.25 26.5187 32.25 25.8044 31.7734C22.088 29.2931 16.8722 28.1692 12.9901 27.7514C11.0687 27.5446 9.5 26.016 9.5 24.1308V5.35616C9.5 3.4709 11.0687 1.94287 12.9901 2.14965Z" stroke="#000000" stroke-width="4" stroke-linecap="round" stroke-linejoin="round"></path>
                            </svg>