<svg width="60" height="61" viewBox="0 0 60 61" fill="none" xmlns="http://www.w3.org/2000/svg">
<path d="M40.4058 5.65723H19.5942C13.8565 5.65723 9.18848 10.3301 9.18848 16.0739V47.3239C9.18848 51.9197 12.9221 55.6572 17.5131 55.6572H40.4058C46.1435 55.6572 50.8115 50.9843 50.8115 45.2406V16.0739C50.8115 10.3301 46.1435 5.65723 40.4058 5.65723ZM46.6492 16.0739V38.9906H21.6754V9.82389H30V27.2135C30 28.5114 31.6462 29.0676 32.4329 28.0364L35.2029 24.4051L37.9729 28.0364C38.7596 29.0676 40.4058 28.5114 40.4058 27.2135V9.82389C43.848 9.82389 46.6492 12.6281 46.6492 16.0739ZM17.5131 10.2072V38.9906C15.9897 38.9906 14.5807 39.4322 13.3508 40.1489V16.0739C13.3508 13.3614 15.0969 11.0697 17.5131 10.2072ZM40.4058 51.4906H17.5131C12.0417 51.3926 12.0459 43.2531 17.5131 43.1572H46.6492V45.2406C46.6492 48.6864 43.848 51.4906 40.4058 51.4906Z" fill="#4E4E4E"/>
</svg>
