<svg width="50" height="50" viewBox="0 0 50 50" fill="none" xmlns="http://www.w3.org/2000/svg">
                                <path d="M33.3541 33.4849C21.8196 45.0195 8.72885 50.6298 4.11505 46.016C-0.498753 41.4022 5.11158 28.3114 16.6461 16.7768C28.1806 5.24226 41.2714 -0.368106 45.8852 4.24572C50.499 8.85954 44.8886 21.9504 33.3541 33.4849Z" stroke="#000000" stroke-width="4"></path>
                                <path d="M33.3539 16.7768C44.8884 28.3113 50.4988 41.4022 45.885 46.016C41.2712 50.6298 28.1804 45.0195 16.6459 33.4849C5.11136 21.9504 -0.49898 8.85951 4.11482 4.24569C8.72862 -0.368133 21.8194 5.24223 33.3539 16.7768Z" stroke="#000000" stroke-width="4"></path>
                                <path d="M30 25.1309C30 27.8923 27.7614 30.1309 25 30.1309C22.2386 30.1309 20 27.8923 20 25.1309C20 22.3694 22.2386 20.1309 25 20.1309C27.7614 20.1309 30 22.3694 30 25.1309Z" stroke="#000000" stroke-width="4"></path>
                            </svg>