<svg width="44" height="55" viewBox="0 0 44 55" fill="none" xmlns="http://www.w3.org/2000/svg">
                                <path d="M42 29.6316H44V27.6316H42V29.6316ZM22 37.1316V35.1316C20.8954 35.1316 20 36.027 20 37.1316H22ZM32 37.1316H34C34 36.027 33.1046 35.1316 32 35.1316V37.1316ZM32 52.1316L30.5858 53.5458C31.1578 54.1178 32.018 54.2889 32.7654 53.9794C33.5127 53.6698 34 52.9405 34 52.1316H32ZM22 52.1316H20C20 52.9405 20.4873 53.6698 21.2346 53.9794C21.982 54.2889 22.8422 54.1178 23.4142 53.5458L22 52.1316ZM27 47.1316L28.4142 45.7174C27.6332 44.9363 26.3668 44.9363 25.5858 45.7174L27 47.1316ZM12 10.1316C10.8954 10.1316 10 11.027 10 12.1316C10 13.2362 10.8954 14.1316 12 14.1316V10.1316ZM32 14.1316C33.1046 14.1316 34 13.2362 34 12.1316C34 11.027 33.1046 10.1316 32 10.1316V14.1316ZM12 18.8816C10.8954 18.8816 10 19.777 10 20.8816C10 21.9862 10.8954 22.8816 12 22.8816V18.8816ZM22 22.8816C23.1046 22.8816 24 21.9862 24 20.8816C24 19.777 23.1046 18.8816 22 18.8816V22.8816ZM9.5 4.13159H34.5V0.131592H9.5V4.13159ZM40 9.63159V37.1316H44V9.63159H40ZM4 37.1316V9.63159H0V37.1316H4ZM34.5 42.6316H33.4286V46.6316H34.5V42.6316ZM22 42.6316H9.5V46.6316H22V42.6316ZM0 37.1316C0 42.3783 4.2533 46.6316 9.5 46.6316V42.6316C6.46243 42.6316 4 40.1692 4 37.1316H0ZM40 37.1316C40 40.1692 37.5376 42.6316 34.5 42.6316V46.6316C39.7467 46.6316 44 42.3783 44 37.1316H40ZM34.5 4.13159C37.5376 4.13159 40 6.59403 40 9.63159H44C44 4.38489 39.7467 0.131592 34.5 0.131592V4.13159ZM9.5 0.131592C4.2533 0.131592 0 4.38489 0 9.63159H4C4 6.59403 6.46243 4.13159 9.5 4.13159V0.131592ZM9.5 31.6316H42V27.6316H9.5V31.6316ZM40 29.6316V37.1316H44V29.6316H40ZM9.5 27.6316C4.2533 27.6316 0 31.8849 0 37.1316H4C4 34.094 6.46243 31.6316 9.5 31.6316V27.6316ZM22 39.1316H32V35.1316H22V39.1316ZM30 37.1316V52.1316H34V37.1316H30ZM24 52.1316V37.1316H20V52.1316H24ZM33.4142 50.7174L28.4142 45.7174L25.5858 48.5458L30.5858 53.5458L33.4142 50.7174ZM25.5858 45.7174L20.5858 50.7174L23.4142 53.5458L28.4142 48.5458L25.5858 45.7174ZM12 14.1316H32V10.1316H12V14.1316ZM12 22.8816H22V18.8816H12V22.8816Z" fill="#000000"></path>
                            </svg>