<svg width="52" height="43" viewBox="0 0 52 43" fill="none" xmlns="http://www.w3.org/2000/svg">
<path d="M0.330401 30.7555C-0.049599 30.4675 0.00240092 29.9915 0.00240092 29.9915L2.1064 4.99953C2.1064 4.99953 2.1384 4.72352 2.2624 4.58352C2.3384 4.49552 2.4344 4.36753 2.6224 4.29153C4.7304 3.42753 16.2144 -2.79247 22.0024 2.99953C22.9624 4.11153 24.0024 5.75152 24.0024 6.99953V28.1515C24.0024 28.1515 24.0264 28.5995 23.6224 28.8715C23.4753 28.9553 23.3093 29.0004 23.1399 29.0025C22.9706 29.0046 22.8036 28.9636 22.6544 28.8835C13.7504 24.4275 3.8104 29.4995 1.3024 30.8315C1.15055 30.9155 0.977252 30.9527 0.804305 30.9385C0.631357 30.9243 0.466479 30.8592 0.330401 30.7515M50.7024 30.8275C48.1944 29.4955 38.2544 24.4275 29.3504 28.8795C29.2012 28.9596 29.0342 29.0006 28.8649 28.9985C28.6955 28.9964 28.5295 28.9513 28.3824 28.8675C27.9784 28.5995 28.0024 28.1515 28.0024 28.1515V6.99953C28.0024 5.75152 29.0424 4.11153 30.0024 2.99953C35.7864 -2.79247 47.2024 3.42753 49.3104 4.29153C49.4944 4.36753 49.5904 4.49552 49.6704 4.58352C49.7904 4.72352 49.8264 4.99953 49.8264 4.99953L51.9984 29.9915C51.9984 29.9915 52.0544 30.4675 51.6784 30.7515C51.5419 30.86 51.3763 30.9256 51.2026 30.9398C51.0288 30.9541 50.8547 30.9164 50.7024 30.8315M31.4624 41.7435C31.647 41.6904 31.8114 41.5831 31.9344 41.4355C32.0325 41.3102 32.091 41.1583 32.1024 40.9995C32.3024 37.2475 38.5984 33.7515 50.6944 40.8795C51.0024 41.0555 51.3584 41.0395 51.6624 40.8195C52.0064 40.5675 52.0024 40.1395 52.0024 40.1395V37.9275C52.0024 37.9275 52.0024 37.6195 51.8944 37.4515C51.8045 37.3058 51.6756 37.188 51.5224 37.1115C43.4224 31.8515 33.1784 29.5195 27.9824 36.4715C27.9227 36.6177 27.8211 36.743 27.6904 36.8315C27.4624 37.0115 27.1864 36.9995 27.1864 36.9995H24.8464C24.8464 36.9995 24.5664 37.0115 24.3424 36.8355C24.2117 36.747 24.1101 36.6217 24.0504 36.4755C18.8504 29.5195 8.6104 31.7395 0.510401 36.9995C0.356647 37.0771 0.227759 37.1963 0.138401 37.3435C0.0304011 37.5115 0.0304008 37.8155 0.0304008 37.8155V40.0315C0.0304008 40.0315 0.026401 40.4595 0.370401 40.7115C0.508523 40.8161 0.674436 40.8776 0.847345 40.8882C1.02025 40.8989 1.19247 40.8583 1.3424 40.7715C13.4344 33.6435 19.7344 37.2515 19.9304 40.9995C19.9429 41.1588 20.0028 41.3106 20.1024 41.4355C20.2254 41.5831 20.3898 41.6904 20.5744 41.7435C23.4584 42.4635 27.6464 42.7435 31.4624 41.7435Z" fill="#990012"/>
</svg>
