<svg width="18" height="18" viewBox="0 0 18 18" fill="currentColor" xmlns="http://www.w3.org/2000/svg">
<path fill-rule="evenodd" clip-rule="evenodd" d="M17.4076 8.95239C17.4076 11.1815 16.5229 13.3194 14.9481 14.8956C13.3733 16.4719 11.2375 17.3574 9.01043 17.3574C6.78337 17.3574 4.64752 16.4719 3.07275 14.8956C1.49798 13.3194 0.613281 11.1815 0.613281 8.95239C0.613281 6.72324 1.49798 4.58539 3.07275 3.00914C4.64752 1.43289 6.78337 0.547363 9.01043 0.547363C11.2375 0.547363 13.3733 1.43289 14.9481 3.00914C16.5229 4.58539 17.4076 6.72324 17.4076 8.95239V8.95239ZM10.0601 4.74988C10.0601 5.02852 9.94948 5.29575 9.75264 5.49279C9.55579 5.68982 9.28881 5.80051 9.01043 5.80051C8.73205 5.80051 8.46506 5.68982 8.26822 5.49279C8.07137 5.29575 7.96079 5.02852 7.96079 4.74988C7.96079 4.47123 8.07137 4.204 8.26822 4.00697C8.46506 3.80994 8.73205 3.69925 9.01043 3.69925C9.28881 3.69925 9.55579 3.80994 9.75264 4.00697C9.94948 4.204 10.0601 4.47123 10.0601 4.74988ZM7.96079 7.90177C7.6824 7.90177 7.41542 8.01246 7.21858 8.20949C7.02173 8.40652 6.91114 8.67375 6.91114 8.95239C6.91114 9.23104 7.02173 9.49827 7.21858 9.6953C7.41542 9.89233 7.6824 10.003 7.96079 10.003V13.1549C7.96079 13.4336 8.07137 13.7008 8.26822 13.8978C8.46506 14.0948 8.73205 14.2055 9.01043 14.2055H10.0601C10.3385 14.2055 10.6054 14.0948 10.8023 13.8978C10.9991 13.7008 11.1097 13.4336 11.1097 13.1549C11.1097 12.8763 10.9991 12.609 10.8023 12.412C10.6054 12.215 10.3385 12.1043 10.0601 12.1043V8.95239C10.0601 8.67375 9.94948 8.40652 9.75264 8.20949C9.55579 8.01246 9.28881 7.90177 9.01043 7.90177H7.96079Z" fill="#1074C3"/>
</svg>
