<svg width="21" height="21" viewBox="0 0 21 21" fill="none" xmlns="http://www.w3.org/2000/svg">
<path fill-rule="evenodd" clip-rule="evenodd" d="M20.5 10.5C20.5 13.1522 19.4464 15.6957 17.5711 17.5711C15.6957 19.4464 13.1522 20.5 10.5 20.5C7.84783 20.5 5.3043 19.4464 3.42893 17.5711C1.55357 15.6957 0.5 13.1522 0.5 10.5C0.5 7.84783 1.55357 5.3043 3.42893 3.42893C5.3043 1.55357 7.84783 0.5 10.5 0.5C13.1522 0.5 15.6957 1.55357 17.5711 3.42893C19.4464 5.3043 20.5 7.84783 20.5 10.5V10.5ZM11.75 5.5C11.75 5.83152 11.6183 6.14946 11.3839 6.38388C11.1495 6.6183 10.8315 6.75 10.5 6.75C10.1685 6.75 9.85054 6.6183 9.61612 6.38388C9.3817 6.14946 9.25 5.83152 9.25 5.5C9.25 5.16848 9.3817 4.85054 9.61612 4.61612C9.85054 4.3817 10.1685 4.25 10.5 4.25C10.8315 4.25 11.1495 4.3817 11.3839 4.61612C11.6183 4.85054 11.75 5.16848 11.75 5.5ZM9.25 9.25C8.91848 9.25 8.60054 9.3817 8.36612 9.61612C8.1317 9.85054 8 10.1685 8 10.5C8 10.8315 8.1317 11.1495 8.36612 11.3839C8.60054 11.6183 8.91848 11.75 9.25 11.75V15.5C9.25 15.8315 9.3817 16.1495 9.61612 16.3839C9.85054 16.6183 10.1685 16.75 10.5 16.75H11.75C12.0815 16.75 12.3995 16.6183 12.6339 16.3839C12.8683 16.1495 13 15.8315 13 15.5C13 15.1685 12.8683 14.8505 12.6339 14.6161C12.3995 14.3817 12.0815 14.25 11.75 14.25V10.5C11.75 10.1685 11.6183 9.85054 11.3839 9.61612C11.1495 9.3817 10.8315 9.25 10.5 9.25H9.25Z" fill="#1074C3"/>
</svg>
