<svg width="30" height="30" viewBox="0 0 30 30" fill="none" xmlns="http://www.w3.org/2000/svg">
<path fill-rule="evenodd" clip-rule="evenodd" d="M0.771484 6.5314C0.771484 3.30175 3.39002 0.683594 6.62015 0.683594C9.85028 0.683594 12.4688 3.30175 12.4688 6.5314C12.4688 9.76106 9.85028 12.3792 6.62015 12.3792C3.39002 12.3792 0.771484 9.76106 0.771484 6.5314ZM9.96224 6.5314C9.96224 4.68588 8.46594 3.1898 6.62015 3.1898C4.77436 3.1898 3.27806 4.68588 3.27806 6.5314C3.27806 8.37692 4.77436 9.87301 6.62015 9.87301C8.46594 9.87301 9.96224 8.37692 9.96224 6.5314Z" fill="#054FB0"/>
<path fill-rule="evenodd" clip-rule="evenodd" d="M17.482 6.5314C17.482 3.30175 20.1005 0.683594 23.3306 0.683594C26.5608 0.683594 29.1793 3.30175 29.1793 6.5314C29.1793 9.76106 26.5608 12.3792 23.3306 12.3792C20.1005 12.3792 17.482 9.76106 17.482 6.5314ZM26.6727 6.5314C26.6727 4.68588 25.1764 3.1898 23.3306 3.1898C21.4848 3.1898 19.9885 4.68588 19.9885 6.5314C19.9885 8.37692 21.4848 9.87301 23.3306 9.87301C25.1764 9.87301 26.6727 8.37692 26.6727 6.5314Z" fill="#054FB0"/>
<path fill-rule="evenodd" clip-rule="evenodd" d="M0.771484 23.2394C0.771484 20.0098 3.39002 17.3916 6.62015 17.3916C9.85028 17.3916 12.4688 20.0098 12.4688 23.2394C12.4688 26.4691 9.85028 29.0872 6.62015 29.0872C3.39002 29.0872 0.771484 26.4691 0.771484 23.2394ZM9.96224 23.2394C9.96224 21.3939 8.46594 19.8978 6.62015 19.8978C4.77436 19.8978 3.27806 21.3939 3.27806 23.2394C3.27806 25.0849 4.77436 26.581 6.62015 26.581C8.46594 26.581 9.96224 25.0849 9.96224 23.2394Z" fill="#054FB0"/>
<path fill-rule="evenodd" clip-rule="evenodd" d="M17.482 23.2394C17.482 20.0098 20.1005 17.3916 23.3306 17.3916C26.5608 17.3916 29.1793 20.0098 29.1793 23.2394C29.1793 26.4691 26.5608 29.0872 23.3306 29.0872C20.1005 29.0872 17.482 26.4691 17.482 23.2394ZM26.6727 23.2394C26.6727 21.3939 25.1764 19.8978 23.3306 19.8978C21.4848 19.8978 19.9885 21.3939 19.9885 23.2394C19.9885 25.0849 21.4848 26.581 23.3306 26.581C25.1764 26.581 26.6727 25.0849 26.6727 23.2394Z" fill="#054FB0"/>
</svg>
