<svg width="23" height="31" viewBox="0 0 23 31" fill="none" xmlns="http://www.w3.org/2000/svg">
<path fill-rule="evenodd" clip-rule="evenodd" d="M8.50582 12.0948C8.46966 10.5894 7.55526 9.24473 6.16858 8.6577C6.22142 8.53239 6.25055 8.39837 6.25451 8.26244V1.38828C6.25451 0.67644 5.67744 0.0993772 4.96559 0.0993772C4.25374 0.0993772 3.67667 0.67644 3.67667 1.38828V8.17651C3.66695 8.25067 3.66695 8.32577 3.67667 8.39992C1.7426 8.89216 0.510042 10.7863 0.843369 12.7539C1.1767 14.7216 2.96433 16.1041 4.95261 15.9319C6.94089 15.7597 8.46421 14.0905 8.45427 12.0948H8.50582ZM3.43607 12.0948C3.43607 11.4019 3.99775 10.8402 4.69062 10.8402C5.38349 10.8402 5.94517 11.4019 5.94517 12.0948C5.94517 12.7876 5.38349 13.3493 4.69062 13.3493C3.99775 13.3493 3.43607 12.7876 3.43607 12.0948Z" fill="#054FB0"/>
<path d="M3.67667 28.799V18.4877C3.67667 17.7759 4.25374 17.1988 4.96559 17.1988C5.67744 17.1988 6.25451 17.7759 6.25451 18.4877V28.799C6.25451 29.5108 5.67744 30.0879 4.96559 30.0879C4.25374 30.0879 3.67667 29.5108 3.67667 28.799Z" fill="#054FB0"/>
<path fill-rule="evenodd" clip-rule="evenodd" d="M17.4252 25.5166C15.9026 24.9783 14.8839 23.5397 14.8817 21.9248H14.8473C14.8448 19.9815 16.2974 18.3439 18.2271 18.1144C20.1569 17.8849 21.953 19.1362 22.4063 21.0259C22.8597 22.9156 21.8268 24.8456 20.003 25.5166V28.799C20.003 29.5108 19.4259 30.0879 18.7141 30.0879C18.0022 30.0879 17.4252 29.5108 17.4252 28.799V25.5166ZM18.8045 23.1773C19.4881 23.1655 20.0363 22.6085 20.0374 21.9248H19.9686C19.9686 21.232 19.4069 20.6703 18.7141 20.6703C18.0314 20.7078 17.5044 21.2849 17.5291 21.9682C17.5537 22.6514 18.1209 23.1891 18.8045 23.1773Z" fill="#054FB0"/>
<path d="M17.4252 15.0507V1.30235C17.4252 0.590511 18.0022 0.0134482 18.7141 0.0134482C19.4259 0.0134482 20.003 0.590511 20.003 1.30235V15.0507C20.003 15.7625 19.4259 16.3396 18.7141 16.3396C18.0022 16.3396 17.4252 15.7625 17.4252 15.0507Z" fill="#054FB0"/>
</svg>
