<svg width="16" height="12" viewBox="0 0 16 12" fill="none" xmlns="http://www.w3.org/2000/svg">
<path fill-rule="evenodd" clip-rule="evenodd" d="M0.800781 2.1999C0.800781 1.20579 1.60667 0.399902 2.60078 0.399902H13.4008C14.3949 0.399902 15.2008 1.20579 15.2008 2.1999V9.7999C15.2008 10.794 14.3949 11.5999 13.4008 11.5999H2.60078C1.60667 11.5999 0.800781 10.794 0.800781 9.7999V2.1999ZM2.00078 6.84843V9.7999C2.00078 10.1313 2.26941 10.3999 2.60078 10.3999H13.4008C13.7322 10.3999 14.0008 10.1313 14.0008 9.7999V7.64843L12.225 5.87269C11.9907 5.63838 11.6108 5.63838 11.3765 5.87269L9.84931 7.3999L10.225 7.77564C10.4594 8.00995 10.4594 8.38985 10.225 8.62417C9.99073 8.85848 9.61083 8.85848 9.37652 8.62417L5.22505 4.47269C4.99073 4.23838 4.61083 4.23838 4.37652 4.47269L2.00078 6.84843ZM9.60078 3.5999C9.60078 4.04173 9.24261 4.3999 8.80078 4.3999C8.35895 4.3999 8.00078 4.04173 8.00078 3.5999C8.00078 3.15807 8.35895 2.7999 8.80078 2.7999C9.24261 2.7999 9.60078 3.15807 9.60078 3.5999Z" fill="#1C57B6"/>
</svg>
