<svg width="37" height="37" viewBox="0 0 37 37" fill="none" xmlns="http://www.w3.org/2000/svg">
<path d="M18.5 35.1026C27.6694 35.1026 35.1026 27.6694 35.1026 18.5C35.1026 9.33068 27.6694 1.89746 18.5 1.89746C9.33068 1.89746 1.89746 9.33068 1.89746 18.5C1.89746 27.6694 9.33068 35.1026 18.5 35.1026Z" stroke="#5A7EC0" stroke-width="2" stroke-miterlimit="10" stroke-linecap="round"/>
<path d="M18.5003 35.1026C23.2088 35.1026 27.0259 27.6694 27.0259 18.5C27.0259 9.33068 23.2088 1.89746 18.5003 1.89746C13.7917 1.89746 9.97461 9.33068 9.97461 18.5C9.97461 27.6694 13.7917 35.1026 18.5003 35.1026Z" stroke="#5A7EC0" stroke-width="2" stroke-miterlimit="10" stroke-linecap="round"/>
<path d="M5.4873 29.7177C8.57577 27.5265 13.2867 26.1279 18.5647 26.1279C23.7704 26.1279 28.4238 27.4884 31.5129 29.6263" stroke="#5A7EC0" stroke-width="2" stroke-miterlimit="10"/>
<path d="M31.5129 7.28223C28.4245 9.47313 23.7135 10.872 18.4356 10.872C13.2306 10.872 8.57647 9.51115 5.4873 7.37284" stroke="#5A7EC0" stroke-width="2" stroke-miterlimit="10"/>
<path d="M1.89746 18.9482H35.1026" stroke="#5A7EC0" stroke-width="2" stroke-miterlimit="10"/>
<path d="M18.0508 1.89746V35.1026" stroke="#5A7EC0" stroke-width="2" stroke-miterlimit="10"/>
</svg>
