<svg width="24" height="27" viewBox="0 0 24 27" fill="none" xmlns="http://www.w3.org/2000/svg">
<path d="M17.6245 5.50274C17.6245 2.45033 16.1994 0.254395 13.8665 0.254395C12.5837 0.254395 12.1436 1.00609 11.6837 2.75386C11.5899 3.11492 11.5437 3.29072 11.495 3.46398C11.3687 3.91239 11.149 4.67584 10.8362 5.75274C10.8279 5.78159 10.8155 5.80877 10.7995 5.83387L7.21601 11.4409C6.36845 12.7671 5.11786 13.7865 3.64801 14.3492L3.05641 14.5757C1.498 15.1725 0.593212 16.8021 0.910874 18.4404L1.41649 21.048C1.71827 22.6044 2.89785 23.843 4.43762 24.2204L13.9722 26.5572C17.1362 27.3327 20.3342 25.4141 21.1391 22.2575L22.9077 15.321C23.4621 13.1469 22.149 10.9351 19.9749 10.3807C19.6469 10.2971 19.3097 10.2548 18.9711 10.2548H16.692C17.3121 8.21367 17.6245 6.63894 17.6245 5.50274ZM2.75159 18.0835C2.6072 17.3389 3.01846 16.598 3.72684 16.3269L4.31844 16.1004C6.16295 15.3941 7.73231 14.1149 8.79592 12.4506L12.3794 6.84358C12.4919 6.66747 12.5786 6.47614 12.6369 6.27544C12.951 5.19418 13.1719 4.42669 13.2999 3.97183C13.3537 3.78027 13.4049 3.58596 13.497 3.23099C13.7344 2.32887 13.8511 2.12939 13.8665 2.12939C14.9511 2.12939 15.7495 3.35948 15.7495 5.50274C15.7495 6.60836 15.3422 8.42204 14.5197 10.8966C14.318 11.5035 14.7697 12.1297 15.4094 12.1297H18.9711C19.1535 12.1297 19.335 12.1526 19.5116 12.1976C20.6824 12.4961 21.3894 13.6871 21.0909 14.8577L19.3222 21.7942C18.7715 23.954 16.5835 25.2667 14.4186 24.7362L4.88397 22.3992C4.05486 22.1961 3.41971 21.5291 3.25721 20.6911L2.75159 18.0835Z" fill="#5D5E65"/>
</svg>
