<svg width="61" height="60" viewBox="0 0 61 60" fill="none" xmlns="http://www.w3.org/2000/svg">
<path d="M34.2012 7.84961C37.1372 7.84961 39.5254 10.2378 39.5254 13.1738V22.8496H49.2539C51.3745 22.8497 53.3311 23.7588 54.6885 25.3604L54.9521 25.6904C56.2329 27.387 56.6861 29.5008 56.2266 31.5547L56.123 31.9648L51.4561 48.3232C50.8108 50.5754 48.7257 52.1504 46.3867 52.1504H21.125C20.2817 52.1504 19.5996 51.4669 19.5996 50.625V24.375C19.5996 24.0876 19.6808 23.8069 19.832 23.5664L19.9014 23.4658L19.9023 23.4648L30.0049 9.89941C31.0609 8.57673 32.5771 7.84963 34.2012 7.84961Z" fill="#4E4E4E" stroke="#4E4E4E" stroke-width="0.7"/>
<path d="M6.125 22.8496H13.625C14.4683 22.8496 15.1504 23.5331 15.1504 24.375V50.625C15.1504 51.4669 14.4683 52.1504 13.625 52.1504H6.125C5.28165 52.1504 4.59961 51.4669 4.59961 50.625V24.375C4.59961 23.5331 5.28165 22.8496 6.125 22.8496ZM9.875 41.8379C8.1292 41.8379 6.71289 43.2542 6.71289 45C6.71289 46.7458 8.1292 48.1621 9.875 48.1621C11.6208 48.1621 13.0371 46.7458 13.0371 45C13.0371 43.2542 11.6208 41.8379 9.875 41.8379Z" fill="#4E4E4E" stroke="#4E4E4E" stroke-width="0.7"/>
</svg>
