<svg width="21" height="19" viewBox="0 0 21 19" fill="none" xmlns="http://www.w3.org/2000/svg">
<path d="M20.8532 12.1082C20.8534 13.3445 20.487 14.5531 19.8002 15.5811C19.1135 16.6092 18.1373 17.4104 16.9951 17.8836C15.8529 18.3567 14.5961 18.4805 13.3835 18.2392C12.171 17.998 11.0573 17.4025 10.1832 16.5282L2.22818 8.57321C1.38427 7.72929 0.910156 6.58469 0.910156 5.39121C0.910156 4.19773 1.38427 3.05312 2.22818 2.20921C3.0721 1.36529 4.2167 0.891178 5.41018 0.891178C6.60366 0.891178 7.74827 1.36529 8.59218 2.20921L15.4862 9.10421C15.9866 9.62811 16.2658 10.3247 16.2658 11.0492C16.2658 11.7737 15.9866 12.4703 15.4862 12.9942C14.9702 13.5093 14.2708 13.7985 13.5418 13.7981C12.8127 13.7977 12.1136 13.5079 11.5982 12.9922L6.47118 7.86621C6.37567 7.77396 6.29949 7.66362 6.24708 7.54161C6.19467 7.41961 6.16709 7.28839 6.16593 7.15561C6.16478 7.02283 6.19008 6.89115 6.24036 6.76825C6.29064 6.64536 6.3649 6.5337 6.45879 6.43981C6.55268 6.34592 6.66433 6.27167 6.78723 6.22139C6.91013 6.1711 7.04181 6.1458 7.17458 6.14696C7.30736 6.14811 7.43858 6.1757 7.56059 6.22811C7.68259 6.28051 7.79294 6.3567 7.88518 6.45221L13.0122 11.5782C13.1528 11.7187 13.3434 11.7975 13.5422 11.7975C13.7409 11.7975 13.9316 11.7187 14.0722 11.5782C14.2079 11.4351 14.2836 11.2454 14.2836 11.0482C14.2836 10.851 14.2079 10.6613 14.0722 10.5182L7.17818 3.62321C6.70898 3.15526 6.07335 2.89248 5.41068 2.89248C4.74802 2.89248 4.11239 3.15526 3.64318 3.62321C3.18838 4.09947 2.93461 4.73267 2.93461 5.39121C2.93461 6.04974 3.18838 6.68295 3.64318 7.15921L11.5982 15.1142C11.9911 15.5164 12.46 15.8366 12.9775 16.0563C13.4951 16.276 14.0512 16.3909 14.6134 16.3941C15.1757 16.3974 15.733 16.2891 16.2531 16.0754C16.7733 15.8618 17.2458 15.547 17.6434 15.1494C18.041 14.7518 18.3557 14.2793 18.5694 13.7592C18.7831 13.2391 18.8914 12.6817 18.8881 12.1195C18.8848 11.5572 18.77 11.0011 18.5503 10.4836C18.3306 9.96598 18.0104 9.49714 17.6082 9.10421L11.4212 2.91621C11.3257 2.82396 11.2495 2.71361 11.1971 2.59161C11.1447 2.46961 11.1171 2.33839 11.1159 2.20561C11.1148 2.07283 11.1401 1.94115 11.1904 1.81825C11.2406 1.69536 11.3149 1.5837 11.4088 1.48981C11.5027 1.39592 11.6143 1.32167 11.7372 1.27139C11.8601 1.2211 11.9918 1.1958 12.1246 1.19695C12.2574 1.19811 12.3886 1.2257 12.5106 1.2781C12.6326 1.33051 12.7429 1.4067 12.8352 1.50221L19.0212 7.68921C19.6041 8.26787 20.0662 8.95659 20.3807 9.71537C20.6952 10.4741 20.8558 11.2878 20.8532 12.1092V12.1082Z" fill="#888888"/>
</svg>
