<svg width="15" height="15" viewBox="0 0 15 15" fill="none" xmlns="http://www.w3.org/2000/svg">
<path d="M14.6352 6.18474L8.81439 0.363918C8.498 0.0490102 8.03764 -0.0731829 7.60672 0.0433678C7.17581 0.159918 6.8398 0.497506 6.72528 0.928964C6.61076 1.36042 6.73512 1.8202 7.05151 2.13511L10.7353 5.81055H1.24732C0.558444 5.81055 0 6.36899 0 7.05787C0 7.74674 0.558444 8.30519 1.24732 8.30519H10.7353L7.05151 11.9806C6.69524 12.3373 6.58874 12.8734 6.78161 13.3392C6.97449 13.805 7.4288 14.1089 7.93295 14.1094C8.26769 14.1044 8.58597 13.9633 8.81439 13.7186L14.6352 7.89773C15.1216 7.41074 15.1216 6.62183 14.6352 6.13485V6.18474Z" fill="white"/>
</svg>
