<svg width="15" height="15" viewBox="0 0 15 15" fill="none" xmlns="http://www.w3.org/2000/svg">
<path d="M0.364783 8.81526L6.18561 14.6361C6.502 14.951 6.96236 15.0732 7.39328 14.9566C7.82419 14.8401 8.1602 14.5025 8.27472 14.071C8.38924 13.6396 8.26488 13.1798 7.94849 12.8649L4.26474 9.18945H13.7527C14.4416 9.18945 15 8.63101 15 7.94213C15 7.25326 14.4416 6.69481 13.7527 6.69481H4.26474L7.94849 3.01938C8.30476 2.66267 8.41126 2.12656 8.21839 1.66076C8.02551 1.19496 7.5712 0.891067 7.06705 0.890623C6.73231 0.895589 6.41403 1.03671 6.18561 1.28145L0.364783 7.10227C-0.121594 7.58926 -0.121594 8.37817 0.364783 8.86515V8.81526Z" fill="white"/>
</svg>
