<svg width="16" height="10" viewBox="0 0 16 10" fill="none" xmlns="http://www.w3.org/2000/svg">
<path d="M2.60078 0.200195C1.60667 0.200195 0.800781 1.00608 0.800781 2.0002V8.0002C0.800781 8.99431 1.60667 9.8002 2.60078 9.8002H8.60078C9.59489 9.8002 10.4008 8.99431 10.4008 8.0002V2.0002C10.4008 1.00608 9.59489 0.200195 8.60078 0.200195H2.60078Z" fill="#1C57B6"/>
<path d="M15.2008 0.800213C15.2008 0.557536 15.0546 0.338754 14.8304 0.245885C14.6062 0.153017 14.3481 0.20435 14.1765 0.375949L11.7765 2.77595C11.664 2.88847 11.6008 3.04108 11.6008 3.20021V6.80021C11.6008 6.95934 11.664 7.11196 11.7765 7.22448L14.1765 9.62448C14.3481 9.79608 14.6062 9.84741 14.8304 9.75454C15.0546 9.66167 15.2008 9.44289 15.2008 9.20021V0.800213Z" fill="#1C57B6"/>
</svg>
