<svg width="12" height="14" viewBox="0 0 12 14" fill="none" xmlns="http://www.w3.org/2000/svg">
<path fill-rule="evenodd" clip-rule="evenodd" d="M1.60039 0.600098C0.937649 0.600098 0.400391 1.13736 0.400391 1.8001V12.2001C0.400391 12.8628 0.937649 13.4001 1.60039 13.4001H10.4004C11.0631 13.4001 11.6004 12.8628 11.6004 12.2001V5.09715C11.6004 4.77889 11.474 4.47367 11.2489 4.24863L7.95186 0.95157C7.72682 0.726526 7.4216 0.600098 7.10333 0.600098H1.60039ZM3.40039 7.4001C3.06902 7.4001 2.80039 7.66873 2.80039 8.0001C2.80039 8.33147 3.06902 8.6001 3.40039 8.6001H8.60039C8.93176 8.6001 9.20039 8.33147 9.20039 8.0001C9.20039 7.66873 8.93176 7.4001 8.60039 7.4001H3.40039ZM3.40039 9.8001C3.06902 9.8001 2.80039 10.0687 2.80039 10.4001C2.80039 10.7315 3.06902 11.0001 3.40039 11.0001H8.60039C8.93176 11.0001 9.20039 10.7315 9.20039 10.4001C9.20039 10.0687 8.93176 9.8001 8.60039 9.8001H3.40039Z" fill="#1C57B6"/>
</svg>
