<svg width="21" height="27" viewBox="0 0 21 27" fill="none" xmlns="http://www.w3.org/2000/svg">
<path d="M19.4999 6.17217V23C19.4999 25.2091 17.709 27 15.4999 27H4C1.79086 27 0 25.2091 0 23V5C0 2.79086 1.79086 1 4 1H13.8688L19.4999 6.17217Z" fill="#990012"/>
<g filter="url(#filter0_d_902_33509)">
<path d="M19.5002 6.17217H14.8691C14.3169 6.17217 13.8691 5.72446 13.8691 5.17217V1L19.5002 6.17217Z" fill="#FECDCA"/>
</g>
<path d="M6.17135 20.5102H6.63635C6.97635 20.5102 7.12135 20.3402 7.12135 20.0702C7.12135 19.8002 6.97635 19.6302 6.63635 19.6302H6.17135V20.5102ZM7.99135 20.0702C7.99135 20.6502 7.59635 21.1902 6.70135 21.1902H6.17135V22.4502H5.31635V18.9402H6.70135C7.56135 18.9402 7.99135 19.4252 7.99135 20.0702ZM9.75146 18.9402C10.8715 18.9402 11.5915 19.6502 11.5915 20.6952C11.5915 21.7352 10.8715 22.4502 9.75146 22.4502H8.43646V18.9402H9.75146ZM9.29146 21.7102H9.69646C10.3415 21.7102 10.7215 21.3402 10.7215 20.6952C10.7215 20.0502 10.3415 19.6702 9.69646 19.6702H9.29146V21.7102ZM12.0693 22.4502V18.9402H14.3543V19.6252H12.9243V20.3652H13.9943V21.0302H12.9243V22.4502H12.0693Z" fill="white"/>
<defs>
<filter id="filter0_d_902_33509" x="10.8691" y="0" width="9.63086" height="9.17188" filterUnits="userSpaceOnUse" color-interpolation-filters="sRGB">
<feFlood flood-opacity="0" result="BackgroundImageFix"/>
<feColorMatrix in="SourceAlpha" type="matrix" values="0 0 0 0 0 0 0 0 0 0 0 0 0 0 0 0 0 0 127 0" result="hardAlpha"/>
<feOffset dx="-1" dy="1"/>
<feGaussianBlur stdDeviation="1"/>
<feComposite in2="hardAlpha" operator="out"/>
<feColorMatrix type="matrix" values="0 0 0 0 0 0 0 0 0 0 0 0 0 0 0 0 0 0 0.2 0"/>
<feBlend mode="normal" in2="BackgroundImageFix" result="effect1_dropShadow_902_33509"/>
<feBlend mode="normal" in="SourceGraphic" in2="effect1_dropShadow_902_33509" result="shape"/>
</filter>
</defs>
</svg>
