<svg width="24" height="24" viewBox="0 0 24 24" fill="none" xmlns="http://www.w3.org/2000/svg">
<path d="M22.1996 1.79984C21.8664 1.46654 21.4707 1.20215 21.0353 1.02176C20.5999 0.841378 20.1331 0.748535 19.6618 0.748535C19.1905 0.748535 18.7238 0.841378 18.2883 1.02176C17.8529 1.20215 17.4573 1.46654 17.124 1.79984L3.25839 15.6673C2.91941 16.0066 2.66394 16.4199 2.51214 16.8748L0.798386 22.018C0.743168 22.1831 0.735034 22.3604 0.774894 22.5299C0.814754 22.6994 0.901034 22.8544 1.02406 22.9776C1.14709 23.1009 1.30201 23.1874 1.47145 23.2275C1.64089 23.2676 1.81816 23.2598 1.98339 23.2048L7.12651 21.4892C7.58214 21.3392 7.99464 21.0823 8.33401 20.743L19.4996 9.57734L19.9928 10.0686C20.2561 10.3323 20.404 10.6897 20.404 11.0623C20.404 11.435 20.2561 11.7924 19.9928 12.0561L17.8984 14.1505C17.8113 14.2376 17.7423 14.3411 17.6953 14.4549C17.6482 14.5688 17.624 14.6908 17.6241 14.8139C17.6242 14.9371 17.6486 15.0591 17.6958 15.1729C17.743 15.2866 17.8122 15.39 17.8993 15.477C17.9865 15.5641 18.0899 15.6331 18.2038 15.6801C18.3176 15.7272 18.4396 15.7514 18.5628 15.7513C18.686 15.7512 18.8079 15.7269 18.9217 15.6796C19.0355 15.6324 19.1388 15.5633 19.2259 15.4761L21.3184 13.3836C21.6231 13.0789 21.8648 12.7172 22.0298 12.319C22.1947 11.9209 22.2796 11.4942 22.2796 11.0633C22.2796 10.6323 22.1947 10.2056 22.0298 9.80752C21.8648 9.4094 21.6231 9.04766 21.3184 8.74296L20.8253 8.24984L22.1996 6.87546C22.5329 6.54221 22.7973 6.14657 22.9777 5.71113C23.1581 5.27568 23.2509 4.80898 23.2509 4.33765C23.2509 3.86633 23.1581 3.39962 22.9777 2.96418C22.7973 2.52874 22.5329 2.13309 22.1996 1.79984ZM18.8659 7.55984L18.8096 7.61609L7.00839 19.4155C6.87517 19.549 6.71278 19.6497 6.53401 19.7098L3.17026 20.8311L4.29151 17.4673C4.3508 17.2881 4.45094 17.125 4.58401 16.9911L18.4496 3.12734C18.6088 2.96815 18.7978 2.84188 19.0058 2.75573C19.2138 2.66958 19.4367 2.62523 19.6618 2.62523C19.8869 2.62523 20.1099 2.66958 20.3179 2.75573C20.5258 2.84188 20.7148 2.96815 20.874 3.12734C21.0332 3.28653 21.1595 3.47551 21.2456 3.68349C21.3318 3.89148 21.3761 4.1144 21.3761 4.33953C21.3761 4.56465 21.3318 4.78757 21.2456 4.99556C21.1595 5.20354 21.0332 5.39253 20.874 5.55171L18.8659 7.55984Z" fill="#5D5E65"/>
</svg>
