<svg width="25" height="25" viewBox="0 0 25 25" fill="currentColor" xmlns="http://www.w3.org/2000/svg">
<path d="M12.204 4.00293V5.00362M18.3058 16.0112H20.3397M14.238 16.0112H12.204V20.0139M12.204 9.00637V12.0084M12.204 12.0084H12.2142M12.204 12.0084H16.282M16.2719 20.0139H20.3397M4.06836 12.0084H8.1362M20.3397 12.0084H20.3499M5.08532 8.00568H7.11924C7.38895 8.00568 7.64762 7.90025 7.83834 7.71259C8.02905 7.52492 8.1362 7.27039 8.1362 7.00499V5.00362C8.1362 4.73822 8.02905 4.48369 7.83834 4.29602C7.64762 4.10836 7.38895 4.00293 7.11924 4.00293H5.08532C4.8156 4.00293 4.55694 4.10836 4.36622 4.29602C4.1755 4.48369 4.06836 4.73822 4.06836 5.00362V7.00499C4.06836 7.27039 4.1755 7.52492 4.36622 7.71259C4.55694 7.90025 4.8156 8.00568 5.08532 8.00568ZM17.2888 8.00568H19.3228C19.5925 8.00568 19.8511 7.90025 20.0419 7.71259C20.2326 7.52492 20.3397 7.27039 20.3397 7.00499V5.00362C20.3397 4.73822 20.2326 4.48369 20.0419 4.29602C19.8511 4.10836 19.5925 4.00293 19.3228 4.00293H17.2888C17.0191 4.00293 16.7605 4.10836 16.5697 4.29602C16.379 4.48369 16.2719 4.73822 16.2719 5.00362V7.00499C16.2719 7.27039 16.379 7.52492 16.5697 7.71259C16.7605 7.90025 17.0191 8.00568 17.2888 8.00568ZM5.08532 20.0139H7.11924C7.38895 20.0139 7.64762 19.9085 7.83834 19.7208C8.02905 19.5332 8.1362 19.2787 8.1362 19.0133V17.0119C8.1362 16.7465 8.02905 16.4919 7.83834 16.3043C7.64762 16.1166 7.38895 16.0112 7.11924 16.0112H5.08532C4.8156 16.0112 4.55694 16.1166 4.36622 16.3043C4.1755 16.4919 4.06836 16.7465 4.06836 17.0119V19.0133C4.06836 19.2787 4.1755 19.5332 4.36622 19.7208C4.55694 19.9085 4.8156 20.0139 5.08532 20.0139Z" stroke="white" stroke-width="2" stroke-linecap="round" stroke-linejoin="round"/>
</svg>
