<svg width="19" height="20" viewBox="0 0 19 20" fill="none" xmlns="http://www.w3.org/2000/svg">
<path d="M9.50033 1.42969V2.47135M15.7503 13.9297H17.8337M11.5837 13.9297H9.50033V18.0964M9.50033 6.63802V9.76302M9.50033 9.76302H9.51074M9.50033 9.76302H13.6774M13.667 18.0964H17.8337M1.16699 9.76302H5.33366M17.8337 9.76302H17.8441M2.20866 5.59635H4.29199C4.56826 5.59635 4.83321 5.48661 5.02856 5.29126C5.22391 5.09591 5.33366 4.83095 5.33366 4.55469V2.47135C5.33366 2.19509 5.22391 1.93014 5.02856 1.73478C4.83321 1.53943 4.56826 1.42969 4.29199 1.42969H2.20866C1.93239 1.42969 1.66744 1.53943 1.47209 1.73478C1.27674 1.93014 1.16699 2.19509 1.16699 2.47135V4.55469C1.16699 4.83095 1.27674 5.09591 1.47209 5.29126C1.66744 5.48661 1.93239 5.59635 2.20866 5.59635ZM14.7087 5.59635H16.792C17.0683 5.59635 17.3332 5.48661 17.5286 5.29126C17.7239 5.09591 17.8337 4.83095 17.8337 4.55469V2.47135C17.8337 2.19509 17.7239 1.93014 17.5286 1.73478C17.3332 1.53943 17.0683 1.42969 16.792 1.42969H14.7087C14.4324 1.42969 14.1674 1.53943 13.9721 1.73478C13.7767 1.93014 13.667 2.19509 13.667 2.47135V4.55469C13.667 4.83095 13.7767 5.09591 13.9721 5.29126C14.1674 5.48661 14.4324 5.59635 14.7087 5.59635ZM2.20866 18.0964H4.29199C4.56826 18.0964 4.83321 17.9866 5.02856 17.7913C5.22391 17.5959 5.33366 17.331 5.33366 17.0547V14.9714C5.33366 14.6951 5.22391 14.4301 5.02856 14.2348C4.83321 14.0394 4.56826 13.9297 4.29199 13.9297H2.20866C1.93239 13.9297 1.66744 14.0394 1.47209 14.2348C1.27674 14.4301 1.16699 14.6951 1.16699 14.9714V17.0547C1.16699 17.331 1.27674 17.5959 1.47209 17.7913C1.66744 17.9866 1.93239 18.0964 2.20866 18.0964Z" stroke="#FE9903" stroke-width="2" stroke-linecap="round" stroke-linejoin="round"/>
</svg>
