<svg width="21" height="23" viewBox="0 0 21 23" fill="currentColor" xmlns="http://www.w3.org/2000/svg">
<path fill-rule="evenodd" clip-rule="evenodd" d="M19.0165 3.97984L12.6356 0.426511C11.6234 -0.128498 10.3979 -0.128498 9.38564 0.426511L2.98314 3.97984C1.91128 4.56714 1.24628 5.69347 1.24981 6.91568V13.7948C1.24612 14.0774 1.28632 14.3588 1.36898 14.629C0.715229 15.297 0.352933 16.1969 0.361476 17.1315C0.364581 18.0946 0.755 19.016 1.44481 19.6882L3.95814 22.0823C5.09876 23.1788 6.90169 23.1788 8.04231 22.0823L9.12564 21.0965L9.79731 20.4573C10.7454 20.8405 11.8155 20.7769 12.7115 20.284L19.0923 16.7307C20.1316 16.1204 20.7641 15 20.7498 13.7948V6.91568C20.7533 5.69347 20.0883 4.56714 19.0165 3.97984ZM9.37481 18.5832L8.29148 19.6665L7.94481 19.9915L6.86148 20.9882C6.35001 21.4793 5.54211 21.4793 5.03064 20.9882L2.56064 18.5832C1.83167 17.8462 1.78928 16.6734 2.46314 15.8857L2.56064 15.7665C3.34253 14.9884 4.60625 14.9884 5.38814 15.7665L5.97314 16.3515L6.55814 15.7665C6.92871 15.3884 7.43708 15.1772 7.96648 15.1815C8.49514 15.1809 9.00214 15.3915 9.37481 15.7665C10.1458 16.5471 10.1458 17.8026 9.37481 18.5832ZM12.3648 10.079L17.1423 7.42484C17.5817 7.1822 17.7416 6.62966 17.4998 6.18984C17.3859 5.9732 17.1876 5.81317 16.9517 5.74755C16.7159 5.68193 16.4635 5.71653 16.254 5.84318L11.4765 8.49734C11.1698 8.65186 10.8081 8.65186 10.5015 8.49734L5.72398 5.84318C5.51636 5.72368 5.26928 5.69309 5.03879 5.75837C4.8083 5.82364 4.61394 5.97923 4.49981 6.18984C4.25801 6.62966 4.41796 7.1822 4.85731 7.42484L9.63481 10.079C9.78256 10.1497 9.93451 10.2112 10.0898 10.2632V12.7115C10.0898 13.2141 10.4972 13.6215 10.9998 13.6215C11.5024 13.6215 11.9098 13.2141 11.9098 12.7115V10.2632C12.0651 10.2112 12.2171 10.1497 12.3648 10.079Z" fill="white"/>
</svg>
