<svg width="20" height="22" viewBox="0 0 20 22" fill="none" xmlns="http://www.w3.org/2000/svg">
<path d="M17.0629 5.5625C16.0059 4.18939 14.5716 3.15413 12.9354 2.58341C11.2992 2.01268 9.53222 1.93122 7.8505 2.34899C6.16878 2.76677 4.64529 3.66567 3.46643 4.93571C2.28757 6.20575 1.50445 7.79187 1.21289 9.5M17.5004 1V6H12.5004M2.93539 16.4375C3.99211 17.8111 5.4264 18.8469 7.06269 19.418C8.69898 19.989 10.4663 20.0707 12.1482 19.6528C13.8302 19.235 15.3538 18.3358 16.5327 17.0654C17.7115 15.795 18.4943 14.2085 18.7854 12.5M2.49914 21V16H7.49914" stroke="#5D5E65" stroke-width="2" stroke-linecap="round" stroke-linejoin="round"/>
</svg>
