<svg width="20" height="24" viewBox="0 0 20 24" fill="none" xmlns="http://www.w3.org/2000/svg">
                <path d="M7.44922 15.2874C7.6844 15.7337 7.5242 16.2861 7.08672 16.5374C6.94761 16.6097 6.79346 16.6482 6.63672 16.6499C6.2965 16.6507 5.98183 16.4695 5.81172 16.1749L4.19922 13.2499C3.96038 12.7992 4.12568 12.2403 4.57124 11.992C5.01679 11.7437 5.57909 11.8972 5.83672 12.3374L7.44922 15.2874Z" fill="white"></path>
                <path fill-rule="evenodd" clip-rule="evenodd" d="M12.9617 9.6874H18.9367C19.2819 9.6874 19.5617 9.96722 19.5617 10.3124V18.9624C19.5617 21.7238 17.3231 23.9624 14.5617 23.9624H5.94922C3.18779 23.9624 0.949219 21.7238 0.949219 18.9624V5.0249C0.949219 2.26348 3.18779 0.0249023 5.94922 0.0249023H9.28672C9.6291 0.0315525 9.90507 0.307517 9.91172 0.649902V6.6124C9.9084 7.42463 10.2279 8.20491 10.7999 8.78159C11.3718 9.35826 12.1495 9.68409 12.9617 9.6874ZM10.1016 22.2156C10.2662 22.1265 10.3632 21.9491 10.3492 21.7624L10.4242 19.2874C10.4199 18.9376 10.3297 18.5942 10.1617 18.2874L6.87422 12.2874C6.41179 11.1684 5.14679 10.616 4.01172 11.0374C3.03075 11.769 2.80923 13.1479 3.51172 14.1499L6.78672 20.1749C6.95287 20.4841 7.19892 20.7431 7.49922 20.9249L9.58672 22.1749C9.73532 22.2887 9.93692 22.3046 10.1016 22.2156Z" fill="white"></path>
                <path d="M11.2242 0.749902V6.4624C11.2242 7.48413 12.0525 8.3124 13.0742 8.3124H18.8617C19.1703 8.33784 19.4589 8.15755 19.5714 7.86911C19.6839 7.58067 19.5935 7.25258 19.3492 7.0624L12.4117 0.249902C12.2102 0.0543495 11.9114 -0.00187104 11.6526 0.107092C11.3938 0.216055 11.2252 0.469112 11.2242 0.749902Z" fill="white"></path>
                </svg>