<svg width="26" height="26" viewBox="0 0 26 26" fill="currentColor" xmlns="http://www.w3.org/2000/svg">
<path fill-rule="evenodd" clip-rule="evenodd" d="M9.06016 3.19798H16.9018C17.8231 3.15164 18.726 3.45545 19.4111 4.04234C20.0963 4.62923 20.5074 5.45097 20.5537 6.32619V21.2863C20.555 21.5859 20.4232 21.8721 20.1908 22.0747C19.9584 22.2772 19.6468 22.3773 19.3327 22.3503C19.0574 22.3503 18.7897 22.2643 18.5709 22.1056L13.7203 18.605C13.2623 18.2787 12.6325 18.2787 12.1744 18.605L7.36862 22.1056C7.15596 22.26 6.89689 22.3457 6.62926 22.3503C6.31512 22.3773 6.00355 22.2772 5.77112 22.0747C5.53869 21.8721 5.40693 21.5859 5.40821 21.2863V6.32619C5.45454 5.45097 5.86565 4.62923 6.5508 4.04234C7.23595 3.45545 8.13883 3.15164 9.06016 3.19798ZM14.7621 17.3388L18.851 20.318L18.8286 6.32619C18.7226 5.39854 17.8586 4.71944 16.8794 4.79401H9.03776C8.0585 4.71944 7.19457 5.39854 7.08856 6.32619V20.318L11.1774 17.3388C12.2362 16.5726 13.7034 16.5726 14.7621 17.3388Z" fill="white"/>
</svg>
