<svg width="19" height="20" viewBox="0 0 19 20" fill="none" xmlns="http://www.w3.org/2000/svg">
<path fill-rule="evenodd" clip-rule="evenodd" d="M1.06176 5.66949C2.48796 2.24485 5.82961 0.0101985 9.53934 0.000289986C13.5444 -0.0237731 17.1069 2.54053 18.3553 6.34608C19.6038 10.1516 18.2527 14.3279 15.0117 16.681C11.7707 19.0341 7.3813 19.0257 4.14934 16.6603L1.27934 19.5303C0.986522 19.8227 0.512158 19.8227 0.21934 19.5303C-0.0731134 19.2375 -0.0731134 18.7631 0.21934 18.4703L3.00934 15.6803C0.403243 13.0401 -0.364444 9.09412 1.06176 5.66949ZM11.86 6.04191C12.1041 6.62574 12.6766 7.00433 13.3093 7.00029C14.1654 7.00029 14.8593 6.30633 14.8593 5.45029C14.8634 4.81753 14.4848 4.245 13.901 4.00098C13.3171 3.75696 12.6437 3.8898 12.1963 4.33723C11.7488 4.78468 11.616 5.45808 11.86 6.04191Z" fill="white"/>
</svg>
