<svg width="33" height="34" viewBox="0 0 33 34" fill="none" xmlns="http://www.w3.org/2000/svg">
<path fill-rule="evenodd" clip-rule="evenodd" d="M30.3175 9.78286C27.9343 4.07514 22.3502 0.350713 16.1511 0.334199C9.46994 0.299109 3.5292 4.56741 1.44654 10.8991C-0.636115 17.2309 1.61508 24.1796 7.01871 28.0987C12.4224 32.0178 19.744 32.0119 25.1413 28.0842L29.954 32.8842C30.4433 33.3716 31.236 33.3716 31.7253 32.8842C32.214 32.3962 32.214 31.6056 31.7253 31.1175L27.063 26.4675C31.418 22.0673 32.7008 15.4906 30.3175 9.78286ZM28.0831 20.6158C26.0821 25.4252 21.3719 28.5576 16.1511 28.5509V28.4842C9.06539 28.4752 3.31322 22.7679 3.26734 15.7009C3.26058 10.4938 6.4012 5.79594 11.2233 3.80015C16.0454 1.80436 21.5982 2.90412 25.2898 6.5861C28.9815 10.2681 30.0841 15.8063 28.0831 20.6158Z" fill="#054FB0"/>
</svg>
