<svg width="14" height="14" viewBox="0 0 14 14" fill="none" xmlns="http://www.w3.org/2000/svg">
<path fill-rule="evenodd" clip-rule="evenodd" d="M6.66667 13.6663C10.3486 13.6663 13.3333 10.6816 13.3333 6.99967C13.3333 3.31778 10.3486 0.333008 6.66667 0.333008C2.98477 0.333008 0 3.31778 0 6.99967C0 10.6816 2.98477 13.6663 6.66667 13.6663ZM5.23361 4.68273C4.98953 4.43865 4.5938 4.43865 4.34972 4.68273C4.10565 4.92681 4.10565 5.32254 4.34972 5.56662L5.78278 6.99967L4.34972 8.43273C4.10565 8.67681 4.10565 9.07254 4.34972 9.31662C4.5938 9.56069 4.98953 9.56069 5.23361 9.31662L6.66667 7.88356L8.09972 9.31662C8.3438 9.56069 8.73953 9.56069 8.98361 9.31662C9.22768 9.07254 9.22768 8.67681 8.98361 8.43273L7.55055 6.99967L8.98361 5.56662C9.22768 5.32254 9.22768 4.92681 8.98361 4.68273C8.73953 4.43865 8.3438 4.43865 8.09972 4.68273L6.66667 6.11579L5.23361 4.68273Z" fill="#626262"/>
</svg>
