<svg width="20" height="20" viewBox="0 0 20 20" fill="none" xmlns="http://www.w3.org/2000/svg">
<path d="M9.064 2.24627L6.93861 6.55564L2.18334 7.24891C1.33058 7.37259 0.988822 8.42389 1.60724 9.02603L5.04757 12.3785L4.23386 17.1142C4.0874 17.9702 4.98898 18.6114 5.74409 18.2111L9.99813 15.975L14.2522 18.2111C15.0073 18.6082 15.9089 17.9702 15.7624 17.1142L14.9487 12.3785L18.389 9.02603C19.0074 8.42389 18.6657 7.37259 17.8129 7.24891L13.0576 6.55564L10.9323 2.24627C10.5514 1.47814 9.44806 1.46837 9.064 2.24627Z" fill="#E5E9F2"/>
<path d="M10.0004 1.6665C9.62925 1.6665 9.2581 1.85859 9.06602 2.24601L6.94008 6.5565L2.18357 7.2467C1.33059 7.37041 0.988744 8.42199 1.60732 9.02428L5.04854 12.3776L4.23463 17.1146C4.08813 17.9643 4.98343 18.6122 5.74525 18.2117L10.0004 15.9784V1.6665Z" fill="#E5A800"/>
</svg>
