<svg width="22" height="22" viewBox="0 0 22 22" fill="none" xmlns="http://www.w3.org/2000/svg">
<path d="M21.4032 0.240789C21.8372 0.54157 22.0649 1.06149 21.9833 1.58141L19.2333 19.4564C19.1688 19.8732 18.9153 20.2384 18.5458 20.4447C18.1762 20.6509 17.7337 20.6767 17.3426 20.5134L12.2036 18.3779L9.26021 21.5619C8.87779 21.9787 8.27623 22.1162 7.74771 21.9099C7.2192 21.7037 6.87545 21.1924 6.87545 20.6252V17.033C6.87545 16.8611 6.9399 16.6978 7.05592 16.5732L14.2575 8.71423C14.5067 8.44352 14.4981 8.02673 14.2403 7.76891C13.9825 7.5111 13.5657 7.49391 13.295 7.73884L4.55513 15.5033L0.760994 13.6041C0.305526 13.3763 0.0133382 12.9209 0.000447543 12.4138C-0.0124431 11.9068 0.253963 11.4341 0.692244 11.1806L19.9422 0.180633C20.402 -0.0814763 20.9692 -0.0556951 21.4032 0.240789Z" fill="white"/>
</svg>
