<svg width="20" height="20" viewBox="0 0 20 20" fill="currentColor" xmlns="http://www.w3.org/2000/svg">
<path d="M6.6831 11.3419C6.8851 10.9379 6.9991 10.4819 6.9991 9.99987C6.9991 9.51787 6.8851 9.06187 6.6831 8.65787M6.6831 11.3419C6.38081 11.9463 5.88331 12.4309 5.2712 12.7172C4.65909 13.0036 3.96823 13.0749 3.31055 12.9196C2.65286 12.7643 2.06687 12.3915 1.64752 11.8615C1.22816 11.3316 1 10.6756 1 9.99987C1 9.3241 1.22816 8.66812 1.64752 8.1382C2.06687 7.60828 2.65286 7.23547 3.31055 7.08017C3.96823 6.92486 4.65909 6.99616 5.2712 7.28251C5.88331 7.56886 6.38081 8.05348 6.6831 8.65787M6.6831 11.3419L13.3151 14.6579M6.6831 8.65787L13.3151 5.34187M13.3151 14.6579C12.9592 15.3697 12.9006 16.1938 13.1523 16.9488C13.404 17.7038 13.9453 18.3279 14.6571 18.6839C15.3689 19.0398 16.193 19.0984 16.948 18.8467C17.7031 18.595 18.3272 18.0537 18.6831 17.3419C19.039 16.63 19.0976 15.806 18.8459 15.0509C18.5942 14.2959 18.0529 13.6718 17.3411 13.3159C16.9886 13.1396 16.6049 13.0346 16.2118 13.0066C15.8187 12.9787 15.424 13.0284 15.0502 13.1531C14.2951 13.4047 13.671 13.946 13.3151 14.6579ZM13.3151 5.34187C13.4913 5.69427 13.7353 6.00851 14.0329 6.26665C14.3306 6.52478 14.6762 6.72176 15.05 6.84633C15.4238 6.9709 15.8185 7.02062 16.2115 6.99266C16.6045 6.9647 16.9882 6.8596 17.3406 6.68337C17.693 6.50714 18.0072 6.26322 18.2654 5.96554C18.5235 5.66786 18.7205 5.32226 18.8451 4.94845C18.9696 4.57465 19.0194 4.17997 18.9914 3.78695C18.9634 3.39394 18.8583 3.01027 18.6821 2.65787C18.3262 1.94616 17.7021 1.40499 16.9472 1.15341C16.1923 0.901832 15.3683 0.96045 14.6566 1.31637C13.9449 1.67229 13.4037 2.29636 13.1521 3.05129C12.9006 3.80621 12.9592 4.63016 13.3151 5.34187Z" stroke="white" stroke-width="2" stroke-linecap="round" stroke-linejoin="round"/>
</svg>
