<svg width="26" height="22" viewBox="0 0 26 22" fill="none" xmlns="http://www.w3.org/2000/svg">
<path d="M24.9133 7.85081L19.2883 13.4758C19.1124 13.6517 18.8738 13.7506 18.625 13.7506C18.3762 13.7506 18.1376 13.6517 17.9617 13.4758C17.7858 13.2999 17.687 13.0613 17.687 12.8125C17.687 12.5638 17.7858 12.3252 17.9617 12.1493L21.9871 8.12503H17.3359C15.0492 8.1244 12.8271 8.88383 11.0191 10.2839C9.21111 11.684 7.91973 13.6453 7.34805 15.8594C7.28589 16.1003 7.13059 16.3066 6.91631 16.433C6.70204 16.5593 6.44634 16.5954 6.20547 16.5332C5.9646 16.4711 5.75829 16.3158 5.63192 16.1015C5.50555 15.8872 5.46948 15.6315 5.53164 15.3907C6.20619 12.7733 7.73214 10.4547 9.86921 8.79983C12.0063 7.145 14.6331 6.24798 17.3359 6.25003H21.9895L17.9617 2.22581C17.8746 2.13871 17.8055 2.0353 17.7584 1.9215C17.7112 1.80769 17.687 1.68572 17.687 1.56253C17.687 1.43935 17.7112 1.31737 17.7584 1.20357C17.8055 1.08976 17.8746 0.986355 17.9617 0.899252C18.1376 0.723339 18.3762 0.624512 18.625 0.624512C18.7482 0.624512 18.8702 0.648774 18.984 0.695914C19.0978 0.743054 19.2012 0.812148 19.2883 0.899252L24.9133 6.52425C25.0004 6.61132 25.0696 6.71472 25.1168 6.82853C25.164 6.94234 25.1882 7.06433 25.1882 7.18753C25.1882 7.31073 25.164 7.43273 25.1168 7.54654C25.0696 7.66035 25.0004 7.76375 24.9133 7.85081ZM20.5 19.375H2.6875V5.31253C2.6875 5.06389 2.58873 4.82544 2.41291 4.64962C2.2371 4.47381 1.99864 4.37503 1.75 4.37503C1.50136 4.37503 1.2629 4.47381 1.08709 4.64962C0.911272 4.82544 0.8125 5.06389 0.8125 5.31253V20.3125C0.8125 20.5612 0.911272 20.7996 1.08709 20.9754C1.2629 21.1513 1.50136 21.25 1.75 21.25H20.5C20.7486 21.25 20.9871 21.1513 21.1629 20.9754C21.3387 20.7996 21.4375 20.5612 21.4375 20.3125C21.4375 20.0639 21.3387 19.8254 21.1629 19.6496C20.9871 19.4738 20.7486 19.375 20.5 19.375Z" fill="#5D5E65"/>
</svg>
