<svg width="20" height="17" viewBox="0 0 20 17" fill="none" xmlns="http://www.w3.org/2000/svg">
<path fill-rule="evenodd" clip-rule="evenodd" d="M8 0.5H2C1.46957 0.5 0.960859 0.710714 0.585786 1.08579C0.210714 1.46086 0 1.96957 0 2.5V14.5C0 15.0304 0.210714 15.5391 0.585786 15.9142C0.960859 16.2893 1.46957 16.5 2 16.5H8V0.5ZM2.379 5.793C2.19153 5.98053 2.08621 6.23484 2.08621 6.5C2.08621 6.76516 2.19153 7.01947 2.379 7.207L3.672 8.5L2.379 9.793C2.28349 9.88525 2.20731 9.99559 2.1549 10.1176C2.10249 10.2396 2.0749 10.3708 2.07375 10.5036C2.0726 10.6364 2.0979 10.7681 2.14818 10.891C2.19846 11.0139 2.27271 11.1255 2.3666 11.2194C2.4605 11.3133 2.57215 11.3875 2.69505 11.4378C2.81794 11.4881 2.94962 11.5134 3.0824 11.5123C3.21518 11.5111 3.3464 11.4835 3.4684 11.4311C3.59041 11.3787 3.70075 11.3025 3.793 11.207L5.793 9.207C5.98047 9.01947 6.08579 8.76516 6.08579 8.5C6.08579 8.23484 5.98047 7.98053 5.793 7.793L3.793 5.793C3.60547 5.60553 3.35116 5.50021 3.086 5.50021C2.82084 5.50021 2.56653 5.60553 2.379 5.793Z" fill="#5D5E65"/>
<path d="M10 16.5H18C18.5304 16.5 19.0391 16.2893 19.4142 15.9142C19.7893 15.5391 20 15.0304 20 14.5V2.5C20 1.96957 19.7893 1.46086 19.4142 1.08579C19.0391 0.710714 18.5304 0.5 18 0.5H10V16.5Z" fill="#5D5E65"/>
</svg>
