<svg width="24" height="25" viewBox="0 0 24 25" fill="none" xmlns="http://www.w3.org/2000/svg">
<path d="M18.2897 9.80202V3.7823C18.2897 3.36672 17.9539 3.02983 17.5397 3.02983C17.1255 3.02983 16.7897 3.36672 16.7897 3.7823V9.80202C16.7897 10.2176 17.1255 10.5545 17.5397 10.5545C17.9539 10.5545 18.2897 10.2176 18.2897 9.80202Z" fill="#4B5563"/>
<path fill-rule="evenodd" clip-rule="evenodd" d="M10.8997 5.69858V3.7823C10.8997 3.36672 11.2355 3.02983 11.6497 3.02983C12.0639 3.02983 12.3997 3.36672 12.3997 3.7823V5.69858C13.4213 6.0646 14.0322 7.11505 13.847 8.18741C13.6619 9.25976 12.7345 10.0429 11.6497 10.0429C10.565 10.0429 9.63758 9.25976 9.45245 8.18741C9.26732 7.11505 9.87817 6.0646 10.8997 5.69858ZM10.9197 7.79545C10.9197 8.19994 11.2466 8.52785 11.6497 8.52785C12.0529 8.52785 12.3797 8.19994 12.3797 7.79545C12.3797 7.6012 12.3028 7.41491 12.1659 7.27756C12.029 7.14021 11.8433 7.06305 11.6497 7.06305C11.2466 7.06305 10.9197 7.39095 10.9197 7.79545Z" fill="#4B5563"/>
<path fill-rule="evenodd" clip-rule="evenodd" d="M16.8297 15.5408C16.0229 15.1981 15.4908 14.4131 15.4697 13.5342H15.5397C15.5353 12.3708 16.4204 11.3981 17.5756 11.2968C18.7308 11.1956 19.7706 11.9995 19.9674 13.146C20.1642 14.2926 19.4522 15.3991 18.3297 15.6913C18.3354 15.7346 18.3354 15.7784 18.3297 15.8217V19.7847C18.3297 20.2003 17.9939 20.5372 17.5797 20.5372C17.1655 20.5372 16.8297 20.2003 16.8297 19.7847V15.7716C16.8202 15.6949 16.8202 15.6174 16.8297 15.5408ZM17.7728 14.2703C18.1644 14.2525 18.4721 13.9276 18.4697 13.5342H18.4297C18.4275 13.3327 18.3425 13.1411 18.1949 13.0044C18.0473 12.8677 17.8501 12.7981 17.6497 12.8119C17.2607 12.8604 16.9793 13.2085 17.0124 13.6005C17.0454 13.9924 17.3811 14.2881 17.7728 14.2703Z" fill="#4B5563"/>
<path d="M6.18974 9.80202V3.7823C6.18974 3.35564 5.84499 3.00977 5.41974 3.00977C4.99448 3.00977 4.64974 3.35564 4.64974 3.7823V9.80202C4.64974 10.2176 4.98552 10.5545 5.39974 10.5545C5.81395 10.5545 6.14974 10.2176 6.14974 9.80202H6.18974Z" fill="#4B5563"/>
<path fill-rule="evenodd" clip-rule="evenodd" d="M6.18974 15.9522V19.8349H6.14974C6.14974 20.2505 5.81395 20.5873 5.39974 20.5873C4.98552 20.5873 4.64974 20.2505 4.64974 19.8349V15.8217C3.67733 15.3628 3.17222 14.2709 3.45054 13.2295C3.72887 12.1881 4.7107 11.4962 5.78154 11.5869C6.85237 11.6776 7.70471 12.5248 7.80509 13.5983C7.90547 14.6718 7.22507 15.6632 6.18974 15.9522ZM5.31338 13.1314C5.04094 13.2479 4.86568 13.5181 4.86974 13.8152C4.87521 14.2157 5.20044 14.5376 5.59974 14.5375C5.8959 14.5375 6.16269 14.358 6.27507 14.083C6.38745 13.8081 6.32314 13.4923 6.11228 13.2837C5.90143 13.075 5.58581 13.0149 5.31338 13.1314Z" fill="#4B5563"/>
<path d="M12.3997 19.8349V11.8086C12.3997 11.393 12.0639 11.0561 11.6497 11.0561C11.2355 11.0561 10.8997 11.393 10.8997 11.8086V19.8349C10.8997 20.2505 11.2355 20.5874 11.6497 20.5874C12.0639 20.5874 12.3997 20.2505 12.3997 19.8349Z" fill="#4B5563"/>
</svg>
