<svg width="20" height="20" viewBox="0 0 20 20" fill="none" xmlns="http://www.w3.org/2000/svg">
<path fill-rule="evenodd" clip-rule="evenodd" d="M10.0004 19.6004C12.5465 19.6004 14.9883 18.589 16.7886 16.7886C18.589 14.9883 19.6004 12.5465 19.6004 10.0004C19.6004 7.45431 18.589 5.01251 16.7886 3.21217C14.9883 1.41182 12.5465 0.400391 10.0004 0.400391C7.45431 0.400391 5.01251 1.41182 3.21217 3.21217C1.41182 5.01251 0.400391 7.45431 0.400391 10.0004C0.400391 12.5465 1.41182 14.9883 3.21217 16.7886C5.01251 18.589 7.45431 19.6004 10.0004 19.6004ZM6.40039 8.80039C6.71865 8.80039 7.02387 8.67396 7.24892 8.44892C7.47396 8.22387 7.60039 7.91865 7.60039 7.60039C7.60039 7.28213 7.47396 6.97691 7.24892 6.75186C7.02387 6.52682 6.71865 6.40039 6.40039 6.40039C6.08213 6.40039 5.77691 6.52682 5.55186 6.75186C5.32682 6.97691 5.20039 7.28213 5.20039 7.60039C5.20039 7.91865 5.32682 8.22387 5.55186 8.44892C5.77691 8.67396 6.08213 8.80039 6.40039 8.80039ZM14.8004 7.60039C14.8004 7.91865 14.674 8.22387 14.4489 8.44892C14.2239 8.67396 13.9186 8.80039 13.6004 8.80039C13.2821 8.80039 12.9769 8.67396 12.7519 8.44892C12.5268 8.22387 12.4004 7.91865 12.4004 7.60039C12.4004 7.28213 12.5268 6.97691 12.7519 6.75186C12.9769 6.52682 13.2821 6.40039 13.6004 6.40039C13.9186 6.40039 14.2239 6.52682 14.4489 6.75186C14.674 6.97691 14.8004 7.28213 14.8004 7.60039ZM14.2436 14.2424C14.355 14.1309 14.4434 13.9986 14.5036 13.8529C14.5639 13.7073 14.5949 13.5512 14.5948 13.3936C14.5948 13.2359 14.5637 13.0799 14.5033 12.9343C14.4429 12.7887 14.3545 12.6564 14.243 12.545C14.1315 12.4336 13.9992 12.3452 13.8535 12.2849C13.7079 12.2247 13.5518 12.1937 13.3942 12.1937C13.2365 12.1938 13.0805 12.2249 12.9349 12.2853C12.7893 12.3456 12.657 12.4341 12.5456 12.5456C11.8705 13.2205 10.955 13.5996 10.0004 13.5996C9.0458 13.5996 8.13029 13.2205 7.45519 12.5456C7.23018 12.3204 6.92494 12.1939 6.60661 12.1937C6.28829 12.1936 5.98296 12.32 5.75779 12.545C5.53262 12.77 5.40606 13.0752 5.40595 13.3936C5.40583 13.7119 5.53218 14.0172 5.75719 14.2424C6.31436 14.7997 6.97587 15.2418 7.70392 15.5434C8.43198 15.8451 9.21233 16.0003 10.0004 16.0003C10.7885 16.0003 11.5688 15.8451 12.2969 15.5434C13.0249 15.2418 13.6864 14.7997 14.2436 14.2424Z" fill="#1074C3"/>
</svg>
