<svg width="28" height="22" viewBox="0 0 28 22" fill="none" xmlns="http://www.w3.org/2000/svg">
<path d="M15.875 1.25378C15.875 0.209405 14.6131 -0.312783 13.8744 0.42503L9.47375 4.82659C9.29949 5.00066 9.09265 5.13868 8.86503 5.23279C8.63741 5.32689 8.39349 5.37522 8.14719 5.37503H4.625C3.63044 5.37503 2.67661 5.77012 1.97335 6.47338C1.27009 7.17664 0.875 8.13047 0.875 9.12503V12.875C0.875 13.8696 1.27009 14.8234 1.97335 15.5267C2.67661 16.2299 3.63044 16.625 4.625 16.625H8.14719C8.39349 16.6248 8.63741 16.6732 8.86503 16.7673C9.09265 16.8614 9.29949 16.9994 9.47375 17.1735L13.8744 21.575C14.6131 22.3128 15.875 21.7907 15.875 20.7463V1.25378ZM10.7994 6.15222L14 2.95159V19.0494L10.7994 15.8488C10.4511 15.5004 10.0377 15.2241 9.58259 15.0356C9.12752 14.847 8.63976 14.75 8.14719 14.75H4.625C4.12772 14.75 3.65081 14.5525 3.29917 14.2009C2.94754 13.8492 2.75 13.3723 2.75 12.875V9.12503C2.75 8.62775 2.94754 8.15084 3.29917 7.79921C3.65081 7.44757 4.12772 7.25003 4.625 7.25003H8.14719C8.6397 7.25017 9.12741 7.15329 9.58248 6.96493C10.0375 6.77657 10.451 6.5004 10.7994 6.15222ZM20.3975 4.84441C20.3283 4.74159 20.2395 4.65352 20.1361 4.58526C20.0326 4.51701 19.9167 4.46993 19.795 4.44675C19.6733 4.42358 19.5482 4.42476 19.4269 4.45023C19.3056 4.47571 19.1906 4.52497 19.0885 4.59517C18.9864 4.66537 18.8992 4.75511 18.832 4.85921C18.7648 4.96331 18.7189 5.0797 18.697 5.20165C18.675 5.3236 18.6775 5.44869 18.7042 5.56969C18.7309 5.69069 18.7813 5.8052 18.8525 5.90659C20.0572 7.65972 20.6216 9.35284 20.6216 11C20.6216 12.6482 20.0572 14.3422 18.8525 16.0944C18.7813 16.1958 18.7309 16.3103 18.7042 16.4313C18.6775 16.5523 18.675 16.6774 18.697 16.7993C18.7189 16.9213 18.7648 17.0377 18.832 17.1418C18.8992 17.2459 18.9864 17.3356 19.0885 17.4058C19.1906 17.476 19.3056 17.5253 19.4269 17.5508C19.5482 17.5762 19.6733 17.5774 19.795 17.5542C19.9167 17.5311 20.0326 17.484 20.1361 17.4157C20.2395 17.3475 20.3283 17.2594 20.3975 17.1566C21.7709 15.1597 22.4956 13.1028 22.4956 11C22.4956 8.89816 21.7709 6.84222 20.3975 4.84441ZM23.0844 0.94628C22.9042 0.774718 22.6633 0.681744 22.4146 0.687809C22.1659 0.693875 21.9298 0.798484 21.7583 0.978624C21.5867 1.15876 21.4937 1.39968 21.4998 1.64837C21.5059 1.89706 21.6105 2.13316 21.7906 2.30472C24.0284 4.43566 25.1919 7.68409 25.1919 11C25.1919 14.316 24.0284 17.5653 21.7906 19.6963C21.7014 19.7812 21.6298 19.8829 21.5799 19.9955C21.53 20.1081 21.5028 20.2295 21.4998 20.3526C21.4968 20.4758 21.5181 20.5983 21.5624 20.7132C21.6068 20.8281 21.6733 20.9332 21.7583 21.0224C21.8432 21.1116 21.9449 21.1832 22.0575 21.2331C22.1701 21.283 22.2915 21.3102 22.4146 21.3132C22.5378 21.3162 22.6603 21.2949 22.7752 21.2506C22.8901 21.2062 22.9952 21.1397 23.0844 21.0547C25.7684 18.4982 27.0659 14.7153 27.0659 11C27.0659 7.28472 25.7694 3.50284 23.0844 0.94628Z" fill="#5D5E65"/>
</svg>
