<svg width="25" height="24" viewBox="0 0 25 24" fill="none" xmlns="http://www.w3.org/2000/svg">
<path d="M13.6347 2.69193C13.3271 1.74462 11.9869 1.74462 11.6783 2.69193L10.1159 7.49947C10.0486 7.70586 9.91778 7.88566 9.74208 8.01314C9.56638 8.14062 9.35485 8.20925 9.13777 8.20919H4.08337C3.08772 8.20919 2.67217 9.48462 3.47857 10.0709L7.56817 13.0414C7.74384 13.1691 7.87458 13.3492 7.94166 13.5557C8.00873 13.7623 8.00869 13.9848 7.94154 14.1914L6.38017 18.9989C6.0716 19.9462 7.15674 20.7351 7.96212 20.1488L12.0517 17.1783C12.2275 17.0506 12.4392 16.9817 12.6565 16.9817C12.8738 16.9817 13.0855 17.0506 13.2613 17.1783L17.3509 20.1488C18.1563 20.7351 19.2414 19.9472 18.9329 18.9989L17.3715 14.1914C17.3043 13.9848 17.3043 13.7623 17.3714 13.5557C17.4384 13.3492 17.5692 13.1691 17.7449 13.0414L21.8345 10.0709C22.6398 9.48462 22.2263 8.20919 21.2297 8.20919H16.1742C15.9573 8.20903 15.746 8.1403 15.5705 8.01284C15.395 7.88537 15.2643 7.70569 15.1971 7.49947L13.6347 2.69193Z" stroke="#415982" stroke-width="2" stroke-linecap="round" stroke-linejoin="round"/>
</svg>
