<svg width="25" height="24" viewBox="0 0 25 24" fill="none" xmlns="http://www.w3.org/2000/svg">
<path fill-rule="evenodd" clip-rule="evenodd" d="M20.2815 1.25314C20.0726 0.971866 19.8008 0.743388 19.4878 0.585987C19.1747 0.428586 18.8292 0.346631 18.4789 0.34668C18.1285 0.346728 17.783 0.428779 17.4701 0.586267C17.1571 0.743755 16.8853 0.972308 16.6765 1.25364C15.0834 3.35314 13.7992 5.66999 12.863 8.13364C12.3445 9.49814 13.188 10.9621 14.6385 11.1836C17.1845 11.5716 19.7745 11.5716 22.3205 11.1836C23.771 10.9621 24.615 9.49764 24.096 8.13364C23.1595 5.66994 21.875 3.35258 20.2815 1.25314ZM18.269 2.46464C18.3385 2.37314 18.417 2.34714 18.479 2.34714C18.542 2.34714 18.62 2.37314 18.6895 2.46464C20.1672 4.41153 21.3584 6.56001 22.227 8.84464C22.266 8.94764 22.2495 9.02814 22.217 9.08314C22.1855 9.13814 22.1255 9.19064 22.019 9.20664C19.6729 9.56409 17.2861 9.56409 14.94 9.20664C14.8335 9.19064 14.7735 9.13764 14.742 9.08314C14.71 9.02814 14.6935 8.94814 14.732 8.84514C15.6004 6.56036 16.7914 4.41172 18.269 2.46464ZM3.624 0.65814C4.3255 0.56664 5.309 0.49414 6.6705 0.49414C8.032 0.49414 9.0155 0.56664 9.7165 0.65814C11.084 0.83664 11.9535 1.92914 12.0315 3.20364C12.0695 3.83414 12.099 4.71314 12.099 5.92314C12.099 7.13314 12.069 8.01114 12.031 8.64214C11.9535 9.91664 11.084 11.0091 9.7165 11.1871C9.0155 11.2791 8.0315 11.3516 6.6705 11.3516C5.3095 11.3516 4.3255 11.2791 3.6245 11.1876C2.257 11.0091 1.3875 9.91664 1.31 8.64214C1.2715 8.01114 1.242 7.13264 1.242 5.92314C1.242 4.71314 1.272 3.83414 1.31 3.20364C1.3875 1.92914 2.257 0.83664 3.6245 0.65864M2.75 17.9266C2.75 17.4118 2.85141 16.902 3.04843 16.4263C3.24545 15.9507 3.53424 15.5185 3.89829 15.1544C4.26234 14.7904 4.69453 14.5016 5.17019 14.3046C5.64585 14.1075 6.15565 14.0061 6.6705 14.0061C7.18535 14.0061 7.69515 14.1075 8.17081 14.3046C8.64647 14.5016 9.07866 14.7904 9.44271 15.1544C9.80676 15.5185 10.0955 15.9507 10.2926 16.4263C10.4896 16.902 10.591 17.4118 10.591 17.9266C10.591 18.9664 10.1779 19.9636 9.44271 20.6989C8.70748 21.4341 7.71028 21.8471 6.6705 21.8471C5.63072 21.8471 4.63352 21.4341 3.89829 20.6989C3.16305 19.9636 2.75 18.9664 2.75 17.9266ZM6.67 12.0061C3.401 12.0061 0.75 14.6566 0.75 17.9266C0.75 21.1966 3.4 23.8471 6.67 23.8471C9.94 23.8471 12.591 21.1966 12.591 17.9266C12.591 14.6566 9.94 12.0061 6.67 12.0061ZM13.048 14.4826C13.048 14.1511 13.1797 13.8332 13.4141 13.5988C13.6485 13.3643 13.9665 13.2326 14.298 13.2326H22.663C22.9945 13.2326 23.3125 13.3643 23.5469 13.5988C23.7813 13.8332 23.913 14.1511 23.913 14.4826C23.913 14.8142 23.7813 15.1321 23.5469 15.3665C23.3125 15.6009 22.9945 15.7326 22.663 15.7326H14.298C13.9665 15.7326 13.6485 15.6009 13.4141 15.3665C13.1797 15.1321 13.048 14.8142 13.048 14.4826ZM13.048 17.9266C13.048 17.5951 13.1797 17.2772 13.4141 17.0428C13.6485 16.8083 13.9665 16.6766 14.298 16.6766H22.663C22.9945 16.6766 23.3125 16.8083 23.5469 17.0428C23.7813 17.2772 23.913 17.5951 23.913 17.9266C23.913 18.2582 23.7813 18.5761 23.5469 18.8105C23.3125 19.0449 22.9945 19.1766 22.663 19.1766H14.298C13.9665 19.1766 13.6485 19.0449 13.4141 18.8105C13.1797 18.5761 13.048 18.2582 13.048 17.9266ZM14.298 20.1216C13.9665 20.1216 13.6485 20.2533 13.4141 20.4878C13.1797 20.7222 13.048 21.0401 13.048 21.3716C13.048 21.7032 13.1797 22.0211 13.4141 22.2555C13.6485 22.4899 13.9665 22.6216 14.298 22.6216H22.663C22.9945 22.6216 23.3125 22.4899 23.5469 22.2555C23.7813 22.0211 23.913 21.7032 23.913 21.3716C23.913 21.0401 23.7813 20.7222 23.5469 20.4878C23.3125 20.2533 22.9945 20.1216 22.663 20.1216H14.298Z" fill="#5D5E65"/>
</svg>
